Monoid-Oblique.sfdir
StartChar: exclam
Encoding: 33 33 56
GlifName: exclam
Width: 1024
VWidth: 0
Flags: W
HStem: -16 288<376.366 546.877> 1388 20G<632.339 784>
VStem: 314 295<47.6972 210.36>
LayerCount: 3
Back
Fore
SplineSet
489 272 m 0
 563 272 609 227 609 160 c 0
 609 59 527 -16 433 -16 c 0
 359 -16 314 29 314 96 c 0
 314 199 397 272 489 272 c 0
600 512 m 1
 472 512 l 1
 636 1408 l 1
 784 1408 l 1
 600 512 l 1
EndSplineSet
Layer: 2
EndChar
StartChar: quotedbl
Encoding: 34 34 57
GlifName: quotedbl
Width: 1024
VWidth: 0
Flags: W
HStem: 1388 20G<514.094 646 898.094 1030>
VStem: 393 637
LayerCount: 3
Back
Fore
SplineSet
902 1408 m 5
 1030 1408 l 5
 905 768 l 5
 777 768 l 5
 902 1408 l 5
518 1408 m 1
 646 1408 l 1
 521 768 l 1
 393 768 l 1
 518 1408 l 1
EndSplineSet
Layer: 2
EndChar
StartChar: numbersign
Encoding: 35 35 58
GlifName: numbersign
Width: 1024
VWidth: 0
Flags: W
HStem: 0 21G<244 375.906 628 759.906> 384 120<214 319 470 703 854 959> 904 120<315 420 571 804 955 1060> 1388 20G<514.094 646 898.094 1030>
LayerCount: 2
Back
Fore
SplineSet
548 904 m 5
 470 504 l 5
 726 504 l 5
 804 904 l 5
 548 904 l 5
982 504 m 5
 959 384 l 5
 831 384 l 5
 756 0 l 5
 628 0 l 5
 703 384 l 5
 447 384 l 5
 372 0 l 5
 244 0 l 5
 319 384 l 5
 191 384 l 5
 214 504 l 5
 342 504 l 5
 420 904 l 5
 292 904 l 5
 315 1024 l 5
 443 1024 l 5
 518 1408 l 5
 646 1408 l 5
 571 1024 l 5
 827 1024 l 5
 902 1408 l 5
 1030 1408 l 5
 955 1024 l 5
 1083 1024 l 5
 1060 904 l 5
 932 904 l 5
 854 504 l 5
 982 504 l 5
EndSplineSet
Validated: 1
EndChar
StartChar: percent
Encoding: 37 37 60
GlifName: percent
Width: 1024
VWidth: 0
Flags: W
HStem: -16 120<552.654 759.432> 408 120<596.806 800.359> 880 120<342.654 549.432> 1304 120<386.806 590.359>
VStem: 190 130<1023.78 1233.77> 400 130<127.783 337.769> 616 130<1070.29 1280.22> 826 130<174.291 384.217>
LayerCount: 2
Back
Fore
SplineSet
707 408 m 4
 591 408 530 310 530 216 c 4
 530 143 576 104 648 104 c 4
 750 104 826 185 826 296 c 4
 826 369 779 408 707 408 c 4
731 528 m 4
 871 528 956 437 956 313 c 4
 956 154 821 -16 625 -16 c 4
 485 -16 400 75 400 199 c 4
 400 358 536 528 731 528 c 4
73 212 m 1
 2 300 l 1
 1072 1196 l 1
 1143 1108 l 1
 73 212 l 1
497 1304 m 0
 381 1304 320 1206 320 1112 c 0
 320 1039 366 1000 438 1000 c 0
 540 1000 616 1081 616 1192 c 0
 616 1265 569 1304 497 1304 c 0
521 1424 m 0
 661 1424 746 1333 746 1209 c 0
 746 1050 611 880 415 880 c 0
 275 880 190 971 190 1095 c 0
 190 1254 326 1424 521 1424 c 0
EndSplineSet
Validated: 1
EndChar
StartChar: ampersand
Encoding: 38 38 61
GlifName: ampersand
Width: 1024
VWidth: 0
Flags: W
HStem: -16 120<274.488 649.271> 0 21G<796.512 962> 716 103<579 645.41> 1308 120<554.18 811.43>
VStem: 25 130<211.37 496.071> 305 130<909.012 1183.67> 863 130<997.895 1258.15>
LayerCount: 3
Back
Fore
SplineSet
442 681 m 1xbe
 301 636 155 521 155 340 c 0
 155 206 258 104 456 104 c 0
 556 104 645 132 710 182 c 1
 442 681 l 1xbe
524 819 m 1
 744 870 863 988 863 1145 c 0
 863 1242 800 1308 690 1308 c 0
 532 1308 435 1174 435 1045 c 0
 435 979 466 928 524 819 c 1
802 299 m 1
 821 338 831 383 840 431 c 2
 880 640 l 1
 1008 640 l 1
 968 431 l 2
 951 342 927 254 866 179 c 1
 962 0 l 1
 807 0 l 1x7e
 764 82 l 1
 676 20 559 -16 433 -16 c 0
 164 -16 25 134 25 319 c 0
 25 544 203 718 388 782 c 1
 341 871 305 938 305 1025 c 0
 305 1228 474 1428 714 1428 c 0
 887 1428 993 1319 993 1165 c 0
 993 956 823 777 579 716 c 1
 802 299 l 1
EndSplineSet
Layer: 2
Substitution2: "Single Substitution lookup 53 subtable" larsenwork6
Substitution2: "Single Substitution lookup 52 subtable" ampamp
EndChar
StartChar: quotesingle
Encoding: 39 39 62
GlifName: quotesingle
Width: 1024
VWidth: 0
Flags: W
HStem: 1388 20G<642.094 773>
VStem: 521 252
LayerCount: 3
Back
Fore
SplineSet
646 1408 m 5
 773 1408 l 5
 649 768 l 5
 521 768 l 5
 646 1408 l 5
EndSplineSet
Layer: 2
EndChar
StartChar: parenleft
Encoding: 40 40 63
GlifName: parenleft
Width: 1024
VWidth: 0
Flags: W
VStem: 332 130<248.73 773.63>
LayerCount: 2
Back
Fore
SplineSet
462 486 m 4
 462 235 565 63 743 -35 c 1
 668 -140 l 1
 457 -27 332 173 332 465 c 4
 332 1045 696 1428 996 1546 c 5
 1030 1441 l 5
 780 1341 462 1000 462 486 c 4
EndSplineSet
Validated: 1
EndChar
StartChar: parenright
Encoding: 41 41 64
GlifName: parenright
Width: 1024
VWidth: 0
Flags: W
VStem: 683 130<616.948 1164.7>
LayerCount: 3
Back
Fore
SplineSet
683 919 m 0
 683 1172 578 1347 405 1436 c 1
 478 1546 l 1
 687 1440 813 1237 813 940 c 0
 813 424 507 3 150 -140 c 1
 120 -30 l 1
 423 92 683 469 683 919 c 0
EndSplineSet
Layer: 2
EndChar
StartChar: asterisk
Encoding: 42 42 65
GlifName: asterisk
Width: 1024
VWidth: 0
Flags: W
HStem: 1004 20G<413.478 459.675 883.543 929.761>
LayerCount: 3
Back
Fore
SplineSet
513 522 m 5
 122 402 l 5
 102 515 l 5
 500 637 l 5
 330 957 l 5
 449 1024 l 5
 615 713 l 5
 902 1024 l 5
 995 957 l 5
 700 637 l 5
 1050 515 l 5
 986 402 l 5
 641 522 l 5
 565 128 l 5
 437 128 l 5
 513 522 l 5
EndSplineSet
Layer: 2
Substitution2: "'ss02' Style Set 2 lookup 1 subtable" asterisk.multi
EndChar
StartChar: plus
Encoding: 43 43 66
GlifName: plus
Width: 1024
VWidth: 0
Flags: W
HStem: 516 120<139 499 651 1011> 1004 20G<594.134 726>
LayerCount: 3
Back
Fore
SplineSet
651 636 m 5
 1035 636 l 5
 1011 516 l 5
 627 516 l 5
 552 128 l 5
 424 128 l 5
 499 516 l 5
 115 516 l 5
 139 636 l 5
 523 636 l 5
 598 1024 l 5
 726 1024 l 5
 651 636 l 5
EndSplineSet
Layer: 2
EndChar
StartChar: comma
Encoding: 44 44 67
GlifName: comma
Width: 1024
VWidth: 0
Flags: W
HStem: -272 120<177 279.375>
VStem: 154 384
LayerCount: 3
Back
Fore
SplineSet
282 384 m 5
 538 384 l 5
 467 23 l 6
 455 -37 443 -107 377 -177 c 4
 324 -234 244 -272 154 -272 c 5
 177 -152 l 5
 224 -152 260 -135 286 -107 c 4
 321 -70 329 -27 339 23 c 6
 360 128 l 5
 232 128 l 5
 282 384 l 5
EndSplineSet
Validated: 1
Layer: 2
EndChar
StartChar: hyphen
Encoding: 45 45 55
GlifName: hyphen
Width: 1024
VWidth: 0
Flags: W
HStem: 516 120<140 1012>
LayerCount: 3
Back
Fore
SplineSet
140 636 m 1
 1036 636 l 1
 1012 516 l 1
 116 516 l 1
 140 636 l 1
EndSplineSet
Layer: 2
Substitution2: "Single Substitution lookup 48 subtable" hyphenmore
Substitution2: "Single Substitution lookup 47 subtable" hyphenmore
Substitution2: "Single Substitution lookup 32 subtable" larsenwork
Substitution2: "Single Substitution lookup 31 subtable" ligaarrowleft
Substitution2: "Single Substitution lookup 27 subtable" larsenwork1
Substitution2: "Single Substitution lookup 26 subtable" ligaarrowlefttwoheads
Substitution2: "Single Substitution lookup 22 subtable" larsenwork
Substitution2: "Single Substitution lookup 21 subtable" larsenwork
Substitution2: "Single Substitution lookup 20 subtable" ligaarrowleftlong
Substitution2: "Single Substitution lookup 19 subtable" larsenwork3
Substitution2: "Single Substitution lookup 17 subtable" commentstart
Substitution2: "Single Substitution lookup 16 subtable" larsenwork5
EndChar
StartChar: period
Encoding: 46 46 68
GlifName: period
Width: 1024
VWidth: 0
Flags: W
HStem: 0 256<281 487>
VStem: 231 306
LayerCount: 2
Back
Fore
SplineSet
281 256 m 5
 537 256 l 5
 487 0 l 5
 231 0 l 5
 281 256 l 5
EndSplineSet
Validated: 1
EndChar
StartChar: slash
Encoding: 47 47 69
GlifName: slash
Width: 1024
VWidth: 0
Flags: W
LayerCount: 3
Back
Fore
SplineSet
68 -155 m 1
 -35 -102 l 1
 1078 1563 l 1
 1181 1510 l 1
 68 -155 l 1
EndSplineSet
Layer: 2
Substitution2: "Single Substitution lookup 68 subtable" ligadoubleslash
Substitution2: "Single Substitution lookup 67 subtable" larsenwork
Substitution2: "Single Substitution lookup 66 subtable" ligatrippleslash
Substitution2: "Single Substitution lookup 65 subtable" larsenwork1
Substitution2: "Single Substitution lookup 64 subtable" larsenwork1
EndChar
StartChar: one
Encoding: 49 49 71
GlifName: one
Width: 1024
VWidth: 0
Flags: W
HStem: 0 21G<500 631.892> 1388 20G<762.639 902>
VStem: 306 596
LayerCount: 2
Back
Fore
SplineSet
794 1408 m 1
 902 1408 l 1
 628 0 l 1
 500 0 l 1
 742 1246 l 1
 732 1246 l 1
 306 976 l 1
 333 1114 l 1
 794 1408 l 1
EndSplineSet
Validated: 1
EndChar
StartChar: two
Encoding: 50 50 72
GlifName: two
Width: 1024
VWidth: 0
Flags: W
HStem: 0 120<301 810> 1304 120<389.269 803.046>
VStem: 858 130<1006.25 1253.76>
LayerCount: 2
Back
Fore
SplineSet
387 1393 m 1
 477 1410 586 1424 681 1424 c 0
 907 1424 988 1305 988 1168 c 0
 988 1025 921 944 860 863 c 2
 301 120 l 1
 833 120 l 1
 810 0 l 1
 116 0 l 1
 133 89 l 1
 757 919 l 2
 808 987 858 1043 858 1148 c 0
 858 1228 816 1304 657 1304 c 0
 558 1304 447 1288 363 1273 c 1
 387 1393 l 1
EndSplineSet
Validated: 1
EndChar
StartChar: three
Encoding: 51 51 73
GlifName: three
Width: 1024
VWidth: 0
Flags: W
HStem: -16 120<137.231 587.91> 644 120<393 686.074> 1304 120<389.64 796.991>
VStem: 741 130<262.375 589.05> 851 129<931.64 1251.8>
CounterMasks: 1 e0
LayerCount: 3
Back
Fore
SplineSet
673 1424 m 0xe8
 889 1424 980 1310 980 1143 c 0xe8
 980 960 892 792 764 713 c 1
 762 703 l 1
 832 654 871 568 871 465 c 0
 871 261 742 -16 403 -16 c 0
 300 -16 200 -4 118 10 c 1
 141 131 l 1
 222 117 325 104 416 104 c 0
 675 104 741 302 741 451 c 0xf0
 741 534 711 601 648 628 c 0
 618 641 576 644 527 644 c 2
 369 644 l 1
 393 764 l 1
 552 764 l 2
 599 764 638 767 671 780 c 0
 780 823 851 976 851 1127 c 0
 851 1234 799 1304 649 1304 c 0
 549 1304 449 1288 364 1276 c 1
 387 1396 l 1
 472 1410 566 1424 673 1424 c 0xe8
EndSplineSet
Layer: 2
Substitution2: "'ss06' Style Set 6 lookup 5 subtable" three.russian
EndChar
StartChar: five
Encoding: 53 53 75
GlifName: five
Width: 1024
VWidth: 0
Flags: W
HStem: -16 120<138.442 579.298> 792 120<491.886 716.86> 1288 120<494 1006>
VStem: 764.046 130.713<344.651 744.036>
LayerCount: 3
Back
Fore
SplineSet
143 137 m 1
 219 122 336 104 440 104 c 4
 716.378046665 104 764.046062682 441.377953901 764.046062682 600.017972406 c 4
 764.046062682 709.557078994 726.48985768 792 606 792 c 0
 512 792 431 744 376 683 c 1
 255 717 l 1
 390 1408 l 1
 1030 1408 l 1
 1006 1288 l 1
 494 1288 l 1
 403 816 l 1
 413 816 l 1
 483 872 551 912 649 912 c 0
 821.952463921 912 894.759128117 806.583368711 894.759128117 629.363797357 c 4
 894.759128117 390.079989704 802.436899109 -16 417 -16 c 4
 305 -16 198 1 119 15 c 1
 143 137 l 1
EndSplineSet
Layer: 2
EndChar
StartChar: seven
Encoding: 55 55 77
GlifName: seven
Width: 1024
VWidth: 0
Flags: W
HStem: 0 21G<223 362.47> 1288 120<360 901>
LayerCount: 3
Back
Fore
SplineSet
336 1288 m 1
 360 1408 l 1
 1060 1408 l 1
 1042 1318 l 1
 352 0 l 1
 223 0 l 1
 899 1278 l 1
 901 1288 l 1
 336 1288 l 1
EndSplineSet
Validated: 1
Layer: 2
EndChar
StartChar: eight
Encoding: 56 56 78
GlifName: eight
Width: 1024
VWidth: 0
Flags: W
HStem: -16 120<334.466 591.457> 648 120<474.824 679.777> 1304 120<565.881 801.424>
VStem: 147 129<164.088 471.497> 295 129<815.432 1131.77> 742 129<280.804 589.714> 851 129<936.889 1254.29>
LayerCount: 3
Back
Fore
SplineSet
851 1127 m 0xfa
 851 1229 806 1304 689 1304 c 0
 488 1304 424 1077 424 945 c 0
 424 843 468 768 585 768 c 0
 794 768 851 1008 851 1127 c 0xfa
406 716 m 1
 326 768 295 846 295 938 c 0
 295 1145 429 1424 713 1424 c 0
 898 1424 980 1304 980 1143 c 0xfa
 980 962 901 797 744 716 c 1
 742 706 l 1
 833 654 871 570 871 470 c 0xfc
 871 247 715 -16 433 -16 c 0
 241 -16 147 106 147 275 c 0
 147 462 238 630 404 706 c 1
 406 716 l 1
562 648 m 0
 357 648 276 439 276 293 c 0
 276 182 330 104 456 104 c 0
 661 104 742 313 742 459 c 0xfc
 742 570 688 648 562 648 c 0
EndSplineSet
Validated: 1
Layer: 2
EndChar
StartChar: nine
Encoding: 57 57 79
GlifName: nine
Width: 1024
VWidth: 0
Flags: W
HStem: -16 120<169.402 563.7> 496 120<419.658 645.062> 1304 120<535.14 795.105>
VStem: 243 135<657.285 1028.09> 836 132<876.388 1262.72>
LayerCount: 3
Back
Fore
SplineSet
673 1304 m 0
 486 1304 435 1147 399 960 c 0
 387 898 378 840 378 789 c 0
 378 686 415 616 540 616 c 0
 727 616 779 773 815 960 c 0
 827 1022 836 1080 836 1131 c 0
 836 1234 798 1304 673 1304 c 0
172 124 m 1
 268 110 355 104 414 104 c 0
 530 104 607 156 656 255 c 0
 692 328 711 430 731 532 c 2
 749 621 l 1
 739 621 l 1
 667 536 594 496 496 496 c 0
 348 496 267 579 247 696 c 0
 244 715 243 735 243 755 c 0
 243 816 256 883 271 960 c 0
 287 1042 305 1137 354 1224 c 0
 420 1341 539 1424 697 1424 c 0
 855 1424 941 1341 962 1224 c 0
 966 1201 968 1178 968 1153 c 0
 968 1106 961 1055 949 993 c 2
 859 532 l 2
 835 411 814 306 767 213 c 0
 703 85 569 -16 411 -16 c 0
 327 -16 251 -11 148 1 c 1
 172 124 l 1
EndSplineSet
Layer: 2
EndChar
StartChar: colon
Encoding: 58 58 80
GlifName: colon
Width: 1024
VWidth: 0
Flags: W
HStem: 0 256<282 488> 768 256<431 637>
VStem: 232 455
LayerCount: 3
Back
Fore
SplineSet
431 1024 m 5
 687 1024 l 5
 637 768 l 5
 381 768 l 5
 431 1024 l 5
282 256 m 5
 538 256 l 5
 488 0 l 5
 232 0 l 5
 282 256 l 5
EndSplineSet
Validated: 1
Layer: 2
EndChar
StartChar: semicolon
Encoding: 59 59 81
GlifName: semicolon
Width: 1024
VWidth: 0
Flags: W
HStem: -272 120<178 280.375> 768 256<407 613>
VStem: 155 508
LayerCount: 3
Back
Fore
SplineSet
407 1024 m 5
 663 1024 l 5
 613 768 l 5
 357 768 l 5
 407 1024 l 5
283 384 m 5
 539 384 l 5
 468 23 l 6
 456 -37 444 -107 378 -177 c 4
 325 -234 245 -272 155 -272 c 5
 178 -152 l 5
 225 -152 261 -135 287 -107 c 4
 322 -70 330 -27 340 23 c 6
 361 128 l 5
 233 128 l 5
 283 384 l 5
EndSplineSet
Validated: 1
Layer: 2
EndChar
StartChar: less
Encoding: 60 60 82
GlifName: less
Width: 1024
VWidth: 0
Flags: W
LayerCount: 3
Back
Fore
SplineSet
831 200 m 1
 740 99 l 1
 219 528 l 1
 237 624 l 1
 926 1053 l 1
 977 952 l 1
 374 581 l 1
 372 571 l 1
 831 200 l 1
EndSplineSet
Layer: 2
Substitution2: "Single Substitution lookup 63 subtable" less2
Substitution2: "Single Substitution lookup 62 subtable" less1
Substitution2: "Single Substitution lookup 39 subtable" larsenwork3
Substitution2: "Single Substitution lookup 30 subtable" larsenwork2
Substitution2: "Single Substitution lookup 25 subtable" larsenwork1
Substitution2: "Single Substitution lookup 24 subtable" larsenwork1
Substitution2: "Single Substitution lookup 18 subtable" larsenwork3
Substitution2: "Single Substitution lookup 14 subtable" larsenwork5
EndChar
StartChar: equal
Encoding: 61 61 83
GlifName: equal
Width: 1024
VWidth: 0
Flags: W
HStem: 260 120<62 935> 772 120<161 1034>
LayerCount: 3
Back
Fore
SplineSet
62 380 m 5
 958 380 l 5
 935 260 l 5
 39 260 l 5
 62 380 l 5
161 892 m 5
 1057 892 l 5
 1034 772 l 5
 138 772 l 5
 161 892 l 5
EndSplineSet
Validated: 1
Layer: 2
EndChar
StartChar: greater
Encoding: 62 62 84
GlifName: greater
Width: 1024
VWidth: 0
Flags: W
LayerCount: 3
Back
Fore
SplineSet
119 200 m 1
 722 571 l 1
 724 581 l 1
 265 952 l 1
 356 1053 l 1
 877 624 l 1
 859 528 l 1
 170 99 l 1
 119 200 l 1
EndSplineSet
Validated: 1
Layer: 2
Substitution2: "Single Substitution lookup 62 subtable" greater2
Substitution2: "Single Substitution lookup 61 subtable" greater1
Substitution2: "Single Substitution lookup 47 subtable" ligaequalarrow
Substitution2: "Single Substitution lookup 42 subtable" larsenwork4
Substitution2: "Single Substitution lookup 34 subtable" ligaarrowright
Substitution2: "Single Substitution lookup 30 subtable" ligaarrowrighttwoheads
Substitution2: "Single Substitution lookup 29 subtable" larsenwork1
Substitution2: "Single Substitution lookup 24 subtable" ligaarrowrightlong
EndChar
StartChar: question
Encoding: 63 63 85
GlifName: question
Width: 1024
VWidth: 0
Flags: W
HStem: -16 288<375.733 546.651> 1304 120<411.088 808.375>
VStem: 314 295<47.6972 209.496> 472 128<512 628.795> 858 130<992.145 1255.19>
LayerCount: 3
Back
Fore
SplineSet
489 272 m 0xe8
 563 272 609 227 609 160 c 0
 609 75 542 -16 433 -16 c 0
 359 -16 314 29 314 96 c 0
 314 181 380 272 489 272 c 0xe8
472 512 m 1xd8
 489 599 519 692 623 781 c 0
 749 889 858 987 858 1150 c 0
 858 1249 794 1304 647 1304 c 0
 563 1304 462 1284 384 1267 c 1
 408 1387 l 1
 489 1405 587 1424 671 1424 c 0
 881 1424 988 1330 988 1172 c 0
 988 960 851 827 703 701 c 0
 623 632 611 570 600 512 c 1
 472 512 l 1xd8
EndSplineSet
Layer: 2
EndChar
StartChar: A
Encoding: 65 65 29
GlifName: A_
Width: 1024
VWidth: 0
Flags: W
HStem: 0 21G<-37 116.5 774 915.5> 388 120<273 794> 1279 129<657.74 699.806>
VStem: -37 135<0 115.857> 794 135<6.84301 388 508 886.622>
AnchorPoint: "bottom" 830 0 basechar 0
AnchorPoint: "top" 704 1408 basechar 0
LayerCount: 3
Back
Fore
SplineSet
-37 0 m 1
 112 496 316 971 645 1408 c 1
 775 1408 l 1
 887 1100 929 773 929 433 c 0
 929 291 922 146 909 0 c 1
 774 0 l 1
 789 136 794 265 794 388 c 1
 228 388 l 1
 185 265 135 136 98 0 c 1
 -37 0 l 1
797 508 m 1
 785 796 762 1054 690 1279 c 1
 680 1279 l 1
 520 1054 397 796 273 508 c 1
 797 508 l 1
EndSplineSet
Layer: 2
EndChar
StartChar: B
Encoding: 66 66 30
GlifName: B_
Width: 1024
VWidth: 0
Flags: W
HStem: 0 120<203 674.659> 648 120<329 710.851> 1288 120<430 795.969>
VStem: 833 129<282.865 582.925> 870 130<930.009 1215.11>
LayerCount: 3
Back
Fore
SplineSet
478 768 m 6xe8
 554 768 594 769 632 778 c 4
 756 807 870 925 870 1089 c 4
 870 1189 816 1258 729 1278 c 4
 695 1286 655 1288 579 1288 c 6
 430 1288 l 1
 329 768 l 1
 478 768 l 6xe8
767 726 m 5
 887 691 962 592 962 459 c 4xf0
 962 234 789 56 619 16 c 4
 552 0 488 0 403 0 c 6
 52 0 l 1
 326 1408 l 1
 603 1408 l 6
 680 1408 732 1408 784 1395 c 4
 913 1363 1000 1260 1000 1111 c 4
 1000 928 895 797 769 736 c 5
 767 726 l 5
306 648 m 1
 203 120 l 1
 426 120 l 6
 507 120 563 120 610 132 c 4
 726 161 833 283 833 449 c 4
 833 546 787 616 708 636 c 4
 665 647 610 648 529 648 c 6
 306 648 l 1
EndSplineSet
Layer: 2
EndChar
StartChar: C
Encoding: 67 67 31
GlifName: C_
Width: 1024
VWidth: 0
Flags: W
HStem: -16 120<317.463 821.566> 1304 120<531.336 1042.17>
VStem: 72 131<225.997 729.688>
LayerCount: 3
Back
Fore
SplineSet
203 432 m 4
 203 237 270 104 479 104 c 4
 595 104 728 121 847 141 c 5
 824 21 l 5
 709 1 583 -16 456 -16 c 4
 181 -16 72 160 72 410 c 4
 72 509 90 609 109 704 c 4
 130 814 155 930 206 1044 c 4
 305 1265 469 1424 726 1424 c 4
 845 1424 958 1412 1061 1395 c 5
 1038 1275 l 5
 932 1292 811 1304 702 1304 c 4
 511 1304 402 1187 325 1016 c 4
 281 919 258 813 237 704 c 4
 219 610 203 518 203 432 c 4
EndSplineSet
Layer: 2
EndChar
StartChar: D
Encoding: 68 68 32
GlifName: D_
Width: 1024
VWidth: 0
Flags: W
HStem: 0 120<139 573.614> 1288 120<366 786.185>
VStem: 938 130<662.511 1134.12>
LayerCount: 2
Back
Fore
SplineSet
743 278 m 0
 843 397 874 525 909 704 c 0
 925 787 938 869 938 947 c 0
 938 1143 849 1288 614 1288 c 2
 366 1288 l 1
 139 120 l 1
 387 120 l 2
 548 120 673 195 743 278 c 0
638 1408 m 2
 742 1408 844 1378 923 1317 c 0
 1022 1239 1068 1118 1068 961 c 0
 1068 874 1053 788 1037 704 c 0
 1018 605 995 503 949 400 c 0
 854 189 649 0 364 0 c 2
 -12 0 l 1
 262 1408 l 1
 638 1408 l 2
EndSplineSet
Validated: 1
EndChar
StartChar: E
Encoding: 69 69 33
GlifName: E_
Width: 1024
VWidth: 0
Flags: W
HStem: 0 120<267 884> 648 120<393 882> 1288 120<494 1134>
LayerCount: 2
Back
Fore
SplineSet
390 1408 m 1
 1158 1408 l 1
 1134 1288 l 1
 494 1288 l 1
 393 768 l 1
 905 768 l 1
 882 648 l 1
 370 648 l 1
 267 120 l 1
 907 120 l 1
 884 0 l 1
 116 0 l 1
 390 1408 l 1
EndSplineSet
Validated: 1
EndChar
StartChar: F
Encoding: 70 70 34
GlifName: F_
Width: 1024
VWidth: 0
Flags: W
HStem: 0 21G<52 183.875> 640 120<328 816> 1288 120<430 1070>
LayerCount: 3
Back
Fore
SplineSet
326 1408 m 5
 1094 1408 l 5
 1070 1288 l 5
 430 1288 l 5
 328 760 l 5
 840 760 l 5
 816 640 l 5
 304 640 l 5
 180 0 l 5
 52 0 l 5
 326 1408 l 5
EndSplineSet
Layer: 2
EndChar
StartChar: G
Encoding: 71 71 35
GlifName: G_
Width: 1024
VWidth: 0
Flags: W
HStem: -16 120<313.664 714.074> 648 120<585 818> 1304 120<545.907 1022.42>
VStem: 72 131<227.062 729.688>
LayerCount: 3
Back
Fore
SplineSet
436 -16 m 4
 180 -16 72 162 72 410 c 4
 72 509 90 609 109 704 c 4
 130 814 155 930 206 1044 c 4
 305 1266 488 1424 746 1424 c 4
 851 1424 953 1415 1043 1402 c 5
 1019 1282 l 5
 925 1295 818 1304 722 1304 c 4
 528 1304 403 1187 325 1016 c 4
 281 919 258 813 237 704 c 4
 219 610 203 518 203 432 c 4
 203 240 270 104 459 104 c 4
 540 104 629 113 717 128 c 5
 818 648 l 5
 562 648 l 5
 585 768 l 5
 969 768 l 5
 827 34 l 5
 705 6 570 -16 436 -16 c 4
EndSplineSet
Layer: 2
EndChar
StartChar: H
Encoding: 72 72 36
GlifName: H_
Width: 1024
VWidth: 0
Flags: W
HStem: 0 21G<52 183.875 692 823.892> 640 120<328 816> 1388 20G<322.108 454 962.111 1094>
LayerCount: 3
Back
Fore
SplineSet
326 1408 m 5
 454 1408 l 5
 328 760 l 5
 840 760 l 5
 966 1408 l 5
 1094 1408 l 5
 820 0 l 5
 692 0 l 5
 816 640 l 5
 304 640 l 5
 180 0 l 5
 52 0 l 5
 326 1408 l 5
EndSplineSet
Layer: 2
EndChar
StartChar: I
Encoding: 73 73 37
GlifName: I_
Width: 1024
VWidth: 0
Flags: W
HStem: 0 120<139 395 523 756> 1288 120<390 622 750 1006>
LayerCount: 2
Back
Fore
SplineSet
1030 1408 m 5
 1006 1288 l 5
 750 1288 l 5
 523 120 l 5
 779 120 l 5
 756 0 l 5
 116 0 l 5
 139 120 l 5
 395 120 l 5
 622 1288 l 5
 366 1288 l 5
 390 1408 l 5
 1030 1408 l 5
EndSplineSet
Validated: 1
EndChar
StartChar: J
Encoding: 74 74 38
GlifName: J_
Width: 1024
VWidth: 0
Flags: W
HStem: -16 120<136.723 555.35> 1388 20G<898.116 1030>
AnchorPoint: "top" 965.688 1408 basechar 0
LayerCount: 3
Back
Fore
SplineSet
856 512 m 2
 833.268877867 394.947784879 811.076460963 285.953093568 754 193 c 0
 684 79 563 -16 401 -16 c 0
 285 -16 195 -2 118 8 c 1
 141 129 l 1
 216 118 313 104 417 104 c 0
 516 104 590.235113327 152.851375497 642 235 c 0
 688 308 708.273293675 409.947172614 728 512 c 6
 902 1408 l 5
 1030 1408 l 1
 856 512 l 2
EndSplineSet
Layer: 2
EndChar
StartChar: L
Encoding: 76 76 40
GlifName: L_
Width: 1024
VWidth: 0
Flags: W
HStem: 0 120<267 884> 1388 20G<386.108 518>
LayerCount: 3
Back
Fore
SplineSet
116 0 m 5
 390 1408 l 5
 518 1408 l 5
 267 120 l 5
 907 120 l 5
 884 0 l 5
 116 0 l 5
EndSplineSet
Validated: 1
Layer: 2
EndChar
StartChar: N
Encoding: 78 78 41
GlifName: N_
Width: 1024
VWidth: 0
Flags: W
HStem: 0 21G<52 183.888 686.987 823.888> 1388 20G<321.8 457.718 961.8 1093.69>
LayerCount: 2
Back
Fore
SplineSet
180 0 m 5
 52 0 l 5
 325.6875 1408 l 5
 452.6875 1408 l 5
 736.426757812 280 l 5
 746.426757812 280 l 5
 965.6875 1408 l 5
 1093.6875 1408 l 5
 820 0 l 5
 692 0 l 5
 409.260742188 1128 l 5
 399.260742188 1128 l 5
 180 0 l 5
EndSplineSet
EndChar
StartChar: P
Encoding: 80 80 43
GlifName: P_
Width: 1024
VWidth: 0
Flags: W
HStem: 0 21G<52 183.885> 520 120<304 688.844> 1288 120<430 796.883>
VStem: 902 130<860.481 1186.12>
LayerCount: 3
Back
Fore
SplineSet
430 1288 m 5
 304 640 l 5
 453 640 l 6
 535 640 642 640 740 713 c 4
 825 776 902 895 902 1037 c 4
 902 1112 878 1174 837 1215 c 4
 767 1288 661 1288 579 1288 c 6
 430 1288 l 5
326 1408 m 5
 603 1408 l 6
 694 1408 841 1408 940 1303 c 4
 995 1244 1032 1160 1032 1057 c 4
 1032 867 924 712 808 625 c 4
 669 520 521 520 430 520 c 6
 281 520 l 5
 180 0 l 5
 52 0 l 5
 326 1408 l 5
EndSplineSet
Layer: 2
EndChar
StartChar: Q
Encoding: 81 81 44
GlifName: Q_
Width: 1024
VWidth: 0
Flags: W
HStem: -272 120<578.64 833> 1304 120<523.623 835.127>
VStem: 68 131<225.395 709.69> 947 131<698.31 1183.86>
LayerCount: 3
Back
Fore
SplineSet
713 1424 m 4
 969 1424 1078 1239 1078 1016 c 4
 1078 922 1059 816 1037 704 c 4
 1012 577 986 458 941 355 c 4
 864 181 721 29 525 -8 c 5
 541 -98 599 -152 701 -152 c 4
 758 -152 813 -147 856 -143 c 5
 833 -263 l 5
 788 -267 735 -272 671 -272 c 4
 490 -272 406 -155 392 -14 c 5
 165 5 68 181 68 392 c 4
 68 486 87 592 109 704 c 4
 134 831 160 950 205 1053 c 4
 293 1253 468 1424 713 1424 c 4
947 998 m 4
 947 1162 878 1304 689 1304 c 4
 509 1304 387 1174 324 1026 c 4
 283 930 260 820 237 704 c 4
 217 599 199 499 199 410 c 4
 199 264 255 138 397 109 c 5
 407 195 429 292 447 384 c 5
 575 384 l 5
 557 293 536 196 526 111 c 5
 667 139 764 255 821 382 c 4
 864 478 886 588 909 704 c 4
 929 809 947 909 947 998 c 4
EndSplineSet
Layer: 2
EndChar
StartChar: R
Encoding: 82 82 45
GlifName: R_
Width: 1024
VWidth: 0
Flags: W
HStem: 0 21G<52 183.885 719.953 861> 520 120<304 588.098> 1288 120<430 796.883>
VStem: 902.278 130.124<861.465 1184.92>
AnchorPoint: "top" 436 1408 basechar 0
AnchorPoint: "bottom" 436 0 basechar 0
LayerCount: 3
Back
SplineSet
430 1288 m 5
 304 640 l 5
 453 640 l 6
 535 640 642 641 740 713 c 4
 813 767 874 856 895 964 c 4
 916 1072 890 1161 837 1215 c 4
 767 1288 661 1288 579 1288 c 6
 430 1288 l 5
326 1408 m 5
 603 1408 l 6
 694 1408 841 1408 940 1303 c 4
 1011 1227 1052 1111 1023 964 c 4
 994 817 909 701 808 625 c 4
 779 603 750 586 720 572 c 5
 861 0 l 5
 725 0 l 5
 591 531 l 5
 529 520 473 520 430 520 c 6
 281 520 l 5
 180 0 l 5
 52 0 l 5
 326 1408 l 5
EndSplineSet
Fore
SplineSet
430 1288 m 1
 304 640 l 1
 453 640 l 2
 535 640 642 641 740 713 c 0
 825.383217509 776.160188294 902.277836228 895.113384277 902.277836228 1036.83501495 c 4
 902.277836228 1111.92481392 877.535915708 1173.69925569 837 1215 c 0
 767 1288 661 1288 579 1288 c 2
 430 1288 l 1
326 1408 m 1
 603 1408 l 2
 694 1408 841 1408 940 1303 c 0
 995.301082445 1243.80447513 1032.40214672 1160.34225937 1032.40214672 1056.86608809 c 4
 1032.40214672 835.409194911 883.549500748 648.323100349 720 572 c 5
 861 0 l 1
 725 0 l 1
 591 531 l 1
 529 520 473 520 430 520 c 2
 281 520 l 1
 180 0 l 1
 52 0 l 1
 326 1408 l 1
EndSplineSet
Layer: 2
EndChar
StartChar: S
Encoding: 83 83 46
GlifName: S_
Width: 1024
VWidth: 0
Flags: W
HStem: -16 120<132.909 677.015> 1304 120<575.378 1099.59>
VStem: 281 130<867.842 1139.7> 867 130<291.779 570.757>
LayerCount: 2
Back
Fore
SplineSet
477 -16 m 4
 343 -16 226 -2 113 16 c 5
 137 139 l 5
 248 121 372 104 500 104 c 4
 727 104 867 268 867 443 c 4
 867 536 820 603 751 632 c 4
 646 678 530 650 411 721 c 4
 332 768 281 855 281 967 c 4
 281 1180 456 1424 757 1424 c 4
 893 1424 1011 1411 1122 1399 c 5
 1098 1278 l 5
 988 1290 858 1304 733 1304 c 4
 524 1304 411 1138 411 989 c 4
 411 913 445 856 497 825 c 4
 585 773 713 788 820 742 c 4
 921 699 997 603 997 465 c 4
 997 219 785 -16 477 -16 c 4
EndSplineSet
Validated: 1
EndChar
StartChar: U
Encoding: 85 85 48
GlifName: U_
Width: 1024
VWidth: 0
Flags: W
HStem: -16 120<302.541 624.27> 1388 20G<258.116 390 1026.12 1158>
VStem: 62 130<209.484 568>
LayerCount: 2
Back
Fore
SplineSet
433 -16 m 4
 204 -16 62 123 62 324 c 4
 62 383 73 435 88 512 c 6
 262 1408 l 5
 390 1408 l 5
 216 512 l 6
 203 444 192 389 192 344 c 4
 192 199 292 104 456 104 c 4
 616 104 749 196 808 330 c 4
 829 378 841 437 856 512 c 6
 1030 1408 l 5
 1158 1408 l 5
 984 512 l 6
 967 426 956 371 927 303 c 4
 847 118 654 -16 433 -16 c 4
EndSplineSet
Validated: 1
Substitution2: "'ss01' Style Set 1 lookup 0 subtable" U.retina
EndChar
StartChar: W
Encoding: 87 87 50
GlifName: W_
Width: 1024
VWidth: 0
Flags: W
HStem: 0 21G<118 251.022 628.75 845.5> 1388 20G<207 381 998.5 1167>
VStem: 118 124<210 443.787> 1039 128<1213.04 1408>
LayerCount: 3
Back
Fore
SplineSet
548 896 m 1
 672 896 l 1
 713 210 l 1
 723 210 l 1
 860 579 958 991 1039 1408 c 1
 1167 1408 l 1
 1075 935 937 466 754 0 c 1
 630 0 l 1
 584 736 l 1
 574 736 l 1
 242 0 l 1
 118 0 l 1
 118 480 161 934 253 1408 c 1
 381 1408 l 1
 300 991 239 579 231 210 c 1
 241 210 l 1
 548 896 l 1
EndSplineSet
Layer: 2
Substitution2: "'ss10' Style Set 10 lookup 9 subtable" W.straight
EndChar
StartChar: X
Encoding: 88 88 51
GlifName: X_
Width: 1024
VWidth: 0
Flags: W
HStem: 0 21G<-51 111.868 767.895 923> 1388 20G<255 408.473 1003.72 1165>
LayerCount: 3
Back
Fore
SplineSet
591 824 m 1
 601 824 l 1
 1018 1408 l 1
 1165 1408 l 1
 660 721 l 1
 658 711 l 1
 923 0 l 1
 775 0 l 1
 559 608 l 1
 549 608 l 1
 97 0 l 1
 -51 0 l 1
 490 711 l 1
 492 721 l 1
 255 1408 l 1
 402 1408 l 1
 591 824 l 1
EndSplineSet
Validated: 1
Layer: 2
Position2: "Single Positioning lookup 23 subtable" dx=-128 dy=0 dh=0 dv=0
Position2: "Single Positioning lookup 22 subtable" dx=0 dy=0 dh=0 dv=0
EndChar
StartChar: Y
Encoding: 89 89 52
GlifName: Y_
Width: 1024
VWidth: 0
Flags: W
HStem: 0 21G<372 503.888> 1388 20G<233.688 396.704 987.704 1185.69>
VStem: 233.688 136<1243.47 1408>
AnchorPoint: "top" 576 1408 basechar 0
LayerCount: 3
Back
Fore
SplineSet
590.036132812 741 m 5
 782.253977273 944 925.720919152 1172 1049.6875 1408 c 5
 1185.6875 1408 l 5
 1040.07920586 1132 869.74497497 857 619.73828125 616 c 5
 500 0 l 5
 372 0 l 5
 491.73828125 616 l 5
 377.74497497 857 300.079205856 1132 233.6875 1408 c 5
 369.6875 1408 l 5
 423.720919152 1172 486.861094342 943 570.036132812 741 c 5
 590.036132812 741 l 5
EndSplineSet
Layer: 2
EndChar
StartChar: bracketleft
Encoding: 91 91 87
GlifName: bracketleft
Width: 1024
VWidth: 0
Flags: W
HStem: -128 120<370 731> 1416 120<647 1031>
LayerCount: 2
Back
Fore
SplineSet
543 1536 m 5
 1055 1536 l 5
 1031 1416 l 5
 647 1416 l 5
 370 -8 l 5
 754 -8 l 5
 731 -128 l 5
 219 -128 l 5
 543 1536 l 5
EndSplineSet
Validated: 1
EndChar
StartChar: backslash
Encoding: 92 92 26
GlifName: backslash
Width: 1024
VWidth: 0
Flags: W
VStem: 279 589
LayerCount: 3
Back
Fore
SplineSet
744 -155 m 5
 279 1510 l 5
 402 1563 l 5
 868 -102 l 5
 744 -155 l 5
EndSplineSet
Validated: 1
Layer: 2
EndChar
StartChar: bracketright
Encoding: 93 93 88
GlifName: bracketright
Width: 1024
VWidth: 0
Flags: W
HStem: -128 120<114 498> 1416 120<415 775>
LayerCount: 2
Back
Fore
SplineSet
927 1536 m 5
 603 -128 l 5
 91 -128 l 5
 114 -8 l 5
 498 -8 l 5
 775 1416 l 5
 391 1416 l 5
 415 1536 l 5
 927 1536 l 5
EndSplineSet
Validated: 1
EndChar
StartChar: asciicircum
Encoding: 94 94 89
GlifName: asciicircum
Width: 1024
VWidth: 0
Flags: W
HStem: 1299 109<620.917 741.295>
VStem: 850 135<896 1103.32>
LayerCount: 3
Back
Fore
SplineSet
235 896 m 5
 319 1076 435 1249 630 1408 c 5
 790 1408 l 5
 923 1249 971 1076 985 896 c 5
 850 896 l 5
 834 1055 791 1190 714 1299 c 5
 664 1299 l 5
 545 1190 448 1055 370 896 c 5
 235 896 l 5
EndSplineSet
Validated: 1
Layer: 2
EndChar
StartChar: underscore
Encoding: 95 95 90
GlifName: underscore
Width: 1024
VWidth: 0
Flags: W
HStem: -120 120<12 885>
LayerCount: 3
Back
Fore
SplineSet
12 0 m 5
 908 0 l 5
 885 -120 l 5
 -11 -120 l 5
 12 0 l 5
EndSplineSet
Validated: 1
Layer: 2
EndChar
StartChar: grave
Encoding: 96 96 27
GlifName: grave
Width: 1024
VWidth: 0
Flags: W
HStem: 1024 384<584 631>
VStem: 493 229
LayerCount: 3
Back
Fore
SplineSet
722 1024 m 1
 584 1024 l 1
 493 1408 l 1
 631 1408 l 1
 722 1024 l 1
EndSplineSet
Validated: 1
Layer: 2
EndChar
StartChar: b
Encoding: 98 98 0
GlifName: b
Width: 1024
VWidth: 0
Flags: W
HStem: -16 120<369.218 590.512> 0 21G<116 247.84> 920 120<540.749 734.397> 1388 20G<386.108 518>
VStem: 786 133<456.333 864.113>
LayerCount: 3
Back
Fore
SplineSet
674 1040 m 0x78
 822 1040 919 929 919 747 c 0
 919 675 905 601 888 512 c 0
 866 400 848 311 803 221 c 0
 727 71 600 -16 469 -16 c 0xb8
 386 -16 319 33 278 125 c 1
 268 125 l 1
 244 0 l 1
 116 0 l 1
 390 1408 l 1
 518 1408 l 1
 419 899 l 1
 429 899 l 1
 506 991 591 1040 674 1040 c 0x78
631 920 m 0
 535 920 460 847 419 768 c 0
 379 692 362 604 344 512 c 0
 330 440 317 370 317 307 c 0
 317 199 361 104 472 104 c 0
 568 104 643 177 684 256 c 0
 724 332 742 420 760 512 c 0
 774 584 786 654 786 717 c 0
 786 824 744 920 631 920 c 0
EndSplineSet
Layer: 2
EndChar
StartChar: f
Encoding: 102 102 6
GlifName: f
Width: 1024
VWidth: 0
Flags: W
HStem: 0 21G<244 375.892> 776 120<162 395 546 907> 1304 120<651.668 1009.14>
LayerCount: 2
Back
Fore
SplineSet
372 0 m 5
 244 0 l 5
 395 776 l 5
 139 776 l 5
 162 896 l 5
 418 896 l 5
 463 1129 l 6
 473 1181 488 1259 554 1329 c 4
 609 1388 698 1424 797 1424 c 4
 877 1424 969 1415 1030 1408 c 5
 1006 1288 l 5
 945 1295 850 1304 773 1304 c 4
 717 1304 674 1289 645 1259 c 4
 610 1222 600 1173 591 1129 c 6
 546 896 l 5
 930 896 l 5
 907 776 l 5
 523 776 l 5
 372 0 l 5
EndSplineSet
Validated: 1
EndChar
StartChar: g
Encoding: 103 103 7
GlifName: g
Width: 1024
VWidth: 0
Flags: MW
HStem: -272 120<131.398 512.192> 112 120<357.076 554.667> 920 120<473.067 706.758>
VStem: 176.169 130.601<282.369 671.785>
LayerCount: 3
Back
Fore
SplineSet
757.157034708 725.346203235 m 4
 757.157034708 836.503151601 710.642110905 920 598.830078125 920 c 4
 492.707287969 920 423.356357679 845.516360595 384.735511865 770.000010533 c 4
 343.78812469 689.93451329 306.770117928 544.214451799 306.770117928 426.658403295 c 4
 306.770117928 315.49953023 353.281622809 232 465.096679688 232 c 4
 584.131530941 232 658.573257591 326.211594741 696.460342628 419.9999884 c 4
 727.083480463 495.806688851 757.157034708 632.595060394 757.157034708 725.346203235 c 4
421.770507812 112 m 4
 256.629315431 112 176.169124259 232.130606974 176.169124259 398.267138575 c 4
 176.169124259 552.734137741 225.603989224 730.91523798 281.216579757 830.999364493 c 4
 340.292469853 937.316275853 451.641322786 1040 602.155273438 1040 c 4
 689.506835938 1040 754.2265625 984.469726562 792.762695312 899.076171875 c 5
 802.748046875 899 l 5
 827.045898438 1024 l 5
 955.045898438 1024 l 5
 788 160 l 6
 776.1973098 99.9612119679 754.959985928 -10.9682369132 674 -113 c 4
 601 -205 492 -272 344 -272 c 4
 254 -272 173 -265 111 -257 c 5
 134 -137 l 5
 196 -144 279 -152 368 -152 c 4
 464 -152 526.881640078 -112.90350956 575 -54 c 4
 633 17 650.407040984 113.121339464 660 160 c 6
 677.177734375 253 l 5
 667.163085938 252.923828125 l 5
 595.4296875 167.530273438 509.12109375 112 421.770507812 112 c 4
EndSplineSet
Validated: 1
Layer: 2
Substitution2: "'ss11' Style Set 11 lookup 10 subtable" g.long
EndChar
StartChar: h
Encoding: 104 104 8
GlifName: h
Width: 1024
VWidth: 0
Flags: W
HStem: 0 21G<116 247.896 628 759.896> 920 120<535.045 729.48> 1388 20G<386.108 518>
VStem: 772 130<554.344 876.766>
LayerCount: 2
Back
Fore
SplineSet
772 776 m 0
 772 867 710 920 615 920 c 0
 551 920 495 895 456 858 c 0
 401 806 389 744 372 657 c 2
 244 0 l 1
 116 0 l 1
 390 1408 l 1
 518 1408 l 1
 421 912 l 1
 431 912 l 1
 495 989 582 1040 658 1040 c 0
 807 1040 902 944 902 801 c 0
 902 753 893 705 884 657 c 2
 756 0 l 1
 628 0 l 1
 756 657 l 2
 765 703 772 742 772 776 c 0
EndSplineSet
Validated: 1
EndChar
StartChar: i
Encoding: 105 105 9
GlifName: i
Width: 1024
VWidth: 0
Flags: MW
HStem: 904 120<379 612> 1200 224<647.703 798.297>
AnchorPoint: "bottom" 500 0 basechar 0
LayerCount: 3
Back
SplineSet
745 1424 m 4xf0
 811 1424 848 1378 835 1312 c 4
 822 1246 767 1200 701 1200 c 4
 635 1200 598 1246 611 1312 c 4
 624 1378 679 1424 745 1424 c 4xf0
436 0 m 5xe8
 612 904 l 5
 356 904 l 5
 379 1024 l 5
 763 1024 l 5
 564 0 l 5
 436 0 l 5xe8
EndSplineSet
Fore
SplineSet
608.416863464 1286.65177065 m 4
 608.416863464 1368.59348267 673.897280912 1424 745 1424 c 4
 802.172031262 1424 837.583136536 1389.48266912 837.583136536 1337.34822935 c 4
 837.583136536 1255.40651733 772.102719088 1200 701 1200 c 4
 643.827968738 1200 608.416863464 1234.51733088 608.416863464 1286.65177065 c 4
436 0 m 5
 612 904 l 5
 356 904 l 5
 379 1024 l 5
 763 1024 l 5
 564 0 l 5
 436 0 l 5
EndSplineSet
Layer: 2
Substitution2: "'ss07' Style Set 7 lookup 6 subtable" i.flyingdot
EndChar
StartChar: j
Encoding: 106 106 10
GlifName: j
Width: 1024
VWidth: 0
Flags: W
HStem: -272 120<85.6184 416.404> 904 120<443 676> 1200 224<712.046 862.478>
VStem: 673 229<1238.36 1385.64>
LayerCount: 2
Back
Fore
SplineSet
89 -137 m 1
 142 -145 211 -152 279 -152 c 0
 346 -152 401 -128 440 -90 c 0
 493 -38 505 26 522 114 c 2
 676 904 l 1
 420 904 l 1
 443 1024 l 1
 827 1024 l 1
 648 104 l 2
 630 13 612 -82 528 -164 c 0
 464 -227 371 -272 265 -272 c 0
 190 -272 124 -266 66 -257 c 1
 89 -137 l 1
673 1287 m 0
 673 1369 738 1424 809 1424 c 0
 866 1424 902 1389 902 1337 c 0
 902 1255 836 1200 765 1200 c 0
 708 1200 673 1235 673 1287 c 0
EndSplineSet
Validated: 1
Substitution2: "'ss11' Style Set 11 lookup 10 subtable" j.long
Substitution2: "'ss07' Style Set 7 lookup 6 subtable" j.flyingdot
EndChar
StartChar: k
Encoding: 107 107 11
GlifName: k
Width: 1024
VWidth: 0
Flags: W
HStem: 0 21G<116 247.908 697.857 862> 1004 20G<829.682 1014> 1388 20G<386.108 518>
LayerCount: 3
Back
Fore
SplineSet
244 0 m 1
 116 0 l 1
 390 1408 l 1
 518 1408 l 1
 361 602 l 1
 853 1024 l 1
 1014 1024 l 1
 577 645 l 1
 862 0 l 1
 706 0 l 1
 478 560 l 1
 329 435 l 1
 244 0 l 1
EndSplineSet
Layer: 2
EndChar
StartChar: l
Encoding: 108 108 12
GlifName: l
Width: 1024
VWidth: 0
Flags: W
HStem: -16 120<560.446 754> 1388 20G<642.103 774>
VStem: 414 130<121.973 344.404>
LayerCount: 3
Back
Fore
SplineSet
544 203 m 0
 544 141 578 104 648 104 c 0
 690 104 740 106 777 109 c 1
 754 -11 l 1
 716 -13 670 -16 615 -16 c 0
 481 -16 414 71 414 181 c 0
 414 217 421 251 426 279 c 2
 646 1408 l 1
 774 1408 l 1
 554 279 l 2
 549 253 544 227 544 203 c 0
EndSplineSet
Validated: 1
Layer: 2
Position2: "Single Positioning lookup 24 subtable" dx=-128 dy=0 dh=0 dv=0
Position2: "Single Positioning lookup 15 subtable" dx=-64 dy=0 dh=0 dv=0
Position2: "Single Positioning lookup 13 subtable" dx=-128 dy=0 dh=0 dv=0
Position2: "Single Positioning lookup 10 subtable" dx=-128 dy=0 dh=0 dv=0
Position2: "Single Positioning lookup 9 subtable" dx=128 dy=0 dh=0 dv=0
Position2: "Single Positioning lookup 8 subtable" dx=64 dy=0 dh=0 dv=0
Position2: "Single Positioning lookup 3 subtable" dx=64 dy=0 dh=0 dv=0
Position2: "Single Positioning lookup 1 subtable" dx=64 dy=0 dh=0 dv=0
Substitution2: "'ss09' Style Set 9 lookup 8 subtable" l.base
Substitution2: "'ss08' Style Set 8 lookup 7 subtable" l.zstyle
EndChar
StartChar: m
Encoding: 109 109 13
GlifName: m
Width: 1024
VWidth: 0
Flags: W
HStem: 0 21G<-12 119.89 372 503.89 756 887.89> 920 120<361.743 513.239 720.67 895.855> 1004 20G<183.113 315>
VStem: -12 128<0 69.093> 911 131<604.531 904.935>
LayerCount: 3
Back
Fore
SplineSet
527 825 m 4xd8
 527 886 486 920 423 920 c 4xd8
 380 920 343 903 317 879 c 4
 280 845 271 797 258 730 c 6
 116 0 l 5
 -12 0 l 5
 187 1024 l 5
 315 1024 l 5xb8
 300 949 l 5
 310 949 l 5
 361 1008 416 1040 476 1040 c 4
 560 1040 615 992 638 929 c 5
 707 1001 778 1040 860 1040 c 4
 973 1040 1042 961 1042 852 c 4
 1042 814 1035 774 1026 730 c 6
 884 0 l 5
 756 0 l 5
 898 730 l 6
 905 767 911 799 911 825 c 4
 911 885 871 920 807 920 c 4
 764 920 727 903 701 879 c 4
 664 845 655 797 642 730 c 6
 500 0 l 5
 372 0 l 5
 514 730 l 6
 521 767 527 799 527 825 c 4xd8
EndSplineSet
Layer: 2
EndChar
StartChar: n
Encoding: 110 110 14
GlifName: n
Width: 1024
VWidth: 0
Flags: W
HStem: 0 21G<116 247.896 628 759.896> 920 120<535.045 729.48> 1004 20G<311.113 443>
VStem: 772 130<554.344 876.766>
LayerCount: 3
Back
Fore
SplineSet
772 776 m 4xd0
 772 867 710 920 615 920 c 4xd0
 551 920 495 895 456 858 c 4
 401 806 389 744 372 657 c 6
 244 0 l 5
 116 0 l 5
 315 1024 l 5
 443 1024 l 5xb0
 421 912 l 5
 431 912 l 5
 495 989 582 1040 658 1040 c 4
 807 1040 902 944 902 801 c 4
 902 753 893 705 884 657 c 6
 756 0 l 5
 628 0 l 5
 756 657 l 6
 765 703 772 742 772 776 c 4xd0
EndSplineSet
Validated: 1
Layer: 2
EndChar
StartChar: r
Encoding: 114 114 18
GlifName: r
Width: 1024
VWidth: 0
Flags: W
HStem: 0 21G<116 247.874> 920 120<598.349 934.808> 1004 20G<311.113 443>
LayerCount: 2
Back
Fore
SplineSet
755 920 m 4xc0
 663 920 586 894 526 847 c 4
 388 740 358 589 336 475 c 6
 244 0 l 5
 116 0 l 5
 315 1024 l 5
 443 1024 l 5xa0
 412 865 l 5
 422 865 l 5
 517 967 623 1040 778 1040 c 4
 844 1040 900 1034 956 1027 c 5
 932 907 l 5
 876 914 820 920 755 920 c 4xc0
EndSplineSet
Validated: 1
EndChar
StartChar: s
Encoding: 115 115 19
GlifName: s
Width: 1024
VWidth: 0
Flags: W
HStem: -16 120<138.085 613.139> 920 120<449.807 923.736>
VStem: 236.623 130.131<638.561 843.187> 720.168 129.968<204.582 425.776>
LayerCount: 2
Back
Fore
SplineSet
637.155273438 1040 m 3
 755.155273438 1040 852.048828125 1029.16113281 944.073242188 1019 c 1
 920.748046875 899 l 1
 827.591796875 908.483398438 722.830078125 920 613.830078125 920 c 3
 493.350498806 920 366.754157153 864.73340507 366.754157153 730.146543789 c 0
 366.754157153 677.614227374 395.952516151 639.480896135 434.515625 620 c 0
 518.3515625 578 634.016601562 602 726.880859375 555 c 0
 796.902898984 519.496983407 850.135831614 445.408328428 850.135831614 347.230400778 c 0
 850.135831614 126.255181132 639.344586691 -16 432.889648438 -16 c 3
 316.889648438 -16 217.416992188 -3 117.166015625 6 c 1
 140.297851562 125 l 1
 238.547851562 116 346.215820312 104 456.215820312 104 c 3
 589.748837964 104 720.167758999 186.159540641 720.167758999 327.010713188 c 0
 720.167758999 384.40418667 690.885285889 426.142720215 649.887695312 447 c 0
 568.051757812 489 450.581054688 466 357.522460938 512 c 0
 289.931438645 545.191700784 236.623079065 614.599345059 236.623079065 708.510467982 c 0
 236.623079065 926.809355261 443.606476308 1040 637.155273438 1040 c 3
EndSplineSet
EndChar
StartChar: t
Encoding: 116 116 20
GlifName: t
Width: 1024
VWidth: 0
Flags: W
HStem: -16 120<468.863 755.844> 898 126<187 419 571 931>
VStem: 296 131<146.98 469.141>
LayerCount: 2
Back
Fore
SplineSet
427 246 m 0
 427 149 491 104 594 104 c 0
 658 104 726 112 779 119 c 1
 756 -1 l 1
 697 -9 632 -16 561 -16 c 0
 402 -16 296 70 296 220 c 0
 296 267 305 315 314 360 c 2
 419 898 l 1
 163 898 l 1
 187 1024 l 1
 443 1024 l 1
 493 1280 l 1
 621 1280 l 1
 571 1024 l 1
 955 1024 l 1
 931 898 l 1
 547 898 l 1
 444 370 l 2
 435 323 427 282 427 246 c 0
EndSplineSet
Validated: 1
EndChar
StartChar: u
Encoding: 117 117 21
GlifName: u
Width: 1024
VWidth: 0
Flags: W
HStem: -16 120<340.255 542.171> 0 21G<628 759.887> 1004 20G<311.104 443 823.104 955>
VStem: 169 130<146.03 490.188>
LayerCount: 3
Back
Fore
SplineSet
299 248 m 4xb0
 299 157 361 104 456 104 c 4xb0
 520 104 576 129 615 166 c 4
 670 218 682 280 699 367 c 6
 827 1024 l 5
 955 1024 l 5
 756 0 l 5
 628 0 l 5x70
 650 112 l 5
 640 112 l 5
 576 35 489 -16 413 -16 c 4
 264 -16 169 80 169 223 c 4
 169 271 178 319 187 367 c 6
 315 1024 l 5
 443 1024 l 5
 315 367 l 6
 306 321 299 282 299 248 c 4xb0
EndSplineSet
Layer: 2
EndChar
StartChar: w
Encoding: 119 119 22
GlifName: w
Width: 1024
VWidth: 0
Flags: W
HStem: 0 21G<112.5 281.302 598.467 836.5> 1004 20G<145.5 296 944 1102>
VStem: 101 120<142.859 764.289> 974 128<846.886 1024>
LayerCount: 3
Back
Fore
SplineSet
523 767 m 5
 647 767 l 5
 689 140 l 5
 699 140 l 5
 823 413 914 717 974 1024 c 5
 1102 1024 l 5
 1035 680 919 339 754 0 c 5
 600 0 l 5
 555 587 l 5
 545 587 l 5
 272 0 l 5
 118 0 l 5
 107 113 101 226 101 340 c 4
 101 567 123 795 168 1024 c 5
 296 1024 l 5
 249 780 221 538 221 312 c 4
 221 254 223 196 227 140 c 5
 237 140 l 5
 523 767 l 5
EndSplineSet
Layer: 2
Substitution2: "'ss10' Style Set 10 lookup 9 subtable" w.straight
EndChar
StartChar: x
Encoding: 120 120 23
GlifName: x
Width: 1024
VWidth: 0
Flags: W
HStem: 0 21G<19 201.777 677.991 853> 1004 20G<240 414.842 847.368 1030>
LayerCount: 2
Back
Fore
SplineSet
556 644 m 1
 566 644 l 1
 863 1024 l 1
 1030 1024 l 1
 617 551 l 1
 615 541 l 1
 853 0 l 1
 685 0 l 1
 528 448 l 1
 518 448 l 1
 187 0 l 1
 19 0 l 1
 467 541 l 1
 469 551 l 1
 240 1024 l 1
 407 1024 l 1
 556 644 l 1
EndSplineSet
Validated: 1
EndChar
StartChar: y
Encoding: 121 121 24
GlifName: y
Width: 1024
VWidth: 0
Flags: W
HStem: -400 120<62 260.607> 1004 20G<263 394 817 1007>
VStem: 263 131<601.167 1024>
LayerCount: 2
Back
Fore
SplineSet
490 115 m 5
 636 414 758 717 876 1024 c 5
 1007 1024 l 5
 865 655 740 351 523 -73 c 4
 470 -177 416 -271 345 -321 c 4
 281 -367 193 -400 38 -400 c 5
 62 -280 l 5
 144 -280 227 -266 267 -239 c 4
 321 -203 353 -140 428 0 c 5
 377 0 l 5
 283 326 264 676 263 1024 c 5
 394 1024 l 5
 394 709 409 400 480 115 c 5
 490 115 l 5
EndSplineSet
Validated: 1
Substitution2: "'ss11' Style Set 11 lookup 10 subtable" y.long
EndChar
StartChar: z
Encoding: 122 122 25
GlifName: z
Width: 1024
VWidth: 0
Flags: W
HStem: 0 120<284 756> 904 120<335 767>
LayerCount: 3
Back
Fore
SplineSet
312 904 m 1
 335 1024 l 1
 935 1024 l 1
 918 934 l 1
 286 130 l 1
 284 120 l 1
 779 120 l 1
 756 0 l 1
 116 0 l 1
 134 92 l 1
 765 894 l 1
 767 904 l 1
 312 904 l 1
EndSplineSet
Layer: 2
EndChar
StartChar: bar
Encoding: 124 124 92
GlifName: bar
Width: 1024
VWidth: 0
Flags: W
VStem: 347 451
LayerCount: 3
Back
Fore
SplineSet
798 1536 m 5
 475 -128 l 5
 347 -128 l 5
 671 1536 l 5
 798 1536 l 5
EndSplineSet
Layer: 2
EndChar
StartChar: braceright
Encoding: 125 125 93
GlifName: braceright
Width: 1024
VWidth: 0
Flags: W
HStem: -144 120<111 286.184> 643 120<740.356 881> 1430 120<417 554.677>
VStem: 549 130<817.941 1113.14> 619 130<1079.86 1372.78>
CounterMasks: 1 e0
LayerCount: 2
Back
Fore
SplineSet
679 899 m 0xf0
 679 802 799 763 904 763 c 1
 881 643 l 1
 783 643 667 609 618 536 c 0
 598 507 592 474 581 416 c 2
 539 203 l 2
 526 135 517 88 482 34 c 0
 404 -84 240 -144 88 -144 c 1
 111 -24 l 1
 209 -24 325 10 374 83 c 0
 394 112 400 145 411 203 c 2
 453 416 l 2
 466 484 476 531 511 585 c 0
 545 637 603 674 667 698 c 1
 669 708 l 1
 599 740 549 786 549 878 c 0xf0
 549 912 556 947 564 990 c 2
 606 1203 l 2
 614 1243 619 1271 619 1294 c 0
 619 1391 499 1430 394 1430 c 1
 417 1550 l 1
 586 1550 749 1476 749 1315 c 0xe8
 749 1281 742 1246 734 1203 c 2
 692 990 l 2
 684 950 679 922 679 899 c 0xf0
EndSplineSet
Validated: 1
EndChar
StartChar: tilde
Encoding: 126 126 94
GlifName: tilde
Width: 1024
VWidth: 0
Flags: W
HStem: 508 120<682.654 857.419> 780 120<294.581 469.346>
VStem: 91 128<512 672.383> 933 128<735.617 896>
LayerCount: 3
Back
Fore
SplineSet
219 512 m 5
 91 512 l 5
 134 731 203 900 413 900 c 4
 640 900 621 628 762 628 c 4
 875 628 900 724 933 896 c 5
 1061 896 l 5
 1018 677 949 508 739 508 c 4
 512 508 531 780 390 780 c 4
 277 780 252 684 219 512 c 5
EndSplineSet
Layer: 2
EndChar
StartChar: exclamdown
Encoding: 161 161 100
GlifName: exclamdown
Width: 1024
VWidth: 0
Flags: W
HStem: 880 288<552.559 717.802>
VStem: 488 295<946.234 1101.77>
LayerCount: 2
Back
Fore
SplineSet
488 992 m 4
 488 1077 553 1168 663 1168 c 4
 737 1168 783 1123 783 1056 c 4
 783 971 717 880 607 880 c 4
 533 880 488 925 488 992 c 4
624 640 m 5
 460 -256 l 5
 312 -256 l 5
 496 640 l 5
 624 640 l 5
EndSplineSet
Validated: 1
EndChar
StartChar: cent
Encoding: 162 162 538
GlifName: cent
Width: 1024
VWidth: 0
Flags: W
HStem: -16 120<497 753.37>
VStem: 154 130<171.051 556.895>
LayerCount: 2
Back
Fore
SplineSet
284 308 m 4
 284 180 348 104 476 104 c 4
 564 104 669 113 781 130 c 5
 758 9 l 5
 659 -5 575 -13 497 -16 c 5
 450 -256 l 5
 322 -256 l 5
 371 -7 l 5
 225 23 154 132 154 287 c 4
 154 355 168 430 184 512 c 4
 207 630 229 733 284 824 c 4
 343 923 442 1008 572 1031 c 5
 621 1280 l 5
 749 1280 l 5
 702 1040 l 5
 783 1038 849 1032 935 1022 c 5
 912 902 l 5
 802 916 715 920 631 920 c 4
 524 920 449 865 395 781 c 4
 349 709 331 611 312 512 c 4
 298 441 284 369 284 308 c 4
EndSplineSet
Validated: 1
EndChar
StartChar: sterling
Encoding: 163 163 433
GlifName: sterling
Width: 1024
VWidth: 0
Flags: W
HStem: 0 120<11 139 267 756> 648 120<137 242 393 754> 1304 120<594.473 980.081>
LayerCount: 3
Back
Fore
SplineSet
139 120 m 5
 242 648 l 5
 114 648 l 5
 137 768 l 5
 265 768 l 5
 290 896 l 6
 314 1017 336 1122 392 1215 c 4
 461 1330 586 1424 755 1424 c 4
 832 1424 910 1418 1000 1409 c 5
 977 1289 l 5
 886 1298 802 1304 731 1304 c 4
 630 1304 556 1256 504 1173 c 4
 458 1100 438 998 418 896 c 6
 393 768 l 5
 777 768 l 5
 754 648 l 5
 370 648 l 5
 267 120 l 5
 779 120 l 5
 756 0 l 5
 -12 0 l 5
 11 120 l 5
 139 120 l 5
EndSplineSet
Validated: 1
Layer: 2
EndChar
StartChar: currency
Encoding: 164 164 529
GlifName: currency
Width: 1024
VWidth: 0
Flags: W
HStem: 244 120<386.346 642.591> 788 120<453.569 709.392>
VStem: 205 130<413.854 666.849> 761 130<485.312 738.146>
LayerCount: 2
Back
Fore
SplineSet
507 364 m 0
 676 364 761 505 761 628 c 0
 761 729 695 788 589 788 c 0
 421 788 335 647 335 524 c 0
 335 423 401 364 507 364 c 0
205 505 m 0
 205 609 247 701 306 768 c 1
 189 912 l 1
 299 994 l 1
 411 854 l 1
 471 888 539 908 612 908 c 0
 685 908 747 888 793 854 c 1
 959 994 l 1
 1037 912 l 1
 864 768 l 1
 882 732 891 692 891 647 c 0
 891 544 849 451 790 384 c 1
 907 240 l 1
 797 158 l 1
 685 298 l 1
 625 264 556 244 483 244 c 0
 410 244 349 264 303 298 c 1
 137 158 l 1
 59 240 l 1
 232 384 l 1
 214 420 205 460 205 505 c 0
EndSplineSet
Validated: 1
EndChar
StartChar: yen
Encoding: 165 165 430
GlifName: yen
Width: 1024
VWidth: 0
Flags: W
HStem: 0 21G<372 503.906> 384 120<214 447 598 831> 648 120<265 405 765 882> 1388 20G<247 379 990 1173>
VStem: 247 125<1110.25 1408>
LayerCount: 2
Back
Fore
SplineSet
247 1408 m 5
 372 1408 l 5
 386 1145 437 921 565 740 c 5
 595 740 l 5
 793 921 932 1145 1048 1408 c 5
 1173 1408 l 5
 1080 1185 955 970 765 768 c 5
 905 768 l 5
 882 648 l 5
 643 648 l 5
 622 630 l 5
 598 504 l 5
 854 504 l 5
 831 384 l 5
 575 384 l 5
 500 0 l 5
 372 0 l 5
 447 384 l 5
 191 384 l 5
 214 504 l 5
 470 504 l 5
 494 630 l 5
 481 648 l 5
 242 648 l 5
 265 768 l 5
 405 768 l 5
 293 970 254 1185 247 1408 c 5
EndSplineSet
Validated: 1
EndChar
StartChar: brokenbar
Encoding: 166 166 314
GlifName: brokenbar
Width: 1024
VWidth: 0
Flags: W
HStem: 1024 21G<571 702.867>
VStem: 347 451
LayerCount: 3
Back
Fore
SplineSet
575 384 m 5
 475 -128 l 5
 347 -128 l 5
 447 384 l 5
 575 384 l 5
798 1536 m 5
 699 1024 l 5
 571 1024 l 5
 671 1536 l 5
 798 1536 l 5
EndSplineSet
Validated: 1
Layer: 2
EndChar
StartChar: section
Encoding: 167 167 432
GlifName: section
Width: 1024
VWidth: 0
Flags: W
HStem: -272 120<106.907 543.424> 1302 120<553.492 966.688>
VStem: 179 130<425.558 656.178> 301 129<955.173 1182.66> 665 129<-35.9202 196.314> 786 130<492.776 725.393>
LayerCount: 3
Back
Fore
SplineSet
516 368 m 4xe4
 702 368 786 510 786 626 c 4
 786 735 699 780 577 780 c 4
 395 780 309 641 309 525 c 4
 309 411 407 368 516 368 c 4xe4
299 289 m 4
 224 333 179 410 179 506 c 4xe8
 179 646 267 773 406 843 c 5
 340 890 301 960 301 1044 c 4
 301 1208 446 1422 730 1422 c 4
 818 1422 917 1407 987 1394 c 5
 963 1271 l 5
 896 1285 790 1302 707 1302 c 4
 506 1302 430 1160 430 1058 c 4
 430 1003 455 964 487 936 c 4
 561 873 695 920 798 859 c 4
 867 818 916 743 916 643 c 4xd4
 916 501 828 375 689 306 c 5
 752 261 794 192 794 105 c 4
 794 -89 619 -272 365 -272 c 4
 265 -272 154 -251 71 -233 c 5
 95 -110 l 5
 173 -129 294 -152 388 -152 c 4
 590 -152 665 -12 665 91 c 4xc8
 665 153 636 199 594 223 c 4
 514 268 394 234 299 289 c 4
EndSplineSet
Validated: 1
Layer: 2
EndChar
StartChar: dieresis
Encoding: 168 168 315
GlifName: dieresis
Width: 1024
VWidth: 0
Flags: W
HStem: 1136 224<379.441 529.559 827.441 977.559>
VStem: 340 229<1174.36 1321.64> 788 229<1174.36 1321.64>
LayerCount: 3
Back
Fore
SplineSet
788 1223 m 0
 788 1285 836 1360 924 1360 c 0
 981 1360 1017 1325 1017 1273 c 0
 1017 1211 969 1136 881 1136 c 0
 824 1136 788 1171 788 1223 c 0
340 1223 m 0
 340 1285 388 1360 476 1360 c 0
 533 1360 569 1325 569 1273 c 0
 569 1211 521 1136 433 1136 c 0
 376 1136 340 1171 340 1223 c 0
EndSplineSet
Validated: 1
Layer: 2
EndChar
StartChar: ordfeminine
Encoding: 170 170 537
GlifName: ordfeminine
Width: 1024
VWidth: 0
Flags: W
HStem: 752 120<408.476 562.897> 1152 120<449.679 689> 1419 21G<385.802 419> 1432 120<405.689 714.239>
VStem: 260 130<888.28 1093.31> 724 130<1273.52 1418.08>
LayerCount: 2
Back
Fore
SplineSet
680 1106 m 6xcc
 689 1152 l 5
 573 1152 l 6
 541 1152 514 1150 495 1143 c 4
 439 1124 390 1058 390 977 c 4
 390 918 423 872 484 872 c 4
 615 872 657 989 680 1106 c 6xcc
632 1552 m 4xdc
 780 1552 854 1486 854 1370 c 4
 854 1341 849 1314 844 1290 c 6
 742 768 l 5
 614 768 l 5
 627 835 l 5
 617 835 l 5
 562 783 512 752 438 752 c 4
 329 752 260 840 260 954 c 4
 260 1102 361 1216 470 1254 c 4
 518 1271 561 1272 596 1272 c 6
 712 1272 l 5
 718 1301 724 1331 724 1353 c 4
 724 1410 689 1432 608 1432 c 4xdc
 532 1432 456 1424 382 1419 c 5xec
 405 1540 l 5
 480 1545 552 1552 632 1552 c 4xdc
EndSplineSet
Validated: 1
EndChar
StartChar: guillemotleft
Encoding: 171 171 313
GlifName: guillemotleft
Width: 1024
VWidth: 0
Flags: W
HStem: 1019 20G<492.166 537.765 876.166 921.765>
LayerCount: 3
Back
Fore
SplineSet
226 581 m 5
 224 571 l 5
 448 181 l 5
 331 113 l 5
 93 542 l 5
 107 610 l 5
 511 1039 l 5
 602 971 l 5
 226 581 l 5
610 581 m 5
 608 571 l 5
 832 181 l 5
 715 113 l 5
 477 542 l 5
 491 610 l 5
 895 1039 l 5
 986 971 l 5
 610 581 l 5
EndSplineSet
Layer: 2
EndChar
StartChar: logicalnot
Encoding: 172 172 317
GlifName: logicalnot
Width: 1024
VWidth: 0
Flags: W
HStem: 644 120<137 881>
LayerCount: 3
Back
Fore
SplineSet
1033 764 m 5
 959 384 l 5
 831 384 l 5
 881 644 l 5
 113 644 l 5
 137 764 l 5
 1033 764 l 5
EndSplineSet
Validated: 1
Layer: 2
EndChar
StartChar: uni00AD
Encoding: 173 173 96
GlifName: uni00A_D_
Width: 1024
VWidth: 0
Flags: W
HStem: 516 120<140 1012>
LayerCount: 3
Back
Fore
SplineSet
140 636 m 5
 1036 636 l 5
 1012 516 l 5
 116 516 l 5
 140 636 l 5
EndSplineSet
Validated: 1
Layer: 2
EndChar
StartChar: registered
Encoding: 174 174 525
GlifName: registered
Width: 1024
VWidth: 0
Flags: W
HStem: 113 82<312.683 653.567> 640 120<520 582> 904 120<548 681.442> 1213 82<492.274 834.361>
VStem: 86 90<335.874 775.32> 682 129<770.389 902.862> 970 90<632.68 1073.82>
LayerCount: 2
Back
Fore
SplineSet
970 891 m 4
 970 1080 882 1213 672 1213 c 4
 495 1213 365 1114 290 980 c 4
 220 854 176 652 176 517 c 4
 176 325 266 195 474 195 c 4
 651 195 780 294 855 428 c 4
 925 554 970 756 970 891 c 4
688 1295 m 4
 940 1295 1060 1133 1060 907 c 4
 1060 772 1016 547 934 402 c 4
 842 238 675 113 458 113 c 4
 209 113 86 271 86 501 c 4
 86 636 130 861 212 1006 c 4
 304 1170 471 1295 688 1295 c 4
603 760 m 6
 660 760 682 802 682 864 c 4
 682 891 669 904 631 904 c 6
 548 904 l 5
 520 760 l 5
 603 760 l 6
811 882 m 4
 811 784 763 709 702 671 c 5
 744 384 l 5
 609 384 l 5
 582 640 l 5
 496 640 l 5
 447 384 l 5
 319 384 l 5
 443 1024 l 5
 654 1024 l 6
 756 1024 811 971 811 882 c 4
EndSplineSet
Validated: 1
EndChar
StartChar: macron
Encoding: 175 175 318
GlifName: macron
Width: 1024
VWidth: 0
Flags: W
HStem: 1156 120<394 1011>
LayerCount: 3
Back
Fore
SplineSet
394 1276 m 1
 1034 1276 l 1
 1011 1156 l 1
 371 1156 l 1
 394 1276 l 1
EndSplineSet
Layer: 2
EndChar
StartChar: degree
Encoding: 176 176 316
GlifName: degree
Width: 1024
VWidth: 0
Flags: W
HStem: 1068 100<595.508 775.525> 1424 100<630.152 810.093>
VStem: 470 109<1183.54 1371.6> 826 109<1220.4 1408.46>
LayerCount: 3
Back
Fore
SplineSet
747 1524 m 4
 865 1524 935 1448 935 1344 c 4
 935 1186 804 1068 659 1068 c 4
 541 1068 470 1144 470 1248 c 4
 470 1406 602 1524 747 1524 c 4
678 1168 m 4
 755 1168 826 1228 826 1330 c 4
 826 1391 788 1424 728 1424 c 4
 651 1424 579 1364 579 1262 c 4
 579 1201 618 1168 678 1168 c 4
EndSplineSet
Validated: 1
Layer: 2
EndChar
StartChar: plusminus
Encoding: 177 177 291
GlifName: plusminus
Width: 1024
VWidth: 0
Flags: W
HStem: 260 120<43 916> 772 120<142 503 654 1015>
LayerCount: 3
Back
Fore
SplineSet
654 892 m 5
 1038 892 l 5
 1015 772 l 5
 631 772 l 5
 581 512 l 5
 453 512 l 5
 503 772 l 5
 119 772 l 5
 142 892 l 5
 526 892 l 5
 577 1152 l 5
 705 1152 l 5
 654 892 l 5
43 380 m 5
 939 380 l 5
 916 260 l 5
 20 260 l 5
 43 380 l 5
EndSplineSet
Layer: 2
EndChar
StartChar: uni00B2
Encoding: 178 178 508
GlifName: uni00B_2
Width: 1024
VWidth: 0
Flags: W
HStem: 768 120<421 777> 1432 120<412.788 752.534>
VStem: 771 130<1244.46 1410.54>
LayerCount: 3
Back
Fore
SplineSet
412 1525 m 5
 488 1540 571 1552 661 1552 c 4
 827 1552 901 1467 901 1363 c 4
 901 1187 737 1091 624 1039 c 4
 541 1001 461 967 423 898 c 5
 421 888 l 5
 801 888 l 5
 777 768 l 5
 259 768 l 5
 271 828 l 6
 303 991 443 1085 572 1141 c 4
 655 1177 771 1233 771 1342 c 4
 771 1381 749 1432 637 1432 c 4
 554 1432 462 1419 389 1405 c 5
 412 1525 l 5
EndSplineSet
Validated: 1
Layer: 2
EndChar
StartChar: uni00B3
Encoding: 179 179 521
GlifName: uni00B_3
Width: 1024
VWidth: 0
Flags: W
HStem: 752 120<284.981 659.669> 1092 120<480 686.996> 1415 21G<404.833 435> 1432 120<424.051 746.734>
VStem: 705 130<915.812 1070.74> 762 130<1256.67 1413.36>
LayerCount: 2
Back
Fore
SplineSet
758 1150 m 5xd4
 813 1118 835 1071 835 1020 c 4
 835 876 696 752 504 752 c 4
 415 752 337 759 265 767 c 5
 288 887 l 5
 360 880 454 872 528 872 c 4
 660 872 705 941 705 1003 c 4xd8
 705 1049 670 1078 625 1087 c 4
 600 1092 569 1092 534 1092 c 6
 456 1092 l 5
 480 1212 l 5
 558 1212 l 6
 592 1212 621 1213 647 1218 c 4
 706 1230 762 1272 762 1346 c 4
 762 1403 716 1432 634 1432 c 4xd4
 561 1432 469 1422 401 1415 c 5xe4
 424 1535 l 5
 496 1544 573 1552 658 1552 c 4
 806 1552 892 1481 892 1369 c 4
 892 1282 850 1208 759 1160 c 5
 758 1150 l 5xd4
EndSplineSet
Validated: 1
EndChar
StartChar: acute
Encoding: 180 180 310
GlifName: acute
Width: 1024
VWidth: 0
Flags: W
HStem: 1024 384
VStem: 578 379
LayerCount: 2
Back
Fore
SplineSet
578 1024 m 5
 819 1408 l 5
 957 1408 l 5
 716 1024 l 5
 578 1024 l 5
EndSplineSet
Validated: 1
EndChar
StartChar: periodcentered
Encoding: 183 183 95
GlifName: periodcentered
Width: 1024
VWidth: 0
Flags: W
HStem: 560 288<427.418 591.373>
VStem: 362 295<626.234 781.766>
LayerCount: 2
Back
Fore
SplineSet
362 672 m 4
 362 759 429 848 537 848 c 4
 611 848 657 803 657 736 c 4
 657 651 590 560 481 560 c 4
 407 560 362 605 362 672 c 4
EndSplineSet
Validated: 1
EndChar
StartChar: cedilla
Encoding: 184 184 309
GlifName: cedilla
Width: 1024
VWidth: 0
Flags: W
HStem: -400 120<87.8894 318.558> -20 20G<395.19 527>
VStem: 69 458
LayerCount: 2
Back
Fore
SplineSet
507 -105 m 6
 495 -165 482 -235 416 -305 c 4
 363 -362 283 -400 193 -400 c 4
 158 -400 114 -393 69 -383 c 5
 92 -260 l 5
 138 -271 183 -280 217 -280 c 4
 264 -280 299 -263 325 -235 c 4
 360 -198 369 -155 379 -105 c 6
 399 0 l 5
 527 0 l 5
 507 -105 l 6
EndSplineSet
Validated: 1
EndChar
StartChar: uni00B9
Encoding: 185 185 507
GlifName: uni00B_9
Width: 1024
VWidth: 0
Flags: W
VStem: 358 440
LayerCount: 3
Back
Fore
SplineSet
691 1536 m 5
 798 1536 l 5
 649 768 l 5
 521 768 l 5
 640 1378 l 5
 630 1378 l 5
 358 1246 l 5
 384 1380 l 5
 691 1536 l 5
EndSplineSet
Layer: 2
EndChar
StartChar: ordmasculine
Encoding: 186 186 536
GlifName: ordmasculine
Width: 1024
VWidth: 0
Flags: W
HStem: 752 120<435.03 622.097> 1432 120<527.519 714.709>
VStem: 280 129<894.674 1236.13> 741 129<1067.87 1409.33>
LayerCount: 2
Back
Fore
SplineSet
653 1552 m 4
 831 1552 870 1429 870 1313 c 4
 870 1250 858 1189 851 1152 c 4
 831 1048 772 752 497 752 c 4
 319 752 280 875 280 991 c 4
 280 1054 292 1115 299 1152 c 4
 319 1256 378 1552 653 1552 c 4
427 1152 m 4
 418 1105 409 1053 409 1008 c 4
 409 932 433 872 520 872 c 4
 659 872 698 1025 723 1152 c 4
 732 1199 741 1251 741 1296 c 4
 741 1372 716 1432 629 1432 c 4
 490 1432 452 1279 427 1152 c 4
EndSplineSet
Validated: 1
EndChar
StartChar: guillemotright
Encoding: 187 187 312
GlifName: guillemotright
Width: 1024
VWidth: 0
Flags: W
HStem: 1019 20G<346.588 392.096 730.588 776.096>
LayerCount: 3
Back
Fore
SplineSet
872 581 m 5
 648 971 l 5
 765 1039 l 5
 1003 610 l 5
 989 542 l 5
 585 113 l 5
 494 181 l 5
 870 571 l 5
 872 581 l 5
488 581 m 5
 264 971 l 5
 381 1039 l 5
 619 610 l 5
 605 542 l 5
 201 113 l 5
 110 181 l 5
 486 571 l 5
 488 581 l 5
EndSplineSet
Validated: 1
Layer: 2
EndChar
StartChar: onequarter
Encoding: 188 188 499
GlifName: onequarter
Width: 1024
VWidth: 0
Flags: W
HStem: 128 120<551 781>
LayerCount: 3
Back
Fore
SplineSet
563 1536 m 5
 671 1536 l 5
 521 768 l 5
 393 768 l 5
 512 1378 l 5
 502 1378 l 5
 230 1246 l 5
 256 1380 l 5
 563 1536 l 5
859 -128 m 5
 731 -128 l 5
 781 128 l 5
 397 128 l 5
 411 200 l 5
 574 640 l 5
 695 640 l 5
 551 248 l 5
 804 248 l 5
 880 640 l 5
 1008 640 l 5
 859 -128 l 5
EndSplineSet
Layer: 2
EndChar
StartChar: onehalf
Encoding: 189 189 498
GlifName: onehalf
Width: 1024
VWidth: 0
Flags: W
HStem: -128 120<503 860> 536 120<495.788 834.725>
VStem: 853 130<348.463 515.258>
LayerCount: 2
Back
Fore
SplineSet
495 629 m 5
 571 644 653 656 743 656 c 4
 909 656 983 571 983 467 c 4
 983 291 820 195 707 143 c 4
 624 105 543 71 505 2 c 5
 503 -8 l 5
 883 -8 l 5
 860 -128 l 5
 342 -128 l 5
 354 -68 l 6
 386 95 526 189 655 245 c 4
 738 281 853 337 853 446 c 4
 853 485 832 536 720 536 c 4
 637 536 545 523 472 509 c 5
 495 629 l 5
563 1536 m 1
 671 1536 l 1
 521 768 l 1
 393 768 l 1
 512 1378 l 1
 502 1378 l 1
 230 1246 l 1
 256 1380 l 1
 563 1536 l 1
EndSplineSet
Validated: 1
EndChar
StartChar: threequarters
Encoding: 190 190 506
GlifName: threequarters
Width: 1024
VWidth: 0
Flags: W
HStem: 128 120<551 781> 752 120<154.981 529.669> 1092 120<350 556.996> 1415 21G<274.833 305> 1432 120<294.051 616.734>
VStem: 575 130<915.812 1070.74> 632 130<1256.67 1413.36>
LayerCount: 2
Back
Fore
SplineSet
628 1150 m 5xea
 683 1118 705 1071 705 1020 c 4
 705 876 566 752 374 752 c 4
 285 752 207 759 135 767 c 5
 158 887 l 5
 230 880 324 872 398 872 c 4
 530 872 575 941 575 1003 c 4xec
 575 1049 540 1078 495 1087 c 4
 470 1092 439 1092 404 1092 c 6
 326 1092 l 5
 350 1212 l 5
 428 1212 l 6
 462 1212 491 1213 517 1218 c 4
 576 1230 632 1272 632 1346 c 4
 632 1403 586 1432 504 1432 c 4xea
 431 1432 339 1422 271 1415 c 5xf2
 294 1535 l 5
 366 1544 443 1552 528 1552 c 4
 676 1552 762 1481 762 1369 c 4
 762 1282 720 1208 629 1160 c 5
 628 1150 l 5xea
859 -128 m 1
 731 -128 l 1
 781 128 l 1
 397 128 l 1
 411 200 l 1
 574 640 l 1
 695 640 l 1
 551 248 l 1
 804 248 l 1
 880 640 l 1
 1008 640 l 1
 859 -128 l 1
EndSplineSet
Validated: 1
EndChar
StartChar: questiondown
Encoding: 191 191 101
GlifName: questiondown
Width: 1024
VWidth: 0
Flags: W
HStem: -272 120<287.047 684.895> 880 288<549.31 721.032>
VStem: 107 130<-103.19 161.399> 488 295<942.504 1105.5> 496 128<523.205 640>
LayerCount: 3
Back
Fore
SplineSet
783 1056 m 0xf0
 783 971 719 880 607 880 c 0
 533 880 488 925 488 992 c 0
 488 1077 553 1168 663 1168 c 0
 737 1168 783 1123 783 1056 c 0xf0
624 640 m 1xe8
 607 553 577 460 473 371 c 0
 347 263 237 169 237 2 c 0
 237 -97 301 -152 448 -152 c 0
 532 -152 634 -132 712 -115 c 1
 688 -235 l 1
 607 -253 509 -272 425 -272 c 0
 215 -272 107 -178 107 -20 c 0
 107 195 245 325 393 451 c 0
 473 520 485 582 496 640 c 1
 624 640 l 1xe8
EndSplineSet
Layer: 2
EndChar
StartChar: Agrave
Encoding: 192 192 97
GlifName: A_grave
Width: 1024
VWidth: 0
Flags: W
HStem: 0 21G<-175 -20.5 637 768> 384 120<166 622>
VStem: 640 130<0 370.327>
LayerCount: 3
Back
Refer: 27 96 N 1 0 0 1 136.371 522 2
Refer: 29 65 N 1 0 0 1 26 0 3
Fore
SplineSet
466 1152 m 5
 574 1152 l 5
 715 864 770 555 770 154 c 4
 770 104 769 53 767 0 c 5
 637 0 l 5
 639 54 640 107 640 158 c 4
 640 237 638 312 633 384 c 5
 109 384 l 5
 55 266 4 139 -45 0 c 5
 -175 0 l 5
 -4 478 182 829 466 1152 c 5
166 504 m 5
 622 504 l 5
 601 686 560 848 496 1005 c 5
 486 1005 l 5
 361 849 257 686 166 504 c 5
633 1280 m 5
 495 1280 l 5
 379 1536 l 5
 517 1536 l 5
 633 1280 l 5
EndSplineSet
Layer: 2
EndChar
StartChar: Aacute
Encoding: 193 193 102
GlifName: A_acute
Width: 1024
VWidth: 0
Flags: W
HStem: 0 21G<-35 119.5 777 908> 384 120<306 762>
VStem: 780 130<0 370.327>
LayerCount: 3
Back
Fore
SplineSet
606 1152 m 1
 714 1152 l 1
 855 864 910 555 910 154 c 0
 910 104 909 53 907 0 c 1
 777 0 l 1
 779 54 780 107 780 158 c 0
 780 237 778 312 773 384 c 1
 249 384 l 1
 195 266 144 139 95 0 c 1
 -35 0 l 1
 136 478 322 829 606 1152 c 1
306 504 m 1
 762 504 l 1
 741 686 700 848 636 1005 c 1
 626 1005 l 1
 501 849 397 686 306 504 c 1
597 1280 m 1
 813 1536 l 1
 951 1536 l 1
 735 1280 l 1
 597 1280 l 1
EndSplineSet
Validated: 1
Layer: 2
EndChar
StartChar: Acircumflex
Encoding: 194 194 98
GlifName: A_circumflex
Width: 1024
VWidth: 0
Flags: W
HStem: 0 21G<-175 -20.5 637 768> 384 120<166 622>
VStem: 640 130<0 370.327>
LayerCount: 2
Back
Refer: 89 94 N 1 0 0 1 0 650 2
Refer: 29 65 N 1 0 0 1 0 0 3
Fore
SplineSet
466 1152 m 1
 574 1152 l 1
 715 864 770 555 770 154 c 0
 770 104 769 53 767 0 c 1
 637 0 l 1
 639 54 640 107 640 158 c 0
 640 237 638 312 633 384 c 1
 109 384 l 1
 55 266 4 139 -45 0 c 1
 -175 0 l 1
 -4 478 182 829 466 1152 c 1
166 504 m 1
 622 504 l 1
 601 686 560 848 496 1005 c 1
 486 1005 l 1
 361 849 257 686 166 504 c 1
516 1536 m 1
 674 1536 l 1
 921 1280 l 1
 763 1280 l 1
 577 1444 l 1
 327 1280 l 1
 169 1280 l 1
 516 1536 l 1
EndSplineSet
Validated: 1
EndChar
StartChar: Adieresis
Encoding: 196 196 103
GlifName: A_dieresis
Width: 1024
VWidth: 0
Flags: W
HStem: 0 21G<-35 119.5 777 908> 384 120<306 762> 1328 224<418.875 564.625 866.875 1012.62>
VStem: 377 229<1368.13 1509.63> 780 130<0 370.327> 825 229<1368.13 1509.63>
LayerCount: 2
Back
Fore
SplineSet
606 1152 m 5xf8
 714 1152 l 5
 855 864 910 555 910 154 c 4
 910 104 909 53 907 0 c 5
 777 0 l 5
 779 54 780 107 780 158 c 4
 780 237 778 312 773 384 c 5
 249 384 l 5
 195 266 144 139 95 0 c 5
 -35 0 l 5
 136 478 322 829 606 1152 c 5xf8
306 504 m 5
 762 504 l 5
 741 686 700 848 636 1005 c 5
 626 1005 l 5
 501 849 397 686 306 504 c 5
825 1415 m 4xf4
 825 1497 891 1552 962 1552 c 4
 1019 1552 1054 1517 1054 1465 c 4
 1054 1383 989 1328 918 1328 c 4
 861 1328 825 1363 825 1415 c 4xf4
377 1415 m 4
 377 1497 443 1552 514 1552 c 4
 571 1552 606 1517 606 1465 c 4
 606 1383 541 1328 470 1328 c 4
 413 1328 377 1363 377 1415 c 4
EndSplineSet
Validated: 1
EndChar
StartChar: Ccedilla
Encoding: 199 199 106
GlifName: C_cedilla
Width: 1024
VWidth: 0
Flags: W
HStem: -403 120<188.401 419.299> -16 120<346.749 497> 1304 120<559.06 1105.93>
VStem: 72 131<243.692 714.27>
LayerCount: 3
Back
Fore
SplineSet
203 432 m 4
 203 233 285 104 523 104 c 4
 645 104 786 121 911 141 c 5
 888 21 l 5
 805 7 717 -5 626 -11 c 5
 607 -108 l 6
 595 -168 582 -238 516 -308 c 4
 463 -365 384 -403 294 -403 c 4
 259 -403 214 -396 169 -386 c 5
 193 -263 l 5
 239 -274 283 -283 317 -283 c 4
 364 -283 400 -266 426 -238 c 4
 461 -201 469 -158 479 -108 c 6
 497 -16 l 5
 198 -15 72 157 72 410 c 4
 72 509 90 609 109 704 c 4
 130 814 155 930 206 1044 c 4
 307 1266 492 1424 780 1424 c 4
 903 1424 1019 1412 1125 1395 c 5
 1102 1275 l 5
 992 1292 868 1304 756 1304 c 4
 533 1304 402 1188 325 1016 c 4
 281 919 258 813 237 704 c 4
 219 610 203 518 203 432 c 4
EndSplineSet
Validated: 1
Layer: 2
EndChar
StartChar: Egrave
Encoding: 200 200 107
GlifName: E_grave
Width: 1024
VWidth: 0
Flags: W
HStem: 0 120<267 884> 516 120<368 856> 1032 120<445 1085>
CounterMasks: 1 e0
LayerCount: 2
Back
Fore
SplineSet
773 1280 m 5
 635 1280 l 5
 519 1536 l 5
 657 1536 l 5
 773 1280 l 5
340 1152 m 5
 1108 1152 l 5
 1085 1032 l 5
 445 1032 l 5
 368 636 l 5
 880 636 l 5
 856 516 l 5
 344 516 l 5
 267 120 l 5
 907 120 l 5
 884 0 l 5
 116 0 l 5
 340 1152 l 5
EndSplineSet
Validated: 1
EndChar
StartChar: Eacute
Encoding: 201 201 108
GlifName: E_acute
Width: 1024
VWidth: 0
Flags: W
HStem: 0 120<267 884> 516 120<368 856> 1032 120<445 1085>
CounterMasks: 1 e0
LayerCount: 2
Back
Fore
SplineSet
597 1280 m 1
 813 1536 l 1
 951 1536 l 1
 735 1280 l 1
 597 1280 l 1
340 1152 m 1
 1108 1152 l 1
 1085 1032 l 1
 445 1032 l 1
 368 636 l 1
 880 636 l 1
 856 516 l 1
 344 516 l 1
 267 120 l 1
 907 120 l 1
 884 0 l 1
 116 0 l 1
 340 1152 l 1
EndSplineSet
Validated: 1
EndChar
StartChar: Ecircumflex
Encoding: 202 202 109
GlifName: E_circumflex
Width: 1024
VWidth: 0
Flags: W
HStem: 0 120<267 884> 516 120<368 856> 1032 120<445 1085>
CounterMasks: 1 e0
LayerCount: 3
Back
Fore
SplineSet
656 1536 m 5
 814 1536 l 5
 1061 1280 l 5
 903 1280 l 5
 717 1444 l 5
 467 1280 l 5
 309 1280 l 5
 656 1536 l 5
340 1152 m 5
 1108 1152 l 5
 1085 1032 l 5
 445 1032 l 5
 368 636 l 5
 880 636 l 5
 856 516 l 5
 344 516 l 5
 267 120 l 5
 907 120 l 5
 884 0 l 5
 116 0 l 5
 340 1152 l 5
EndSplineSet
Validated: 1
Layer: 2
EndChar
StartChar: Igrave
Encoding: 204 204 111
GlifName: I_grave
Width: 1024
VWidth: 0
Flags: W
HStem: 0 120<139 395 523 756> 1032 120<340 573 701 957>
LayerCount: 2
Back
Fore
SplineSet
773 1280 m 1
 635 1280 l 1
 519 1536 l 1
 657 1536 l 1
 773 1280 l 1
980 1152 m 1
 957 1032 l 1
 701 1032 l 1
 523 120 l 1
 779 120 l 1
 756 0 l 1
 116 0 l 1
 139 120 l 1
 395 120 l 1
 573 1032 l 1
 317 1032 l 1
 340 1152 l 1
 980 1152 l 1
EndSplineSet
Validated: 1
EndChar
StartChar: Icircumflex
Encoding: 206 206 113
GlifName: I_circumflex
Width: 1024
VWidth: 0
Flags: W
HStem: 0 120<139 395 523 756> 1032 120<340 573 701 957>
LayerCount: 2
Back
Fore
SplineSet
656 1536 m 1
 814 1536 l 1
 1061 1280 l 1
 903 1280 l 1
 717 1444 l 1
 467 1280 l 1
 309 1280 l 1
 656 1536 l 1
980 1152 m 1
 957 1032 l 1
 701 1032 l 1
 523 120 l 1
 779 120 l 1
 756 0 l 1
 116 0 l 1
 139 120 l 1
 395 120 l 1
 573 1032 l 1
 317 1032 l 1
 340 1152 l 1
 980 1152 l 1
EndSplineSet
Validated: 1
EndChar
StartChar: Idieresis
Encoding: 207 207 114
GlifName: I_dieresis
Width: 1024
VWidth: 0
Flags: W
HStem: 0 120<139 395 523 756> 1032 120<340 573 701 957> 1328 224<418.875 564.625 866.875 1012.62>
VStem: 377 229<1368.13 1509.63> 825 229<1368.13 1509.63>
LayerCount: 3
Back
Fore
SplineSet
377 1415 m 4
 377 1497 443 1552 514 1552 c 4
 571 1552 606 1517 606 1465 c 4
 606 1383 541 1328 470 1328 c 4
 413 1328 377 1363 377 1415 c 4
825 1415 m 4
 825 1497 891 1552 962 1552 c 4
 1019 1552 1054 1517 1054 1465 c 4
 1054 1383 989 1328 918 1328 c 4
 861 1328 825 1363 825 1415 c 4
980 1152 m 5
 957 1032 l 5
 701 1032 l 5
 523 120 l 5
 779 120 l 5
 756 0 l 5
 116 0 l 5
 139 120 l 5
 395 120 l 5
 573 1032 l 5
 317 1032 l 5
 340 1152 l 5
 980 1152 l 5
EndSplineSet
Validated: 1
Layer: 2
EndChar
StartChar: Eth
Encoding: 208 208 115
GlifName: E_th
Width: 1024
VWidth: 0
Flags: W
HStem: 0 120<267 573.614> 644 120<137 241 393 625> 1288 120<494 789.875>
VStem: 938 131<668.81 1134.27>
CounterMasks: 1 e0
LayerCount: 2
Back
Fore
SplineSet
938 947 m 4
 938 1144 848 1288 614 1288 c 4
 561 1288 541 1288 494 1288 c 5
 393 764 l 5
 649 764 l 5
 625 644 l 5
 369 644 l 5
 267 120 l 5
 387 120 l 6
 548 120 661 189 743 278 c 5
 835 384 874 525 909 704 c 4
 925 787 938 869 938 947 c 4
638 1408 m 6
 742 1408 844 1378 923 1317 c 4
 1022 1240 1069 1117 1069 961 c 4
 1069 874 1053 788 1037 704 c 4
 1018 605 995 503 949 400 c 4
 854 190 649 0 364 0 c 4
 285 0 213 0 116 0 c 5
 241 644 l 5
 113 644 l 5
 137 764 l 5
 265 764 l 5
 390 1408 l 5
 638 1408 l 6
EndSplineSet
Validated: 1
EndChar
StartChar: Ntilde
Encoding: 209 209 116
GlifName: N_tilde
Width: 1024
VWidth: 0
Flags: W
HStem: 0 21G<-12 119.885 746.51 887.889> 1284 120<770.927 897.096> 1412 120<522.729 648.704>
LayerCount: 2
Back
Fore
SplineSet
582 1412 m 0
 531 1412 507 1353 494 1299 c 1
 367 1305 l 1
 394 1423 477 1532 606 1532 c 0
 752 1532 760 1404 837 1404 c 0
 888 1404 913 1463 926 1517 c 1
 1053 1511 l 1
 1027 1395 943 1284 814 1284 c 0
 668 1284 659 1412 582 1412 c 0
116 0 m 1
 -12 0 l 1
 212 1152 l 1
 339 1152 l 1
 787 210 l 1
 797 210 l 1
 980 1152 l 1
 1108 1152 l 1
 884 0 l 1
 756 0 l 1
 309 942 l 1
 299 942 l 1
 116 0 l 1
EndSplineSet
Validated: 1
EndChar
StartChar: Ograve
Encoding: 210 210 117
GlifName: O_grave
Width: 1024
VWidth: 0
Flags: W
HStem: -16 120<298.113 625.843> 1048 120<470.157 797.887>
VStem: 59 130<215.323 648.959> 907 130<503.041 936.677>
LayerCount: 2
Back
Fore
SplineSet
773 1280 m 1
 635 1280 l 1
 519 1536 l 1
 657 1536 l 1
 773 1280 l 1
433 -16 m 4
 183 -16 59 136 59 363 c 4
 59 516 100 719 178 868 c 4
 269 1042 441 1168 663 1168 c 4
 913 1168 1037 1016 1037 789 c 4
 1037 636 996 433 918 284 c 4
 827 110 655 -16 433 -16 c 4
907 770 m 4
 907 940 827 1048 640 1048 c 4
 476 1048 360 961 293 833 c 4
 231 716 189 503 189 382 c 4
 189 212 269 104 456 104 c 4
 620 104 736 191 803 319 c 4
 865 436 907 649 907 770 c 4
EndSplineSet
Validated: 1
EndChar
StartChar: Otilde
Encoding: 213 213 120
GlifName: O_tilde
Width: 1024
VWidth: 0
Flags: W
HStem: -16 120<298.113 625.843> 1048 120<470.157 797.887> 1284 120<770.927 897.096> 1412 120<522.729 648.704>
VStem: 59 130<215.323 648.959> 907 130<503.041 936.677>
LayerCount: 3
Back
Fore
SplineSet
433 -16 m 4
 183 -16 59 136 59 363 c 4
 59 516 100 719 178 868 c 4
 269 1042 441 1168 663 1168 c 4
 913 1168 1037 1016 1037 789 c 4
 1037 636 996 433 918 284 c 4
 827 110 655 -16 433 -16 c 4
907 770 m 4
 907 940 827 1048 640 1048 c 4
 476 1048 360 961 293 833 c 4
 231 716 189 503 189 382 c 4
 189 212 269 104 456 104 c 4
 620 104 736 191 803 319 c 4
 865 436 907 649 907 770 c 4
582 1412 m 0
 531 1412 507 1353 494 1299 c 1
 367 1305 l 1
 394 1423 477 1532 606 1532 c 0
 752 1532 760 1404 837 1404 c 0
 888 1404 913 1463 926 1517 c 1
 1053 1511 l 1
 1027 1395 943 1284 814 1284 c 0
 668 1284 659 1412 582 1412 c 0
EndSplineSet
Validated: 1
Layer: 2
EndChar
StartChar: Odieresis
Encoding: 214 214 121
GlifName: O_dieresis
Width: 1024
VWidth: 0
Flags: W
HStem: -16 120<295.415 633.164> 1048 120<462.836 800.585> 1328 224<416.522 566.954 864.522 1014.95>
VStem: 59 130<208.305 660.775> 377 229<1366.36 1513.64> 825 229<1366.36 1513.64> 907 130<491.225 943.695>
LayerCount: 3
Back
Fore
SplineSet
433 -16 m 4xfa
 183 -16 59 136 59 363 c 4
 59 516 100 719 178 868 c 4
 269 1042 441 1168 663 1168 c 4
 913 1168 1037 1016 1037 789 c 4
 1037 636 996 433 918 284 c 4
 827 110 655 -16 433 -16 c 4xfa
907 770 m 4
 907 940 827 1048 640 1048 c 4
 476 1048 360 961 293 833 c 4
 231 716 189 503 189 382 c 4
 189 212 269 104 456 104 c 4
 620 104 736 191 803 319 c 4
 865 436 907 649 907 770 c 4
377 1415 m 4
 377 1497 443 1552 514 1552 c 4
 571 1552 606 1517 606 1465 c 4
 606 1383 541 1328 470 1328 c 4
 413 1328 377 1363 377 1415 c 4
825 1415 m 4xfc
 825 1497 891 1552 962 1552 c 4
 1019 1552 1054 1517 1054 1465 c 4
 1054 1383 989 1328 918 1328 c 4
 861 1328 825 1363 825 1415 c 4xfc
EndSplineSet
Layer: 2
EndChar
StartChar: multiply
Encoding: 215 215 122
GlifName: multiply
Width: 1024
VWidth: 0
Flags: W
LayerCount: 3
Back
Fore
SplineSet
709 640 m 5
 932 368 l 5
 822 286 l 5
 608 555 l 5
 565 640 l 5
 555 640 l 5
 480 555 l 5
 162 286 l 5
 84 368 l 5
 411 640 l 5
 508 699 l 5
 510 709 l 5
 436 768 l 5
 214 1040 l 5
 324 1122 l 5
 538 853 l 5
 580 768 l 5
 590 768 l 5
 666 853 l 5
 984 1122 l 5
 1062 1040 l 5
 734 768 l 5
 638 709 l 5
 636 699 l 5
 709 640 l 5
EndSplineSet
Validated: 1
Layer: 2
EndChar
StartChar: Oslash
Encoding: 216 216 123
GlifName: O_slash
Width: 1024
VWidth: 0
Flags: W
HStem: -16 120<316.144 610.229> 1304 120<535.271 829.653>
VStem: 68 130<315.261 694.561> 947 130<708.715 1092.74>
LayerCount: 2
Back
Fore
SplineSet
246 215 m 5
 287 148 355 104 456 104 c 4
 628 104 755 230 821 382 c 4
 865 485 887 592 909 704 c 4
 928 804 947 909 947 1000 c 4
 947 1033 945 1065 939 1094 c 5
 246 215 l 5
1040 1222 m 5
 1066 1161 1077 1099 1077 1020 c 4
 1077 913 1057 805 1037 704 c 4
 1015 592 992 473 941 355 c 4
 854 152 671 -16 433 -16 c 4
 309 -16 217 30 157 103 c 5
 56 -26 l 5
 -20 26 l 5
 106 186 l 5
 80 247 68 309 68 388 c 4
 68 495 89 603 109 704 c 4
 131 816 154 935 205 1053 c 4
 292 1256 475 1424 713 1424 c 4
 837 1424 929 1378 989 1305 c 5
 1090 1434 l 5
 1166 1382 l 5
 1040 1222 l 5
689 1304 m 4
 517 1304 390 1178 324 1026 c 4
 280 923 259 816 237 704 c 4
 218 604 198 499 198 408 c 4
 198 375 201 343 207 314 c 5
 900 1193 l 5
 859 1260 790 1304 689 1304 c 4
EndSplineSet
Validated: 1
EndChar
StartChar: Uacute
Encoding: 218 218 125
GlifName: U_acute
Width: 1024
VWidth: 0
Flags: W
HStem: -16 120<302.541 624.27>
VStem: 62 130<209.484 572>
LayerCount: 2
Back
Fore
SplineSet
597 1280 m 1
 813 1536 l 1
 951 1536 l 1
 735 1280 l 1
 597 1280 l 1
433 -16 m 0
 204 -16 62 123 62 324 c 0
 62 383 73 435 88 512 c 2
 212 1152 l 1
 340 1152 l 1
 216 512 l 2
 203 444 192 389 192 344 c 0
 192 199 292 104 456 104 c 0
 616 104 749 196 808 330 c 0
 829 378 841 437 856 512 c 2
 980 1152 l 1
 1108 1152 l 1
 984 512 l 2
 967 426 956 371 927 303 c 0
 847 118 654 -16 433 -16 c 0
EndSplineSet
Validated: 1
EndChar
StartChar: Yacute
Encoding: 221 221 128
GlifName: Y_acute
Width: 1024
VWidth: 0
Flags: W
HStem: 0 21G<372 503.906>
VStem: 197 125<943.809 1152>
LayerCount: 2
Back
Fore
SplineSet
597 1280 m 1
 813 1536 l 1
 951 1536 l 1
 735 1280 l 1
 597 1280 l 1
197 1152 m 1
 322 1152 l 1
 346 939 405 758 540 612 c 1
 570 612 l 1
 761 758 892 939 998 1152 c 1
 1123 1152 l 1
 1017 923 867 714 600 512 c 1
 500 0 l 1
 372 0 l 1
 472 512 l 1
 283 714 213 923 197 1152 c 1
EndSplineSet
Validated: 1
EndChar
StartChar: atilde
Encoding: 227 227 134
GlifName: atilde
Width: 1024
VWidth: 0
Flags: W
HStem: -16 120<304.735 523.09> 0 21G<628 759.899> 512 110<375.635 728> 920 120<379.349 768.843> 1156 120<744.672 872.743> 1284 120<497.32 625.328>
VStem: 135 131<143.627 397.259> 784 130<627.938 902.638>
LayerCount: 3
Back
Fore
SplineSet
728 512 m 1xbf
 532 512 l 2
 477 512 418 512 357 458 c 0
 305 412 266 334 266 254 c 0
 266 168 315 104 412 104 c 0
 642 104 695 341 720 471 c 2
 728 512 l 1xbf
670 1040 m 0
 734 1040 805 1032 854 987 c 0
 888 955 914 913 914 848 c 0
 914 810 906 772 902 749 c 2
 756 0 l 1
 628 0 l 1x7f
 652 123 l 1
 642 123 l 1
 561 35 474 -16 365 -16 c 0
 229 -16 135 82 135 228 c 0
 135 335 186 457 276 533 c 0
 383 622 493 622 555 622 c 2
 749 622 l 1
 773 744 l 2
 778 772 784 800 784 825 c 0
 784 887 748 920 647 920 c 0
 559 920 445 910 355 899 c 1
 378 1021 l 1
 467 1031 578 1040 670 1040 c 0
558 1284 m 0
 507 1284 482 1225 469 1171 c 1
 342 1177 l 1
 369 1295 452 1404 581 1404 c 0
 727 1404 735 1276 812 1276 c 0
 863 1276 888 1335 901 1389 c 1
 1028 1383 l 1
 1002 1267 918 1156 789 1156 c 0
 643 1156 635 1284 558 1284 c 0
EndSplineSet
Validated: 1
Layer: 2
EndChar
StartChar: adieresis
Encoding: 228 228 135
GlifName: adieresis
Width: 1024
VWidth: 0
Flags: W
HStem: -16 120<304.735 523.09> 0 21G<628 759.899> 512 110<375.635 728> 920 120<379.349 768.843> 1200 224<392.046 542.478 840.046 990.478>
VStem: 135 131<143.627 397.259> 353 229<1238.36 1385.64> 784 130<627.938 902.638> 801 229<1238.36 1385.64>
LayerCount: 3
Back
Fore
SplineSet
728 512 m 1xbe
 532 512 l 2
 477 512 418 512 357 458 c 0
 305 412 266 334 266 254 c 0
 266 168 315 104 412 104 c 0
 642 104 695 341 720 471 c 2
 728 512 l 1xbe
670 1040 m 0
 734 1040 805 1032 854 987 c 0
 888 955 914 913 914 848 c 0
 914 810 906 772 902 749 c 2
 756 0 l 1
 628 0 l 1x7f
 652 123 l 1
 642 123 l 1
 561 35 474 -16 365 -16 c 0
 229 -16 135 82 135 228 c 0
 135 335 186 457 276 533 c 0
 383 622 493 622 555 622 c 2
 749 622 l 1
 773 744 l 2
 778 772 784 800 784 825 c 0xbf
 784 887 748 920 647 920 c 0
 559 920 445 910 355 899 c 1
 378 1021 l 1
 467 1031 578 1040 670 1040 c 0
801 1287 m 0x3e80
 801 1369 866 1424 937 1424 c 0
 994 1424 1030 1389 1030 1337 c 0
 1030 1255 964 1200 893 1200 c 0
 836 1200 801 1235 801 1287 c 0x3e80
353 1287 m 0
 353 1369 418 1424 489 1424 c 0
 546 1424 582 1389 582 1337 c 0
 582 1255 516 1200 445 1200 c 0
 388 1200 353 1235 353 1287 c 0
EndSplineSet
Layer: 2
EndChar
StartChar: aring
Encoding: 229 229 136
GlifName: aring
Width: 1024
VWidth: 0
Flags: W
HStem: -16 120<304.735 523.09> 0 21G<628 759.899> 512 110<375.635 728> 899 122<378 449.579> 920 120<553.743 738.07> 1296 100<589.054 772.98>
VStem: 135 131<143.627 397.937> 430 110<1053.54 1248> 784 130<697.152 901.679> 786 109<1087.61 1281.03>
LayerCount: 3
Back
Fore
SplineSet
808 1017 m 1x3740
 863 993 914 937 914 848 c 0
 914 810 906 772 902 749 c 2
 756 0 l 1
 628 0 l 1x7780
 652 123 l 1
 642 123 l 1
 561 35 474 -16 365 -16 c 0
 229 -16 135 82 135 228 c 0
 135 336 186 457 276 533 c 0
 383 622 493 622 555 622 c 2
 749 622 l 1
 773 744 l 2
 778 772 784 800 784 825 c 0
 784 894 738 920 647 920 c 0xaf80
 559 920 445 910 355 899 c 1
 378 1021 l 1
 401 1024 426 1027 452 1029 c 1
 438 1055 430 1086 430 1120 c 0
 430 1278 562 1396 707 1396 c 0
 825 1396 895 1320 895 1216 c 0
 895 1130 859 1065 808 1017 c 1x3740
638 1040 m 0x2f40
 715 1040 786 1100 786 1202 c 0
 786 1263 748 1296 688 1296 c 0
 611 1296 540 1236 540 1134 c 0
 540 1073 578 1040 638 1040 c 0x2f40
728 512 m 1
 532 512 l 2
 477 512 418 512 357 458 c 0
 305 412 266 338 266 254 c 0
 266 168 315 104 412 104 c 0xa7
 642 104 695 341 720 471 c 2
 728 512 l 1
EndSplineSet
Layer: 2
EndChar
StartChar: ccedilla
Encoding: 231 231 138
GlifName: ccedilla
Width: 1024
VWidth: 0
Flags: W
HStem: -400 120<188.889 422.598> -16 120<347.896 497> 920 120<489.347 915.267>
VStem: 154 130<168.046 568.373>
LayerCount: 3
Back
Fore
SplineSet
608 -105 m 6
 596 -165 583 -235 517 -305 c 4
 464 -362 384 -400 294 -400 c 4
 259 -400 215 -393 170 -383 c 5
 193 -260 l 5
 239 -271 284 -280 318 -280 c 4
 365 -280 400 -263 426 -235 c 4
 461 -198 470 -155 480 -105 c 6
 497 -16 l 5
 486 -16 474 -16 463 -16 c 4
 251 -16 154 106 154 287 c 4
 154 355 168 430 184 512 c 4
 208 633 230 738 289 831 c 4
 361 946 480 1040 668 1040 c 4
 771 1040 847 1032 935 1023 c 5
 912 903 l 5
 823 912 741 920 645 920 c 4
 525 920 456 872 400 789 c 4
 351 716 332 614 312 512 c 4
 298 441 284 369 284 308 c 4
 284 174 350 104 486 104 c 4
 581 104 678 115 781 130 c 5
 758 10 l 5
 713 3 670 -3 627 -7 c 5
 608 -105 l 6
EndSplineSet
Layer: 2
EndChar
StartChar: edieresis
Encoding: 235 235 142
GlifName: edieresis
Width: 1024
VWidth: 0
Flags: W
HStem: -16 120<343.715 756.006> 512 120<337 786.442> 920 120<476.431 737.147> 1200 224<394.375 540.125 842.375 988.125>
VStem: 153 130<166.803 510.253> 353 229<1242.37 1383.87> 792 129<634.658 868.033> 801 229<1242.37 1383.87>
LayerCount: 3
Back
Fore
SplineSet
792 745 m 4xfe
 792 857 733 920 615 920 c 4
 518 920 439 874 396 799 c 4
 366 751 352 693 337 632 c 5
 781 632 l 5
 787 672 792 710 792 745 c 4xfe
283 301 m 4
 283 173 347 104 476 104 c 4
 569 104 673 113 780 125 c 5
 757 5 l 5
 651 -7 553 -16 453 -16 c 4
 253 -16 153 103 153 280 c 4
 153 351 168 427 184 512 c 4
 208 637 230 747 284 839 c 4
 348 951 476 1040 638 1040 c 4
 811 1040 921 941 921 761 c 4
 921 687 906 604 888 512 c 5
 312 512 l 5
 298 438 283 364 283 301 c 4
801 1287 m 4xfd
 801 1369 866 1424 937 1424 c 4
 994 1424 1030 1389 1030 1337 c 4
 1030 1255 964 1200 893 1200 c 4
 836 1200 801 1235 801 1287 c 4xfd
353 1287 m 4
 353 1369 418 1424 489 1424 c 4
 546 1424 582 1389 582 1337 c 4
 582 1255 516 1200 445 1200 c 4
 388 1200 353 1235 353 1287 c 4
EndSplineSet
Validated: 1
Layer: 2
EndChar
StartChar: igrave
Encoding: 236 236 143
GlifName: igrave
Width: 1024
VWidth: 0
Flags: W
HStem: 0 120<139 395 523 756> 904 120<315 548> 1388 20G<494 641.062>
LayerCount: 3
Back
Fore
SplineSet
748 1152 m 5
 610 1152 l 5
 494 1408 l 5
 632 1408 l 5
 748 1152 l 5
116 0 m 5
 139 120 l 5
 395 120 l 5
 548 904 l 5
 292 904 l 5
 315 1024 l 5
 699 1024 l 5
 523 120 l 5
 779 120 l 5
 756 0 l 5
 116 0 l 5
EndSplineSet
Layer: 2
EndChar
StartChar: iacute
Encoding: 237 237 144
GlifName: iacute
Width: 1024
VWidth: 0
Flags: W
HStem: 0 120<139 395 523 756> 904 120<315 548> 1388 20G<771.125 926>
LayerCount: 3
Back
Fore
SplineSet
572 1152 m 1
 788 1408 l 1
 926 1408 l 1
 710 1152 l 1
 572 1152 l 1
116 0 m 1
 139 120 l 1
 395 120 l 1
 548 904 l 1
 292 904 l 1
 315 1024 l 1
 699 1024 l 1
 523 120 l 1
 779 120 l 1
 756 0 l 1
 116 0 l 1
EndSplineSet
Validated: 1
Layer: 2
EndChar
StartChar: icircumflex
Encoding: 238 238 145
GlifName: icircumflex
Width: 1024
VWidth: 0
Flags: W
HStem: 0 120<139 395 523 756> 904 120<315 548> 1388 20G<603.891 808.297>
LayerCount: 3
Back
Fore
SplineSet
631 1408 m 1
 789 1408 l 1
 1036 1152 l 1
 878 1152 l 1
 692 1316 l 1
 442 1152 l 1
 284 1152 l 1
 631 1408 l 1
116 0 m 1
 139 120 l 1
 395 120 l 1
 548 904 l 1
 292 904 l 1
 315 1024 l 1
 699 1024 l 1
 523 120 l 1
 779 120 l 1
 756 0 l 1
 116 0 l 1
EndSplineSet
Validated: 1
Layer: 2
EndChar
StartChar: eth
Encoding: 240 240 147
GlifName: eth
Width: 1024
VWidth: 0
Flags: W
HStem: -16 120<336.513 587.771> 792 120<454.73 714.19> 1035 21G<457.606 500.543> 1397 20G<929.767 972.697>
VStem: 148 131<161.887 522.882> 770 143<443.907 1057.93>
LayerCount: 2
Back
Fore
SplineSet
467 1035 m 5
 436 1101 l 5
 638 1222 l 5
 597 1274 548 1317 493 1350 c 5
 551 1428 l 5
 627 1390 691 1342 742 1284 c 5
 963 1417 l 5
 995 1351 l 5
 786 1226 l 5
 875 1112 913 965 913 791 c 4
 913 687 899 572 875 448 c 4
 856 351 838 274 792 195 c 4
 724 80 593 -16 453 -16 c 4
 237 -16 148 99 148 272 c 4
 148 326 158 382 171 448 c 4
 190 545 209 625 250 701 c 4
 312 817 436 912 593 912 c 4
 680 912 728 873 771 810 c 5
 781 810 l 5
 781 944 746 1063 680 1162 c 5
 467 1035 l 5
770 617 m 4
 770 727 706 792 590 792 c 4
 489 792 410 740 366 661 c 4
 335 603 314 526 299 448 c 4
 288 392 279 338 279 289 c 4
 279 175 341 104 456 104 c 4
 552 104 632 156 680 235 c 4
 715 295 732 370 747 448 c 4
 759 507 770 567 770 617 c 4
EndSplineSet
Validated: 1
EndChar
StartChar: ntilde
Encoding: 241 241 148
GlifName: ntilde
Width: 1024
VWidth: 0
Flags: W
HStem: 0 21G<116 247.896 628 759.896> 920 120<528.829 730.745> 1004 20G<311.113 443> 1156 120<744.672 872.743> 1284 120<497.32 625.328>
VStem: 772 130<533.812 877.97>
LayerCount: 3
Back
Fore
SplineSet
558 1284 m 0x9c
 507 1284 482 1225 469 1171 c 1
 342 1177 l 1
 369 1295 452 1404 581 1404 c 0
 727 1404 735 1276 812 1276 c 0
 863 1276 888 1335 901 1389 c 1
 1028 1383 l 1
 1002 1267 918 1156 789 1156 c 0
 643 1156 635 1284 558 1284 c 0x9c
772 776 m 0
 772 867 710 920 615 920 c 0xdc
 551 920 495 895 456 858 c 0
 401 806 389 744 372 657 c 2
 244 0 l 1
 116 0 l 1
 315 1024 l 1
 443 1024 l 1xbc
 421 912 l 1
 431 912 l 1
 495 989 582 1040 658 1040 c 0xdc
 807 1040 902 944 902 801 c 0
 902 753 893 705 884 657 c 2
 756 0 l 1
 628 0 l 1
 756 657 l 2
 765 703 772 742 772 776 c 0
EndSplineSet
Layer: 2
EndChar
StartChar: otilde
Encoding: 245 245 152
GlifName: otilde
Width: 1024
VWidth: 0
Flags: W
HStem: -16 120<340.718 586.231> 920 120<484.769 730.044> 1156 120<745.943 872.096> 1284 120<497.967 624.057>
VStem: 154 129<161.363 554.63> 787 129<457.165 862.431>
LayerCount: 3
Back
Fore
SplineSet
433 -16 m 4
 260 -16 154 96 154 278 c 4
 154 347 167 425 184 512 c 4
 213 662 246 788 320 880 c 4
 400 978 511 1040 638 1040 c 4
 811 1040 916 927 916 746 c 4
 916 677 905 599 888 512 c 4
 859 362 825 236 751 144 c 4
 671 46 560 -16 433 -16 c 4
787 724 m 4
 787 843 736 920 615 920 c 4
 531 920 466 881 420 822 c 4
 359 744 335 629 312 512 c 4
 298 438 283 364 283 300 c 4
 283 181 335 104 456 104 c 4
 540 104 605 143 651 202 c 4
 712 280 737 395 760 512 c 4
 774 586 787 660 787 724 c 4
558 1284 m 0
 507 1284 482 1225 469 1171 c 1
 342 1177 l 1
 369 1295 452 1404 581 1404 c 0
 727 1404 735 1276 812 1276 c 0
 863 1276 888 1335 901 1389 c 1
 1028 1383 l 1
 1002 1267 918 1156 789 1156 c 0
 643 1156 635 1284 558 1284 c 0
EndSplineSet
Validated: 1
Layer: 2
EndChar
StartChar: odieresis
Encoding: 246 246 153
GlifName: odieresis
Width: 1024
VWidth: 0
Flags: W
HStem: -16 120<340.718 586.231> 920 120<484.769 730.044> 1200 224<394.375 540.125 842.375 988.125>
VStem: 154 129<161.363 554.63> 353 229<1242.37 1383.87> 787 129<457.165 862.431> 801 229<1242.37 1383.87>
LayerCount: 3
Back
Fore
SplineSet
433 -16 m 4xfc
 260 -16 154 96 154 278 c 4
 154 347 167 425 184 512 c 4
 213 662 246 788 320 880 c 4
 400 978 511 1040 638 1040 c 4
 811 1040 916 927 916 746 c 4
 916 677 905 599 888 512 c 4
 859 362 825 236 751 144 c 4
 671 46 560 -16 433 -16 c 4xfc
787 724 m 4
 787 843 736 920 615 920 c 4
 531 920 466 881 420 822 c 4
 359 744 335 629 312 512 c 4
 298 438 283 364 283 300 c 4
 283 181 335 104 456 104 c 4
 540 104 605 143 651 202 c 4
 712 280 737 395 760 512 c 4
 774 586 787 660 787 724 c 4
353 1287 m 4
 353 1369 418 1424 489 1424 c 4
 546 1424 582 1389 582 1337 c 4
 582 1255 516 1200 445 1200 c 4
 388 1200 353 1235 353 1287 c 4
801 1287 m 4xfa
 801 1369 866 1424 937 1424 c 4
 994 1424 1030 1389 1030 1337 c 4
 1030 1255 964 1200 893 1200 c 4
 836 1200 801 1235 801 1287 c 4xfa
EndSplineSet
Validated: 1
Layer: 2
EndChar
StartChar: divide
Encoding: 247 247 154
GlifName: divide
Width: 1024
VWidth: 0
Flags: W
HStem: 176 224<421.875 567.625> 644 120<140 1012> 1008 224<583.375 729.625>
VStem: 380 229<216.133 357.631> 542 229<1048.13 1191.87>
CounterMasks: 1 e0
LayerCount: 3
Back
Fore
SplineSet
1036 764 m 5xe0
 1012 644 l 5
 116 644 l 5
 140 764 l 5
 1036 764 l 5xe0
380 263 m 4xf0
 380 345 446 400 517 400 c 4
 574 400 609 365 609 313 c 4
 609 231 544 176 473 176 c 4
 416 176 380 211 380 263 c 4xf0
542 1095 m 4xe8
 542 1177 607 1232 678 1232 c 4
 735 1232 771 1197 771 1145 c 4
 771 1063 706 1008 635 1008 c 4
 578 1008 542 1043 542 1095 c 4xe8
EndSplineSet
Validated: 1
Layer: 2
EndChar
StartChar: oslash
Encoding: 248 248 155
GlifName: oslash
Width: 1024
VWidth: 0
Flags: W
HStem: -16 120<338.906 592.275> 920 120<478.812 732.094>
VStem: 153 130<291 565.973> 788 130<458.027 732>
LayerCount: 3
Back
Fore
SplineSet
309 183 m 5
 335 134 383 104 456 104 c 4
 667 104 723 322 760 512 c 4
 775 590 788 665 788 732 c 5
 309 183 l 5
901 861 m 5
 913 826 918 787 918 746 c 4
 918 675 904 597 888 512 c 4
 864 391 842 290 786 195 c 4
 717 79 593 -16 433 -16 c 4
 333 -16 261 21 216 77 c 5
 124 -28 l 5
 52 28 l 5
 170 163 l 5
 158 198 153 237 153 278 c 4
 153 349 168 427 184 512 c 4
 208 633 229 734 285 829 c 4
 354 945 478 1040 638 1040 c 4
 738 1040 810 1003 855 947 c 5
 947 1052 l 5
 1019 996 l 5
 901 861 l 5
615 920 m 4
 404 920 349 702 312 512 c 4
 296 434 284 367 283 291 c 5
 762 841 l 5
 736 890 688 920 615 920 c 4
EndSplineSet
Layer: 2
EndChar
StartChar: ugrave
Encoding: 249 249 156
GlifName: ugrave
Width: 1024
VWidth: 0
Flags: W
HStem: -16 120<341.52 535.955> 0 21G<628 759.887> 1004 20G<311.104 443 823.104 955> 1388 20G<494 641.062>
VStem: 169 130<147.234 469.656>
LayerCount: 3
Back
Fore
SplineSet
748 1152 m 5x38
 610 1152 l 5
 494 1408 l 5
 632 1408 l 5
 748 1152 l 5x38
299 248 m 4
 299 157 361 104 456 104 c 4xb8
 520 104 576 129 615 166 c 4
 670 218 682 280 699 367 c 6
 827 1024 l 5
 955 1024 l 5
 756 0 l 5
 628 0 l 5x78
 650 112 l 5
 640 112 l 5
 576 35 489 -16 413 -16 c 4xb8
 264 -16 169 80 169 223 c 4
 169 271 178 319 187 367 c 6
 315 1024 l 5
 443 1024 l 5
 315 367 l 6
 306 321 299 282 299 248 c 4
EndSplineSet
Validated: 1
Layer: 2
EndChar
StartChar: udieresis
Encoding: 252 252 159
GlifName: udieresis
Width: 1024
VWidth: 0
Flags: W
HStem: -16 120<340.255 542.171> 0 21G<628 759.887> 1004 20G<311.104 443 823.104 955> 1200 224<392.046 542.478 840.046 990.478>
VStem: 169 130<146.03 490.188> 353 229<1238.36 1385.64> 801 229<1238.36 1385.64>
LayerCount: 3
Back
Fore
SplineSet
353 1287 m 0x3e
 353 1369 418 1424 489 1424 c 0
 546 1424 582 1389 582 1337 c 0
 582 1255 516 1200 445 1200 c 0
 388 1200 353 1235 353 1287 c 0x3e
801 1287 m 0
 801 1369 866 1424 937 1424 c 0
 994 1424 1030 1389 1030 1337 c 0
 1030 1255 964 1200 893 1200 c 0
 836 1200 801 1235 801 1287 c 0
299 248 m 0
 299 157 361 104 456 104 c 0xbe
 520 104 576 129 615 166 c 0
 670 218 682 280 699 367 c 2
 827 1024 l 1
 955 1024 l 1
 756 0 l 1
 628 0 l 1x7e
 650 112 l 1
 640 112 l 1
 576 35 489 -16 413 -16 c 0xbe
 264 -16 169 80 169 223 c 0
 169 271 178 319 187 367 c 2
 315 1024 l 1
 443 1024 l 1
 315 367 l 2
 306 321 299 282 299 248 c 0
EndSplineSet
Validated: 1
Layer: 2
EndChar
StartChar: thorn
Encoding: 254 254 161
GlifName: thorn
Width: 1024
VWidth: 0
Flags: W
HStem: -16 120<367.224 590.512> 920 120<540.749 734.397> 1388 20G<386.105 518>
VStem: 786 133<456.333 864.082>
LayerCount: 3
Back
Fore
SplineSet
317 307 m 4
 317 199 359 104 472 104 c 4
 568 104 643 177 684 256 c 4
 724 332 742 420 760 512 c 4
 774 584 786 654 786 717 c 4
 786 825 744 920 631 920 c 4
 535 920 460 847 419 768 c 4
 379 692 362 604 344 512 c 4
 330 440 317 370 317 307 c 4
674 1040 m 4
 822 1040 919 928 919 747 c 4
 919 675 905 601 888 512 c 4
 866 400 848 311 803 221 c 4
 727 71 600 -16 469 -16 c 4
 386 -16 319 33 278 125 c 5
 268 125 l 5
 169 -384 l 5
 41 -384 l 5
 390 1408 l 5
 518 1408 l 5
 419 899 l 5
 429 899 l 5
 506 991 591 1040 674 1040 c 4
EndSplineSet
Layer: 2
EndChar
StartChar: ydieresis
Encoding: 255 255 162
GlifName: ydieresis
Width: 1024
VWidth: 0
Flags: W
HStem: -400 120<62 260.607> 1004 20G<263 394 817 1007> 1162 224<386.375 532.625 834.375 980.625>
VStem: 263 131<601.167 1024> 345 229<1202.13 1345.87> 793 229<1202.13 1345.87>
LayerCount: 2
Back
Fore
SplineSet
490 115 m 5xf4
 636 414 758 717 876 1024 c 5
 1007 1024 l 5
 865 655 740 351 523 -73 c 4
 470 -177 416 -271 345 -321 c 4xec
 281 -367 193 -400 38 -400 c 5
 62 -280 l 5
 144 -280 227 -266 267 -239 c 4
 321 -203 353 -140 428 0 c 5
 377 0 l 5
 283 326 264 676 263 1024 c 5
 394 1024 l 5
 394 709 409 400 480 115 c 5
 490 115 l 5xf4
793 1249 m 4
 793 1331 858 1386 929 1386 c 4
 986 1386 1022 1351 1022 1299 c 4
 1022 1217 957 1162 886 1162 c 4
 829 1162 793 1197 793 1249 c 4
345 1249 m 4
 345 1331 410 1386 481 1386 c 4
 538 1386 574 1351 574 1299 c 4
 574 1217 509 1162 438 1162 c 4
 381 1162 345 1197 345 1249 c 4
EndSplineSet
Validated: 1
EndChar
StartChar: Abreve
Encoding: 258 258 169
GlifName: A_breve
Width: 1024
VWidth: 0
Flags: W
HStem: 0 21G<-35 119.5 777 908> 384 120<306 762> 1264 120<557.629 867.307>
VStem: 390 130<1423.07 1536> 780 130<0 370.327> 947 128<1456.27 1536>
LayerCount: 3
Back
Fore
SplineSet
606 1152 m 1
 714 1152 l 1
 855 864 910 555 910 154 c 0
 910 104 909 53 907 0 c 1
 777 0 l 1
 779 54 780 107 780 158 c 0
 780 237 778 312 773 384 c 1
 249 384 l 1
 195 266 144 139 95 0 c 1
 -35 0 l 1
 136 478 322 829 606 1152 c 1
306 504 m 1
 762 504 l 1
 741 686 700 848 636 1005 c 1
 626 1005 l 1
 501 849 397 686 306 504 c 1
947 1536 m 5
 1075 1536 l 5
 1042 1368 870 1264 682 1264 c 4
 513 1264 390 1347 390 1486 c 0
 390 1502 392 1519 395 1536 c 5
 523 1536 l 5
 521 1526 520 1517 520 1508 c 0
 520 1436 578 1384 705 1384 c 4
 848 1384 930 1450 947 1536 c 5
EndSplineSet
Layer: 2
EndChar
StartChar: abreve
Encoding: 259 259 170
GlifName: abreve
Width: 1024
VWidth: 0
Flags: W
HStem: -16 120<308.799 516.96> 0 21G<628 759.899> 512 110<376.941 728> 920 120<379.349 767.454> 1136 120<537.222 840.339> 1388 20G<368.5 498 913.5 1050>
VStem: 135 131<144.833 393.229> 365 130<1296.14 1408> 784 130<627.938 900.768>
LayerCount: 2
Back
Fore
SplineSet
728 512 m 5xbf80
 532 512 l 6
 477 512 418 512 357 458 c 4
 305 412 266 334 266 254 c 4
 266 168 315 104 412 104 c 4
 642 104 695 341 720 471 c 6
 728 512 l 5xbf80
670 1040 m 4
 734 1040 805 1032 854 987 c 4
 888 955 914 913 914 848 c 4
 914 810 906 772 902 749 c 6
 756 0 l 5
 628 0 l 5x7f80
 652 123 l 5
 642 123 l 5
 561 35 474 -16 365 -16 c 4
 229 -16 135 82 135 228 c 4
 135 335 186 457 276 533 c 4
 383 622 493 622 555 622 c 6
 749 622 l 5
 773 744 l 6
 778 772 784 800 784 825 c 4
 784 887 748 920 647 920 c 4
 559 920 445 910 355 899 c 5
 378 1021 l 5
 467 1031 578 1040 670 1040 c 4
922 1408 m 1
 1050 1408 l 1
 1017 1240 845 1136 657 1136 c 0
 488 1136 365 1219 365 1358 c 0
 365 1374 367 1391 370 1408 c 1
 498 1408 l 1
 496 1398 495 1389 495 1380 c 0
 495 1308 553 1256 680 1256 c 0
 823 1256 905 1322 922 1408 c 1
EndSplineSet
Validated: 1
EndChar
StartChar: Cacute
Encoding: 262 262 171
GlifName: C_acute
Width: 1024
VWidth: 0
Flags: W
HStem: -16 120<347.9 884.32> 1048 120<510.039 1071.46>
VStem: 67 129<250.02 663.402>
LayerCount: 2
Back
Fore
SplineSet
510 -16 m 4
 218 -16 67 145 67 410 c 4
 67 462 73 517 84 576 c 4
 155 939 387 1168 730 1168 c 4
 878 1168 992 1156 1093 1141 c 5
 1069 1021 l 5
 967 1035 853 1048 707 1048 c 4
 434 1048 269 870 212 576 c 4
 202 523 196 473 196 428 c 4
 196 223 304 104 533 104 c 4
 652 104 789 118 910 135 c 5
 887 15 l 5
 770 -2 640 -16 510 -16 c 4
597 1280 m 5
 813 1536 l 5
 951 1536 l 5
 735 1280 l 5
 597 1280 l 5
EndSplineSet
Validated: 1
EndChar
StartChar: ccircumflex
Encoding: 265 265 174
GlifName: ccircumflex
Width: 1024
VWidth: 0
Flags: W
HStem: -16 120<347.535 755.097> 920 120<489.347 915.267> 1388 20G<603.891 808.297>
VStem: 154 130<167.677 568.373>
LayerCount: 3
Back
Fore
SplineSet
184 512 m 4
 208 633 230 738 289 831 c 4
 361 946 480 1040 668 1040 c 4
 771 1040 847 1032 935 1023 c 5
 912 903 l 5
 823 912 741 920 645 920 c 4
 525 920 456 872 400 789 c 4
 351 716 332 614 312 512 c 4
 298 441 284 369 284 308 c 4
 284 229 305 104 486 104 c 4
 581 104 678 115 781 130 c 5
 758 10 l 5
 656 -5 565 -16 463 -16 c 4
 253 -16 154 106 154 287 c 4
 154 355 168 430 184 512 c 4
631 1408 m 1
 789 1408 l 1
 1036 1152 l 1
 878 1152 l 1
 692 1316 l 1
 442 1152 l 1
 284 1152 l 1
 631 1408 l 1
EndSplineSet
Layer: 2
EndChar
StartChar: Cdotaccent
Encoding: 266 266 175
GlifName: C_dotaccent
Width: 1024
VWidth: 0
Flags: W
HStem: -16 120<347.9 884.32> 1048 120<510.039 1071.46> 1328 224<642.875 788.625>
VStem: 67 129<250.02 663.402> 601 229<1368.13 1509.63>
LayerCount: 2
Back
Fore
SplineSet
510 -16 m 4
 218 -16 67 145 67 410 c 4
 67 462 72 517 84 576 c 4
 155 939 387 1168 730 1168 c 4
 878 1168 992 1156 1093 1141 c 5
 1069 1021 l 5
 967 1035 853 1048 707 1048 c 4
 434 1048 269 870 212 576 c 4
 202 523 196 473 196 428 c 4
 196 223 304 104 533 104 c 4
 652 104 789 118 910 135 c 5
 887 15 l 5
 770 -2 640 -16 510 -16 c 4
601 1415 m 4
 601 1497 667 1552 738 1552 c 4
 795 1552 830 1517 830 1465 c 4
 830 1383 765 1328 694 1328 c 4
 637 1328 601 1363 601 1415 c 4
EndSplineSet
Validated: 1
EndChar
StartChar: Dcaron
Encoding: 270 270 179
GlifName: D_caron
Width: 1024
VWidth: 0
Flags: W
HStem: 0 120<139 585.819> 1032 120<317 754.213>
VStem: 895 130<495.258 896.76>
LayerCount: 2
Back
Fore
SplineSet
606 1280 m 1
 359 1536 l 1
 517 1536 l 1
 703 1372 l 1
 953 1536 l 1
 1111 1536 l 1
 764 1280 l 1
 606 1280 l 1
387 120 m 2
 660 120 822 282 879 576 c 0
 889 629 895 679 895 723 c 0
 895 924 788 1032 565 1032 c 0
 456 1032 414 1032 317 1032 c 1
 139 120 l 1
 387 120 l 2
588 1152 m 2
 875 1152 1025 1003 1025 742 c 0
 1025 691 1019 635 1007 576 c 0
 936 213 707 0 364 0 c 0
 244 0 135 0 -12 0 c 1
 212 1152 l 1
 588 1152 l 2
EndSplineSet
Validated: 1
EndChar
StartChar: Emacron
Encoding: 274 274 183
GlifName: E_macron
Width: 1024
VWidth: 0
Flags: W
HStem: 0 120<267 884> 516 120<368 856> 1032 120<445 1085> 1416 120<415 1031>
LayerCount: 2
Back
Fore
SplineSet
415 1536 m 1
 1055 1536 l 1
 1031 1416 l 1
 391 1416 l 1
 415 1536 l 1
340 1152 m 1
 1108 1152 l 1
 1085 1032 l 1
 445 1032 l 1
 368 636 l 1
 880 636 l 1
 856 516 l 1
 344 516 l 1
 267 120 l 1
 907 120 l 1
 884 0 l 1
 116 0 l 1
 340 1152 l 1
EndSplineSet
Validated: 1
EndChar
StartChar: Ebreve
Encoding: 276 276 185
GlifName: E_breve
Width: 1024
VWidth: 0
Flags: W
HStem: 0 120<267 884> 516 120<368 856> 1032 120<445 1085> 1264 120<562.222 865.339>
VStem: 390 130<1424.14 1536> 947 128<1462.09 1536>
LayerCount: 2
Back
Fore
SplineSet
947 1536 m 1
 1075 1536 l 1
 1042 1368 870 1264 682 1264 c 0
 513 1264 390 1347 390 1486 c 0
 390 1502 392 1519 395 1536 c 1
 523 1536 l 1
 521 1526 520 1517 520 1508 c 0
 520 1436 578 1384 705 1384 c 0
 848 1384 930 1450 947 1536 c 1
340 1152 m 1
 1108 1152 l 1
 1085 1032 l 1
 445 1032 l 1
 368 636 l 1
 880 636 l 1
 856 516 l 1
 344 516 l 1
 267 120 l 1
 907 120 l 1
 884 0 l 1
 116 0 l 1
 340 1152 l 1
EndSplineSet
Validated: 1
EndChar
StartChar: ebreve
Encoding: 277 277 186
GlifName: ebreve
Width: 1024
VWidth: 0
Flags: W
HStem: -16 120<342.044 756.006> 512 120<337 786.671> 920 120<471.639 742.021> 1136 120<532.629 842.307> 1388 20G<368.5 498 913.5 1050>
VStem: 153 130<165.081 510.253> 365 130<1294.81 1408> 792 129<634.658 869.489> 922 128<1328.27 1408>
LayerCount: 3
Back
Fore
SplineSet
792 745 m 4
 792 857 733 920 615 920 c 4
 518 920 439 874 396 799 c 4
 366 751 352 693 337 632 c 5
 781 632 l 5
 787 672 792 710 792 745 c 4
283 301 m 4
 283 173 347 104 476 104 c 4
 569 104 673 113 780 125 c 5
 757 5 l 5
 651 -7 553 -16 453 -16 c 4
 253 -16 153 103 153 280 c 4
 153 351 168 427 184 512 c 4
 208 637 230 747 284 839 c 4
 348 951 476 1040 638 1040 c 4
 811 1040 921 941 921 761 c 4
 921 687 906 604 888 512 c 5
 312 512 l 5
 298 438 283 364 283 301 c 4
922 1408 m 5
 1050 1408 l 5
 1017 1240 845 1136 657 1136 c 4
 488 1136 365 1219 365 1358 c 4
 365 1374 367 1391 370 1408 c 5
 498 1408 l 5
 496 1398 495 1388 495 1379 c 4
 495 1307 553 1256 680 1256 c 4
 823 1256 905 1322 922 1408 c 5
EndSplineSet
Layer: 2
EndChar
StartChar: Edotaccent
Encoding: 278 278 187
GlifName: E_dotaccent
Width: 1024
VWidth: 0
Flags: W
HStem: 0 120<267 884> 516 120<368 856> 1032 120<445 1085> 1328 224<643.272 788.454>
VStem: 601 229<1369.94 1508.79>
LayerCount: 3
Back
Fore
SplineSet
738 1552 m 0
 795 1552 830 1517 830 1465 c 0
 830 1457 830 1449 828 1440 c 0
 815 1374 760 1328 694 1328 c 0
 637 1328 601 1363 601 1415 c 0
 601 1423 602 1431 604 1440 c 0
 617 1506 672 1552 738 1552 c 0
340 1152 m 1
 1108 1152 l 1
 1085 1032 l 1
 445 1032 l 1
 368 636 l 1
 880 636 l 1
 856 516 l 1
 344 516 l 1
 267 120 l 1
 907 120 l 1
 884 0 l 1
 116 0 l 1
 340 1152 l 1
EndSplineSet
Validated: 1
Layer: 2
EndChar
StartChar: edotaccent
Encoding: 279 279 188
GlifName: edotaccent
Width: 1024
VWidth: 0
Flags: W
HStem: -16 120<342.044 756.006> 512 120<337 786.671> 920 120<471.639 742.021> 1200 224<616.046 766.478>
VStem: 153 130<165.081 510.253> 577 229<1238.36 1385.64> 792 129<634.658 869.489>
LayerCount: 3
Back
Fore
SplineSet
792 745 m 4xfa
 792 857 733 920 615 920 c 4
 518 920 439 874 396 799 c 4
 366 751 352 693 337 632 c 5
 781 632 l 5
 787 672 792 710 792 745 c 4xfa
283 301 m 4
 283 173 347 104 476 104 c 4
 569 104 673 113 780 125 c 5
 757 5 l 5
 651 -7 553 -16 453 -16 c 4
 253 -16 153 103 153 280 c 4
 153 351 168 427 184 512 c 4
 208 637 230 747 284 839 c 4
 348 951 476 1040 638 1040 c 4
 811 1040 921 941 921 761 c 4
 921 687 906 604 888 512 c 5
 312 512 l 5
 298 438 283 364 283 301 c 4
577 1287 m 0xfc
 577 1369 642 1424 713 1424 c 0
 770 1424 806 1389 806 1337 c 0
 806 1255 740 1200 669 1200 c 0
 612 1200 577 1235 577 1287 c 0xfc
EndSplineSet
Layer: 2
EndChar
StartChar: eogonek
Encoding: 281 281 164
GlifName: eogonek
Width: 1024
VWidth: 0
Flags: W
HStem: -395 120<591.922 681> -16 120<346.93 603.636> 512 120<337 786.442> 920 120<476.635 737.425>
VStem: 153 130<166.803 510.253> 457 131<-271.366 -114.335> 792 129<634.635 867.249>
LayerCount: 3
Back
Fore
SplineSet
283 301 m 4
 283 173 347 104 476 104 c 4
 569 104 673 113 780 125 c 5
 757 5 l 5
 657 -55 588 -115 588 -216 c 4
 588 -259 617 -275 644 -275 c 4
 665 -275 685 -272 705 -263 c 5
 681 -384 l 5
 655 -393 628 -395 600 -395 c 4
 530 -395 457 -336 457 -240 c 4
 457 -127 536 -57 606 -10 c 5
 554 -14 504 -16 453 -16 c 4
 250 -16 153 103 153 280 c 4
 153 351 168 427 184 512 c 4
 208 637 230 747 284 839 c 4
 348 951 476 1040 638 1040 c 4
 831 1040 921 921 921 761 c 4
 921 687 906 604 888 512 c 5
 312 512 l 5
 298 438 283 364 283 301 c 4
792 745 m 4
 792 857 733 920 615 920 c 4
 518 920 440 874 396 799 c 4
 366 751 352 693 337 632 c 5
 781 632 l 5
 787 671 792 710 792 745 c 4
EndSplineSet
Validated: 1
Layer: 2
EndChar
StartChar: Ecaron
Encoding: 282 282 189
GlifName: E_caron
Width: 1024
VWidth: 0
Flags: W
HStem: 0 120<267 884> 644 120<393 881> 1160 120<469 1109> 1408 21G<611.625 816.031>
LayerCount: 3
Back
Fore
SplineSet
365 1280 m 1
 1133 1280 l 1
 1109 1160 l 1
 469 1160 l 1
 393 764 l 1
 905 764 l 1
 881 644 l 1
 369 644 l 1
 267 120 l 1
 907 120 l 1
 884 0 l 1
 116 0 l 1
 365 1280 l 1
631 1408 m 1
 383 1664 l 1
 541 1664 l 1
 728 1500 l 1
 977 1664 l 1
 1135 1664 l 1
 789 1408 l 1
 631 1408 l 1
EndSplineSet
Validated: 1
Layer: 2
EndChar
StartChar: Gcircumflex
Encoding: 284 284 191
GlifName: G_circumflex
Width: 1024
VWidth: 0
Flags: W
HStem: -16 120<342.138 778.749> 520 120<624 857> 1048 120<510.039 1071.46>
VStem: 66 130<248.258 657.079>
LayerCount: 3
Back
Fore
SplineSet
781 128 m 5
 857 520 l 5
 601 520 l 5
 624 640 l 5
 1008 640 l 5
 890 33 l 5
 768 8 644 -16 500 -16 c 4
 214 -16 66 143 66 407 c 4
 66 459 72 516 84 576 c 4
 155 939 387 1168 730 1168 c 4
 878 1168 992 1156 1093 1141 c 5
 1069 1021 l 5
 967 1035 853 1048 707 1048 c 4
 434 1048 269 870 212 576 c 4
 201 522 196 471 196 425 c 4
 196 222 300 104 523 104 c 4
 615 104 699 115 781 128 c 5
656 1536 m 5
 814 1536 l 5
 1061 1280 l 5
 903 1280 l 5
 717 1444 l 5
 467 1280 l 5
 309 1280 l 5
 656 1536 l 5
EndSplineSet
Validated: 1
Layer: 2
EndChar
StartChar: Gbreve
Encoding: 286 286 193
GlifName: G_breve
Width: 1024
VWidth: 0
Flags: W
HStem: -16 120<333.417 778.749> 520 120<624 857> 1048 120<505.025 1071.46> 1264 120<557.629 867.307>
VStem: 66 130<239.99 671.353> 390 130<1422.81 1536> 947 128<1456.27 1536>
LayerCount: 3
Back
Fore
SplineSet
781 128 m 5
 857 520 l 5
 601 520 l 5
 624 640 l 5
 1008 640 l 5
 890 33 l 5
 768 8 644 -16 500 -16 c 4
 214 -16 66 143 66 407 c 4
 66 459 72 516 84 576 c 4
 155 939 387 1168 730 1168 c 4
 878 1168 992 1156 1093 1141 c 5
 1069 1021 l 5
 967 1035 853 1048 707 1048 c 4
 434 1048 269 870 212 576 c 4
 201 522 196 471 196 425 c 4
 196 222 300 104 523 104 c 4
 615 104 699 115 781 128 c 5
947 1536 m 5
 1075 1536 l 5
 1042 1368 870 1264 682 1264 c 4
 513 1264 390 1347 390 1486 c 4
 390 1502 392 1519 395 1536 c 5
 523 1536 l 5
 521 1526 520 1516 520 1507 c 4
 520 1435 578 1384 705 1384 c 4
 848 1384 930 1450 947 1536 c 5
EndSplineSet
Layer: 2
EndChar
StartChar: Gdotaccent
Encoding: 288 288 195
GlifName: G_dotaccent
Width: 1024
VWidth: 0
Flags: W
HStem: -16 120<333.417 778.749> 520 120<624 857> 1048 120<505.025 1071.46> 1328 224<640.522 790.954>
VStem: 66 130<239.99 671.353> 601 229<1366.36 1513.64>
LayerCount: 3
Back
Fore
SplineSet
781 128 m 5
 857 520 l 5
 601 520 l 5
 624 640 l 5
 1008 640 l 5
 890 33 l 5
 768 8 644 -16 500 -16 c 4
 214 -16 66 143 66 407 c 0
 66 459 72 516 84 576 c 4
 155 939 387 1168 730 1168 c 4
 878 1168 992 1156 1093 1141 c 5
 1069 1021 l 5
 967 1035 853 1048 707 1048 c 4
 434 1048 269 870 212 576 c 4
 201 522 196 471 196 425 c 0
 196 222 300 104 523 104 c 4
 615 104 699 115 781 128 c 5
601 1415 m 0
 601 1497 667 1552 738 1552 c 4
 795 1552 830 1517 830 1465 c 0
 830 1383 765 1328 694 1328 c 4
 637 1328 601 1363 601 1415 c 0
EndSplineSet
Layer: 2
EndChar
StartChar: gdotaccent
Encoding: 289 289 196
GlifName: gdotaccent
Width: 1024
VWidth: 0
Flags: W
HStem: -400 120<105.398 484.762> -16 120<338.033 526.436> 920 120<482.219 700.781> 1004 20G<823.16 955> 1200 224<618.375 764.125>
VStem: 152 133<161.603 547.126> 577 229<1242.37 1383.87>
LayerCount: 2
Back
Fore
SplineSet
754 717 m 0xee
 754 825 712 920 599 920 c 4
 503 920 428 847 387 768 c 4
 347 692 330 604 312 512 c 4
 298 440 285 370 285 307 c 0
 285 199 327 104 440 104 c 4
 536 104 611 177 652 256 c 4
 692 332 710 420 728 512 c 4
 742 584 754 654 754 717 c 0xee
397 -16 m 4
 249 -16 152 96 152 277 c 0
 152 349 167 423 184 512 c 4
 206 624 223 713 268 803 c 4
 344 953 471 1040 602 1040 c 4xee
 685 1040 752 991 793 899 c 5
 803 899 l 5
 827 1024 l 5
 955 1024 l 5xde
 762 32 l 6
 750 -28 729 -139 648 -241 c 4
 575 -333 466 -400 318 -400 c 4
 228 -400 147 -393 85 -385 c 5
 108 -265 l 5
 170 -272 253 -280 342 -280 c 4
 438 -280 501 -241 549 -182 c 4
 607 -111 625 -15 634 32 c 6
 652 125 l 5
 642 125 l 5
 565 33 480 -16 397 -16 c 4
577 1287 m 0
 577 1369 642 1424 713 1424 c 0
 770 1424 806 1389 806 1337 c 0
 806 1255 740 1200 669 1200 c 0
 612 1200 577 1235 577 1287 c 0
EndSplineSet
Validated: 1
EndChar
StartChar: uni0122
Encoding: 290 290 271
GlifName: uni0122
Width: 1024
VWidth: 0
Flags: W
HStem: -528 120<293 397.284> -16 120<340.683 778.074> 648 120<649 882> 1304 120<569.533 1086.42>
VStem: 72 131<243.423 729.688>
LayerCount: 3
Back
Fore
SplineSet
500 -16 m 4
 206 -16 72 156 72 410 c 0
 72 509 90 609 109 704 c 4
 130 814 155 930 206 1044 c 4
 306 1267 516 1424 810 1424 c 4
 915 1424 1017 1415 1107 1402 c 5
 1083 1282 l 5
 989 1295 882 1304 786 1304 c 4
 556 1304 404 1189 325 1016 c 4
 281 919 258 813 237 704 c 4
 219 610 203 518 203 432 c 0
 203 233 295 104 523 104 c 4
 604 104 693 113 781 128 c 5
 882 648 l 5
 626 648 l 5
 649 768 l 5
 1033 768 l 5
 891 34 l 5
 769 6 634 -16 500 -16 c 4
583 -233 m 2
 571 -293 558 -363 492 -433 c 0
 439 -490 359 -528 269 -528 c 1
 293 -408 l 1
 340 -408 375 -391 401 -363 c 0
 436 -326 445 -283 455 -233 c 2
 475 -128 l 1
 603 -128 l 1
 583 -233 l 2
EndSplineSet
Layer: 2
EndChar
StartChar: uni0123
Encoding: 291 291 272
GlifName: uni0123
Width: 1024
VWidth: 0
Flags: W
HStem: -400 120<105.398 486.218> -16 120<336.603 530.251> 920 120<480.488 703.776> 1004 20G<823.16 955> 1432 120<673.716 778>
VStem: 152 133<159.918 563.091>
LayerCount: 3
Back
Fore
SplineSet
754 717 m 0xec
 754 825 712 920 599 920 c 4
 503 920 428 847 387 768 c 4
 347 692 330 604 312 512 c 4
 298 440 285 370 285 307 c 0
 285 199 327 104 440 104 c 4
 536 104 611 177 652 256 c 4
 692 332 710 420 728 512 c 4
 742 584 754 654 754 717 c 0xec
397 -16 m 4
 249 -16 152 96 152 277 c 0
 152 349 167 423 184 512 c 4
 206 624 223 713 268 803 c 4
 344 953 471 1040 602 1040 c 4xec
 685 1040 752 991 793 899 c 5
 803 899 l 5
 827 1024 l 5
 955 1024 l 5xdc
 762 32 l 6
 750 -28 729 -139 648 -241 c 4
 575 -333 466 -400 318 -400 c 4
 228 -400 147 -393 85 -385 c 5
 108 -265 l 5
 170 -272 253 -280 342 -280 c 4
 438 -280 501 -241 549 -182 c 4
 607 -111 625 -15 634 32 c 6
 652 125 l 5
 642 125 l 5
 565 33 480 -16 397 -16 c 4
488 1257 m 2
 500 1317 513 1387 579 1457 c 0
 632 1514 712 1552 802 1552 c 1
 778 1432 l 1
 731 1432 696 1415 670 1387 c 0
 635 1350 626 1307 616 1257 c 2
 596 1152 l 1
 468 1152 l 1
 488 1257 l 2
EndSplineSet
Layer: 2
EndChar
StartChar: Hcircumflex
Encoding: 292 292 220
GlifName: H_circumflex
Width: 1024
VWidth: 0
Flags: W
HStem: 0 21G<-12 119.899 756 887.889> 513 120<239 856>
LayerCount: 3
Back
Fore
SplineSet
656 1536 m 1
 814 1536 l 1
 1061 1280 l 1
 903 1280 l 1
 717 1444 l 1
 467 1280 l 1
 309 1280 l 1
 656 1536 l 1
212 1152 m 1
 340 1152 l 1
 239 633 l 1
 879 633 l 1
 980 1152 l 1
 1108 1152 l 1
 884 0 l 1
 756 0 l 1
 856 513 l 1
 216 513 l 1
 116 0 l 1
 -12 0 l 1
 212 1152 l 1
EndSplineSet
Validated: 1
Layer: 2
EndChar
StartChar: Hbar
Encoding: 294 294 222
GlifName: H_bar
Width: 1024
VWidth: 0
Flags: W
HStem: 0 21G<-12 119.9 756 887.893> 641 120<264 881> 1156 120<108 213 364 981 1132 1237> 1388 20G<258.061 390 1026.06 1158>
LayerCount: 3
Back
Fore
SplineSet
262 1408 m 1
 390 1408 l 1
 364 1276 l 1
 1004 1276 l 1
 1030 1408 l 1
 1158 1408 l 1
 1132 1276 l 1
 1260 1276 l 1
 1237 1156 l 1
 1109 1156 l 1
 884 0 l 1
 756 0 l 1
 881 641 l 1
 241 641 l 1
 116 0 l 1
 -12 0 l 1
 213 1156 l 1
 85 1156 l 1
 108 1276 l 1
 236 1276 l 1
 262 1408 l 1
341 1156 m 1
 264 761 l 1
 904 761 l 1
 981 1156 l 1
 341 1156 l 1
EndSplineSet
Validated: 1
Layer: 2
EndChar
StartChar: Itilde
Encoding: 296 296 224
GlifName: I_tilde
Width: 1024
VWidth: 0
Flags: W
HStem: 0 120<139 395 523 756> 1032 120<340 573 701 957> 1284 120<770.927 897.096> 1412 120<522.729 648.704>
LayerCount: 2
Back
Fore
SplineSet
582 1412 m 0
 531 1412 507 1353 494 1299 c 1
 367 1305 l 1
 394 1423 477 1532 606 1532 c 0
 752 1532 760 1404 837 1404 c 0
 888 1404 913 1463 926 1517 c 1
 1053 1511 l 1
 1027 1395 943 1284 814 1284 c 0
 668 1284 659 1412 582 1412 c 0
980 1152 m 1
 957 1032 l 1
 701 1032 l 1
 523 120 l 1
 779 120 l 1
 756 0 l 1
 116 0 l 1
 139 120 l 1
 395 120 l 1
 573 1032 l 1
 317 1032 l 1
 340 1152 l 1
 980 1152 l 1
EndSplineSet
Validated: 1
EndChar
StartChar: Imacron
Encoding: 298 298 226
GlifName: I_macron
Width: 1024
VWidth: 0
Flags: W
HStem: 0 120<139 395 523 756> 1032 120<340 573 701 957> 1416 120<415 1031>
LayerCount: 2
Back
Fore
SplineSet
415 1536 m 1
 1055 1536 l 1
 1031 1416 l 1
 391 1416 l 1
 415 1536 l 1
980 1152 m 1
 957 1032 l 1
 701 1032 l 1
 523 120 l 1
 779 120 l 1
 756 0 l 1
 116 0 l 1
 139 120 l 1
 395 120 l 1
 573 1032 l 1
 317 1032 l 1
 340 1152 l 1
 980 1152 l 1
EndSplineSet
Validated: 1
EndChar
StartChar: imacron
Encoding: 299 299 227
GlifName: imacron
Width: 1024
VWidth: 0
Flags: W
HStem: 0 120<139 395 523 756> 904 120<315 548> 1288 120<390 1006>
LayerCount: 3
Back
Fore
SplineSet
390 1408 m 1
 1030 1408 l 1
 1006 1288 l 1
 366 1288 l 1
 390 1408 l 1
116 0 m 1
 139 120 l 1
 395 120 l 1
 548 904 l 1
 292 904 l 1
 315 1024 l 1
 699 1024 l 1
 523 120 l 1
 779 120 l 1
 756 0 l 1
 116 0 l 1
EndSplineSet
Validated: 1
Layer: 2
EndChar
StartChar: iogonek
Encoding: 303 303 231
GlifName: iogonek
Width: 1024
VWidth: 0
Flags: W
HStem: -400 120<469.12 682.764> 0 120<139 395 523 628> 904 120<315 548> 1200 224<584.046 734.478>
VStem: 329 131<-265.802 -143.182> 545 229<1238.36 1385.64>
LayerCount: 3
Back
Fore
SplineSet
545 1287 m 4
 545 1369 610 1424 681 1424 c 4
 738 1424 774 1389 774 1337 c 4
 774 1255 708 1200 637 1200 c 4
 580 1200 545 1235 545 1287 c 4
573 -280 m 4
 619 -280 664 -270 705 -260 c 5
 682 -383 l 5
 640 -391 595 -400 549 -400 c 4
 444 -400 329 -336 329 -233 c 4
 329 -59 554 -63 628 0 c 5
 116 0 l 5
 139 120 l 5
 395 120 l 5
 548 904 l 5
 292 904 l 5
 315 1024 l 5
 699 1024 l 5
 523 120 l 5
 779 120 l 5
 756 0 l 5
 697 -92 460 -101 460 -211 c 4
 460 -261 520 -280 573 -280 c 4
EndSplineSet
Layer: 2
EndChar
StartChar: Idotaccent
Encoding: 304 304 232
GlifName: I_dotaccent
Width: 1024
VWidth: 0
Flags: W
HStem: 0 120<139 395 523 756> 1032 120<340 573 701 957> 1328 224<642.875 788.625>
VStem: 601 229<1368.13 1509.63>
LayerCount: 3
Back
Fore
SplineSet
601 1415 m 4
 601 1497 667 1552 738 1552 c 4
 795 1552 830 1517 830 1465 c 4
 830 1383 765 1328 694 1328 c 4
 637 1328 601 1363 601 1415 c 4
980 1152 m 5
 957 1032 l 5
 701 1032 l 5
 523 120 l 5
 779 120 l 5
 756 0 l 5
 116 0 l 5
 139 120 l 5
 395 120 l 5
 573 1032 l 5
 317 1032 l 5
 340 1152 l 5
 980 1152 l 5
EndSplineSet
Validated: 1
Layer: 2
EndChar
StartChar: dotlessi
Encoding: 305 305 233
GlifName: dotlessi
Width: 1024
VWidth: 0
Flags: W
HStem: 0 21G<436 567.888> 904 120<379.046 611.72>
VStem: 355.72 407.326
AnchorPoint: "top" 699.046 1024 basechar 0
LayerCount: 3
Back
Fore
SplineSet
436 0 m 5
 611.719726562 904 l 5
 355.719726562 904 l 5
 379.045898438 1024 l 5
 763.045898438 1024 l 5
 564 0 l 5
 436 0 l 5
EndSplineSet
Layer: 2
EndChar
StartChar: ij
Encoding: 307 307 235
GlifName: ij
Width: 1024
VWidth: 0
Flags: W
HStem: -400 120<188.618 515.201> 0 120<11 139 267 372> 904 120<187 292 699 804> 1200 224<330.375 476.125 842.375 988.125>
VStem: 289 229<1242.37 1383.87> 801 229<1242.37 1383.87>
LayerCount: 3
Back
Fore
SplineSet
192 -265 m 5
 245 -273 314 -280 382 -280 c 4
 449 -280 504 -256 543 -218 c 4
 596 -166 608 -102 625 -14 c 6
 804 904 l 5
 676 904 l 5
 699 1024 l 5
 955 1024 l 5
 751 -24 l 6
 733 -115 715 -210 631 -292 c 4
 567 -355 474 -400 368 -400 c 4
 293 -400 227 -394 169 -385 c 5
 192 -265 l 5
801 1287 m 4
 801 1369 866 1424 937 1424 c 4
 994 1424 1030 1389 1030 1337 c 4
 1030 1255 964 1200 893 1200 c 4
 836 1200 801 1235 801 1287 c 4
289 1287 m 4
 289 1369 354 1424 425 1424 c 4
 482 1424 518 1389 518 1337 c 4
 518 1255 452 1200 381 1200 c 4
 324 1200 289 1235 289 1287 c 4
-12 0 m 5
 11 120 l 5
 139 120 l 5
 292 904 l 5
 164 904 l 5
 187 1024 l 5
 443 1024 l 5
 267 120 l 5
 395 120 l 5
 372 0 l 5
 -12 0 l 5
EndSplineSet
Validated: 1
Layer: 2
EndChar
StartChar: Jcircumflex
Encoding: 308 308 236
GlifName: J_circumflex
Width: 1024
VWidth: 0
Flags: W
HStem: -16 120<137.416 551.301> 1032 120<340 829>
LayerCount: 3
Back
Fore
SplineSet
656 1536 m 1
 814 1536 l 1
 1061 1280 l 1
 903 1280 l 1
 717 1444 l 1
 467 1280 l 1
 309 1280 l 1
 656 1536 l 1
856 512 m 2
 832 391 810 286 754 193 c 0
 685 78 560 -16 391 -16 c 0
 308 -16 211 -1 89 25 c 1
 113 148 l 1
 236 121 338 104 414 104 c 0
 515 104 590 152 642 235 c 0
 688 308 708 410 728 512 c 2
 829 1032 l 1
 317 1032 l 1
 340 1152 l 1
 553 1152 767 1152 980 1152 c 1
 856 512 l 2
EndSplineSet
Validated: 1
Layer: 2
EndChar
StartChar: Lcaron
Encoding: 317 317 276
GlifName: L_caron
Width: 1024
VWidth: 0
Flags: W
HStem: 0 120<267 884> 1024 21G<827 958.906> 1388 20G<386.108 518 898.094 1030>
LayerCount: 3
Back
Fore
SplineSet
116 0 m 1
 390 1408 l 1
 518 1408 l 1
 267 120 l 1
 907 120 l 1
 884 0 l 1
 116 0 l 1
902 1408 m 1
 1030 1408 l 1
 955 1024 l 1
 827 1024 l 1
 902 1408 l 1
EndSplineSet
Validated: 1
Layer: 2
EndChar
StartChar: lcaron
Encoding: 318 318 277
GlifName: lcaron
Width: 1024
VWidth: 0
Flags: W
HStem: -16 120<303.125 498> 1024 21G<827 958.906> 1388 20G<386.103 518 898.094 1030>
VStem: 158 130<119.831 340.044>
LayerCount: 2
Back
Fore
SplineSet
288 203 m 0
 288 139 322 104 392 104 c 4
 434 104 484 106 521 109 c 5
 498 -11 l 5
 460 -13 414 -16 359 -16 c 4
 287 -16 233 9 199 52 c 4
 167 93 158 138 158 181 c 0
 158 217 165 251 170 279 c 6
 390 1408 l 5
 518 1408 l 5
 298 279 l 6
 293 253 288 227 288 203 c 0
902 1408 m 1
 1030 1408 l 1
 955 1024 l 1
 827 1024 l 1
 902 1408 l 1
EndSplineSet
Validated: 1
EndChar
StartChar: ldot
Encoding: 320 320 283
GlifName: ldot
Width: 1024
VWidth: 0
Flags: W
HStem: -16 120<431.125 626> 720 224<780.375 926.625> 1388 20G<514.103 646>
VStem: 286 130<119.831 340.044> 739 229<760.133 903.867>
LayerCount: 3
Back
Fore
SplineSet
416 203 m 0
 416 139 450 104 520 104 c 4
 562 104 612 106 649 109 c 5
 626 -11 l 5
 588 -13 542 -16 487 -16 c 4
 415 -16 361 9 327 52 c 4
 295 93 286 138 286 181 c 0
 286 217 293 251 298 279 c 6
 518 1408 l 5
 646 1408 l 5
 426 279 l 6
 421 253 416 227 416 203 c 0
739 807 m 0
 739 889 804 944 875 944 c 0
 932 944 968 909 968 857 c 0
 968 775 903 720 832 720 c 0
 775 720 739 755 739 807 c 0
EndSplineSet
Validated: 1
Layer: 2
EndChar
StartChar: Lslash
Encoding: 321 321 284
GlifName: L_slash
Width: 1024
VWidth: 0
Flags: W
HStem: 0 120<395 884> 1388 20G<514.104 646>
LayerCount: 3
Back
Fore
SplineSet
45 467 m 5
 375 674 l 5
 518 1408 l 1
 646 1408 l 1
 521 765 l 5
 771 922 l 5
 827 825 l 5
 491 614 l 5
 395 120 l 1
 907 120 l 1
 884 0 l 1
 244 0 l 1
 346 523 l 5
 95 366 l 5
 45 467 l 5
EndSplineSet
Validated: 1
Layer: 2
EndChar
StartChar: lslash
Encoding: 322 322 285
GlifName: lslash
Width: 1024
VWidth: 0
Flags: W
HStem: -16 120<557.916 757.664> 1388 20G<642.104 774>
VStem: 414 130<118.449 333.656>
LayerCount: 3
Back
Fore
SplineSet
544 203 m 0
 544 139 578 104 648 104 c 4
 685 104 737 113 780 121 c 5
 756 -2 l 5
 712 -9 665 -16 615 -16 c 4
 543 -16 489 9 455 52 c 4
 423 93 414 138 414 181 c 0
 414 217 421 251 426 279 c 6
 474 523 l 5
 223 366 l 5
 173 467 l 5
 503 674 l 5
 646 1408 l 5
 774 1408 l 5
 649 765 l 5
 899 922 l 5
 955 825 l 5
 619 614 l 5
 554 279 l 6
 549 253 544 227 544 203 c 0
EndSplineSet
Layer: 2
EndChar
StartChar: Ncaron
Encoding: 327 327 242
GlifName: N_caron
Width: 1024
VWidth: 0
Flags: W
HStem: 0 21G<-12 119.885 746.51 887.889>
LayerCount: 3
Back
Fore
SplineSet
606 1280 m 1
 359 1536 l 1
 517 1536 l 1
 703 1372 l 1
 953 1536 l 1
 1111 1536 l 1
 764 1280 l 1
 606 1280 l 1
116 0 m 1
 -12 0 l 1
 212 1152 l 1
 339 1152 l 1
 787 210 l 1
 797 210 l 1
 980 1152 l 1
 1108 1152 l 1
 884 0 l 1
 756 0 l 1
 309 942 l 1
 299 942 l 1
 116 0 l 1
EndSplineSet
Validated: 1
Layer: 2
EndChar
StartChar: obreve
Encoding: 335 335 250
GlifName: obreve
Width: 1024
VWidth: 0
Flags: W
HStem: -16 120<340.718 586.231> 920 120<484.769 730.044> 1136 120<537.222 840.339> 1388 20G<368.5 498 913.5 1050>
VStem: 154 129<161.363 554.63> 365 130<1296.14 1408> 787 129<457.165 862.431>
LayerCount: 2
Back
Fore
SplineSet
433 -16 m 4
 260 -16 154 96 154 278 c 4
 154 347 167 425 184 512 c 4
 213 662 246 788 320 880 c 4
 400 978 511 1040 638 1040 c 4
 811 1040 916 927 916 746 c 4
 916 677 905 599 888 512 c 4
 859 362 825 236 751 144 c 4
 671 46 560 -16 433 -16 c 4
787 724 m 4
 787 843 736 920 615 920 c 4
 531 920 466 881 420 822 c 4
 359 744 335 629 312 512 c 4
 298 438 283 364 283 300 c 4
 283 181 335 104 456 104 c 4
 540 104 605 143 651 202 c 4
 712 280 737 395 760 512 c 4
 774 586 787 660 787 724 c 4
922 1408 m 1
 1050 1408 l 1
 1017 1240 845 1136 657 1136 c 0
 488 1136 365 1219 365 1358 c 0
 365 1374 367 1391 370 1408 c 1
 498 1408 l 1
 496 1398 495 1389 495 1380 c 0
 495 1308 553 1256 680 1256 c 0
 823 1256 905 1322 922 1408 c 1
EndSplineSet
Validated: 1
EndChar
StartChar: ohungarumlaut
Encoding: 337 337 252
GlifName: ohungarumlaut
Width: 1024
VWidth: 0
Flags: W
HStem: -16 120<335.792 590.239> 920 120<480.761 734.952> 1388 20G<643.125 798 899.125 1054>
VStem: 154 129<159.741 569.539> 787 129<445.056 867.461>
LayerCount: 3
Back
Fore
SplineSet
433 -16 m 4
 260 -16 154 96 154 278 c 4
 154 347 167 425 184 512 c 4
 213 662 246 788 320 880 c 4
 400 978 511 1040 638 1040 c 4
 811 1040 916 927 916 746 c 4
 916 677 905 599 888 512 c 4
 859 362 825 236 751 144 c 4
 671 46 560 -16 433 -16 c 4
787 724 m 4
 787 843 736 920 615 920 c 4
 531 920 466 881 420 822 c 4
 359 744 335 629 312 512 c 4
 298 438 283 364 283 300 c 4
 283 181 335 104 456 104 c 4
 540 104 605 143 651 202 c 4
 712 280 737 395 760 512 c 4
 774 586 787 660 787 724 c 4
444 1152 m 1
 660 1408 l 1
 798 1408 l 1
 582 1152 l 1
 444 1152 l 1
700 1152 m 1
 916 1408 l 1
 1054 1408 l 1
 838 1152 l 1
 700 1152 l 1
EndSplineSet
Layer: 2
EndChar
StartChar: OE
Encoding: 338 338 253
GlifName: O_E_
Width: 1024
VWidth: 0
Flags: W
HStem: 0 120<261.231 523 651 884> 644 120<777 1009> 1288 120<475.213 750 878 1134>
VStem: 65 130<189.321 676.936>
CounterMasks: 1 e0
LayerCount: 2
Back
Fore
SplineSet
195 369 m 4
 195 219 229 120 395 120 c 6
 523 120 l 5
 750 1288 l 5
 750 1288 702 1288 622 1288 c 4
 482 1288 404 1214 352 1101 c 4
 294 976 264 841 237 704 c 4
 215 589 195 476 195 369 c 4
372 0 m 6
 150 0 65 126 65 344 c 4
 65 459 87 589 109 704 c 4
 171 1021 262 1408 646 1408 c 6
 1158 1408 l 5
 1134 1288 l 5
 878 1288 l 5
 777 764 l 5
 1033 764 l 5
 1009 644 l 5
 753 644 l 5
 651 120 l 5
 907 120 l 5
 884 0 l 5
 372 0 l 6
EndSplineSet
Validated: 1
EndChar
StartChar: oe
Encoding: 339 339 254
GlifName: oe
Width: 1024
VWidth: 0
Flags: W
HStem: -16 120<184.904 326.211 604.206 884.763> 512 120<624 916.815> 920 120<327.918 471.597 740.102 899.338>
VStem: 23 131<131.468 557.783> 925 126<634.542 900.018>
LayerCount: 3
Back
Fore
SplineSet
248 104 m 4
 310 104 367 186 392 238 c 4
 430 317 454 417 472 512 c 4
 487 591 501 674 501 745 c 4
 501 861 459 920 407 920 c 4
 344 920 290 841 265 790 c 4
 226 710 203 608 184 512 c 4
 169 433 154 350 154 279 c 4
 154 203 178 104 248 104 c 4
852 1040 m 4
 999 1040 1051 906 1051 776 c 4
 1051 708 1038 641 1026 577 c 6
 1014 512 l 5
 600 512 l 5
 591 469 l 6
 578 403 567 335 567 277 c 4
 567 177 600 104 712 104 c 4
 768 104 845 119 909 129 c 5
 885 7 l 5
 820 -3 748 -16 686 -16 c 4
 581 -16 503 34 473 148 c 5
 463 148 l 5
 417 61 339 -16 225 -16 c 4
 77 -16 23 123 23 255 c 4
 23 333 38 422 56 512 c 4
 80 636 107 755 162 852 c 4
 211 938 310 1040 430 1040 c 4
 550 1040 589 954 600 863 c 5
 610 863 l 5
 676 973 757 1040 852 1040 c 4
925 774 m 4
 925 850 899 920 829 920 c 4
 756 920 700 842 668 773 c 4
 647 729 635 682 624 632 c 5
 910 632 l 5
 919 682 925 731 925 774 c 4
EndSplineSet
Layer: 2
EndChar
StartChar: Racute
Encoding: 340 340 255
GlifName: R_acute
Width: 1024
VWidth: 0
Flags: W
HStem: 0 21G<-12 119.885 653.538 798> 520 120<240 517> 1032 120<317 766.036>
VStem: 811 130<745.477 987.427>
LayerCount: 3
Back
Fore
SplineSet
469 1280 m 1
 685 1536 l 1
 823 1536 l 1
 607 1280 l 1
 469 1280 l 1
614 1032 m 6
 317 1032 l 5
 240 640 l 5
 537 640 l 6
 573 640 606 641 634 647 c 4
 728 668 811 756 811 883 c 4
 811 958 772 1010 707 1025 c 4
 681 1031 650 1032 614 1032 c 6
637 1152 m 6
 675 1152 717 1152 761 1141 c 4
 869 1114 941 1029 941 905 c 4
 941 706 800 572 653 534 c 5
 798 0 l 5
 659 0 l 5
 517 520 l 5
 217 520 l 5
 116 0 l 5
 -12 0 l 5
 212 1152 l 5
 637 1152 l 6
EndSplineSet
Validated: 1
Layer: 2
EndChar
StartChar: racute
Encoding: 341 341 256
GlifName: racute
Width: 1024
VWidth: 0
Flags: W
HStem: 0 21G<116 247.874> 920 120<593.882 932.099> 1004 20G<311.113 443> 1388 20G<771.125 926>
LayerCount: 3
Back
Fore
SplineSet
755 920 m 4xd0
 663 920 586 894 526 847 c 4
 388 740 358 589 336 475 c 6
 244 0 l 5
 116 0 l 5
 315 1024 l 5
 443 1024 l 5xb0
 412 865 l 5
 422 865 l 5
 517 967 623 1040 778 1040 c 4
 844 1040 900 1034 956 1027 c 5
 932 907 l 5
 876 914 820 920 755 920 c 4xd0
572 1152 m 1
 788 1408 l 1
 926 1408 l 1
 710 1152 l 1
 572 1152 l 1
EndSplineSet
Layer: 2
EndChar
StartChar: uni0156
Encoding: 342 342 257
GlifName: uni0156
Width: 1024
VWidth: 0
Flags: W
HStem: -528 120<165 266.375> 0 21G<-7 124.875 664.355 802> 640 120<269 551> 1288 120<371 775.016>
VStem: 854 131<929.94 1212.67>
LayerCount: 3
Back
Fore
SplineSet
121 0 m 5
 -7 0 l 5
 267 1408 l 5
 588 1408 l 6
 665 1408 717 1408 769 1395 c 4
 898 1363 985 1259 985 1109 c 4
 985 906 850 734 681 670 c 5
 802 0 l 5
 668 0 l 5
 551 642 l 5
 518 640 482 640 438 640 c 6
 245 640 l 5
 121 0 l 5
462 760 m 6
 538 760 578 762 616 770 c 4
 745 798 854 927 854 1087 c 4
 854 1188 800 1258 714 1278 c 4
 680 1286 640 1288 564 1288 c 6
 371 1288 l 5
 269 760 l 5
 462 760 l 6
455 -233 m 2
 443 -293 430 -363 364 -433 c 0
 311 -490 231 -528 141 -528 c 1
 165 -408 l 1
 212 -408 247 -391 273 -363 c 0
 308 -326 317 -283 327 -233 c 2
 347 -128 l 1
 475 -128 l 1
 455 -233 l 2
EndSplineSet
Validated: 1
Layer: 2
EndChar
StartChar: Rcaron
Encoding: 344 344 259
GlifName: R_caron
Width: 1024
VWidth: 0
Flags: W
HStem: 0 21G<-12 119.885 653.538 798> 520 120<240 517> 1032 120<317 770.495>
VStem: 811 130<743.407 990.855>
LayerCount: 3
Back
Fore
SplineSet
614 1032 m 6
 317 1032 l 5
 240 640 l 5
 537 640 l 6
 573 640 606 641 634 647 c 4
 728 668 811 756 811 883 c 4
 811 958 772 1010 707 1025 c 4
 681 1031 650 1032 614 1032 c 6
637 1152 m 6
 675 1152 717 1152 761 1141 c 4
 869 1114 941 1029 941 905 c 4
 941 706 800 572 653 534 c 5
 798 0 l 5
 659 0 l 5
 517 520 l 5
 217 520 l 5
 116 0 l 5
 -12 0 l 5
 212 1152 l 5
 637 1152 l 6
478 1280 m 1
 231 1536 l 1
 389 1536 l 1
 575 1372 l 1
 825 1536 l 1
 983 1536 l 1
 636 1280 l 1
 478 1280 l 1
EndSplineSet
Layer: 2
EndChar
StartChar: sacute
Encoding: 347 347 262
GlifName: sacute
Width: 1024
VWidth: 0
Flags: W
HStem: -16 120<136.675 599.739> 920 120<452.619 924.42> 1388 20G<786.125 941>
VStem: 240 130<670.091 847.22> 724 130<224.123 452.698>
LayerCount: 2
Back
Fore
SplineSet
424 -16 m 4
 321 -16 204 -4 117 6 c 5
 140 126 l 5
 223 116 350 104 447 104 c 4
 647 104 724 247 724 349 c 4
 724 410 695 454 653 478 c 4
 576 522 464 499 367 540 c 4
 300 568 240 634 240 729 c 4
 240 895 395 1040 634 1040 c 4
 751 1040 859 1028 944 1019 c 5
 921 899 l 5
 835 908 714 920 611 920 c 4
 442 920 370 832 370 751 c 4
 370 702 400 667 437 652 c 4
 523 616 639 640 736 584 c 4
 806 544 854 470 854 371 c 4
 854 172 681 -16 424 -16 c 4
587 1152 m 1
 803 1408 l 1
 941 1408 l 1
 725 1152 l 1
 587 1152 l 1
EndSplineSet
Validated: 1
EndChar
StartChar: scircumflex
Encoding: 349 349 264
GlifName: scircumflex
Width: 1024
VWidth: 0
Flags: W
HStem: -16 120<136.675 599.739> 920 120<452.619 924.42> 1398 20G<601.891 806.297>
VStem: 240 130<670.091 847.22> 724 130<224.123 452.698>
LayerCount: 2
Back
Fore
SplineSet
-1031 1170 m 1048,0,-1
424 -16 m 4,1,-1
 321 -16 204 -4 117 6 c 5,4,-1
 140 126 l 5,5,-1
 223 116 350 104 447 104 c 4,8,-1
 647 104 724 247 724 349 c 4,11,-1
 724 410 695 454 653 478 c 4,14,-1
 576 522 464 499 367 540 c 4,17,-1
 300 568 240 634 240 729 c 4,20,-1
 240 895 395 1040 634 1040 c 4,23,-1
 751 1040 859 1028 944 1019 c 5,26,-1
 921 899 l 5,27,-1
 835 908 714 920 611 920 c 4,30,-1
 442 920 370 832 370 751 c 4,33,-1
 370 702 400 667 437 652 c 4,36,-1
 523 616 639 640 736 584 c 4,39,-1
 806 544 854 470 854 371 c 4,42,-1
 854 172 681 -16 424 -16 c 4,1,-1
629 1418 m 1,45,-1
 787 1418 l 1,46,-1
 1034 1162 l 1,47,-1
 876 1162 l 1,48,-1
 690 1326 l 1,49,-1
 440 1162 l 1,50,-1
 282 1162 l 1,51,-1
 629 1418 l 1,45,-1
EndSplineSet
Validated: 1
EndChar
StartChar: Scedilla
Encoding: 350 350 265
GlifName: S_cedilla
Width: 1024
VWidth: 0
Flags: W
HStem: -400 120<188.889 422.598> -16 120<142.213 497> 1304 120<573.885 1099.59>
VStem: 281 130<864.511 1142.92> 867 130<283.842 572.174>
LayerCount: 3
Back
Fore
SplineSet
477 -16 m 4
 343 -16 226 -2 113 16 c 5
 137 139 l 5
 248 121 372 104 500 104 c 4
 719 104 867 261 867 443 c 4
 867 536 820 603 751 632 c 4
 646 678 530 650 411 721 c 4
 332 768 281 855 281 967 c 4
 281 1210 486 1424 757 1424 c 4
 893 1424 1011 1411 1122 1399 c 5
 1098 1278 l 5
 988 1290 858 1304 733 1304 c 4
 546 1304 411 1161 411 989 c 4
 411 913 445 856 497 825 c 4
 585 773 713 788 820 742 c 4
 921 699 997 603 997 465 c 4
 997 232 823 59 629 5 c 5
 608 -105 l 6
 596 -165 583 -235 517 -305 c 4
 464 -362 384 -400 294 -400 c 4
 259 -400 215 -393 170 -383 c 5
 193 -260 l 5
 239 -271 284 -280 318 -280 c 4
 365 -280 400 -263 426 -235 c 4
 461 -198 470 -155 480 -105 c 6
 497 -16 l 5
 490 -16 484 -16 477 -16 c 4
EndSplineSet
Layer: 2
EndChar
StartChar: scedilla
Encoding: 351 351 266
GlifName: scedilla
Width: 1024
VWidth: 0
Flags: W
HStem: -393 120<190.401 424.269> -16 120<136.675 494.26> 920 120<444.636 922.514>
VStem: 240 130<667.081 849.41> 724 130<217.573 456.255>
LayerCount: 3
Back
Fore
SplineSet
609 -98 m 6
 597 -158 583 -228 518 -298 c 4
 465 -355 386 -393 296 -393 c 4
 261 -393 216 -386 171 -376 c 5
 195 -253 l 5
 241 -264 285 -273 319 -273 c 4
 366 -273 401 -256 428 -228 c 4
 463 -191 471 -148 481 -98 c 6
 498 -11 l 5
 474 -14 450 -16 424 -16 c 4
 321 -16 204 -4 117 6 c 5
 140 126 l 5
 223 116 350 104 447 104 c 4
 647 104 724 247 724 349 c 4
 724 410 695 454 653 478 c 4
 576 522 464 499 367 540 c 4
 300 569 240 632 240 730 c 4
 240 895 396 1040 634 1040 c 4
 751 1040 858 1023 942 1009 c 5
 919 889 l 5
 834 902 714 920 611 920 c 4
 444 920 370 834 370 750 c 4
 370 702 401 668 437 652 c 4
 523 616 639 640 736 584 c 4
 806 544 854 470 854 371 c 4
 854 229 766 97 634 31 c 5
 609 -98 l 6
EndSplineSet
Layer: 2
EndChar
StartChar: Scaron
Encoding: 352 352 267
GlifName: S_caron
Width: 1024
VWidth: 0
Flags: W
HStem: -16 120<132.909 694.204> 1047 120<511.564 1050.09>
VStem: 248 127<726.009 927.679> 851 127<240.944 450.085>
LayerCount: 2
Back
Fore
SplineSet
477 -16 m 4
 343 -16 226 -2 113 16 c 5
 137 139 l 5
 248 121 372 104 500 104 c 4
 722 104 851 225 851 353 c 4
 851 427 798 479 726 505 c 4
 620 544 502 515 383 578 c 4
 302 621 248 701 248 804 c 4
 248 1020 457 1167 707 1167 c 4
 843 1167 961 1154 1072 1142 c 5
 1049 1022 l 5
 939 1034 809 1047 684 1047 c 4
 476 1047 375 918 375 815 c 4
 375 756 414 713 470 686 c 4
 560 643 689 659 796 618 c 4
 899 578 978 490 978 363 c 4
 978 135 753 -16 477 -16 c 4
606 1280 m 1
 359 1536 l 1
 517 1536 l 1
 703 1372 l 1
 953 1536 l 1
 1111 1536 l 1
 764 1280 l 1
 606 1280 l 1
EndSplineSet
Validated: 1
EndChar
StartChar: scaron
Encoding: 353 353 268
GlifName: scaron
Width: 1024
VWidth: 0
Flags: W
HStem: -16 120<136.675 607.56> 920 120<446.116 924.42> 1398 20G<332 512.683 895.512 1084>
VStem: 240 130<667.002 848.873> 724 130<217.396 456.255>
LayerCount: 3
Back
Fore
SplineSet
424 -16 m 4
 321 -16 204 -4 117 6 c 5
 140 126 l 5
 223 116 350 104 447 104 c 4
 647 104 724 247 724 349 c 4
 724 410 695 454 653 478 c 4
 576 522 464 499 367 540 c 4
 300 568 240 634 240 729 c 4
 240 895 395 1040 634 1040 c 4
 751 1040 859 1028 944 1019 c 5
 921 899 l 5
 835 908 714 920 611 920 c 4
 442 920 370 832 370 751 c 4
 370 702 400 667 437 652 c 4
 523 616 639 640 736 584 c 4
 806 544 854 470 854 371 c 4
 854 172 681 -16 424 -16 c 4
579 1162 m 1
 332 1418 l 1
 490 1418 l 1
 676 1254 l 1
 926 1418 l 1
 1084 1418 l 1
 737 1162 l 1
 579 1162 l 1
EndSplineSet
Layer: 2
EndChar
StartChar: uni0162
Encoding: 354 354 269
GlifName: uni0162
Width: 1024
VWidth: 0
Flags: W
HStem: -400 120<60.8894 291.558> 1288 120<262 622 750 1134>
LayerCount: 3
Back
Fore
SplineSet
480 -105 m 6
 467 -169 455 -235 389 -305 c 4
 336 -362 256 -400 166 -400 c 4
 131 -400 87 -393 42 -383 c 5
 65 -260 l 5
 111 -271 156 -280 190 -280 c 4
 237 -280 272 -263 298 -235 c 4
 333 -198 342 -156 352 -105 c 6
 622 1288 l 5
 238 1288 l 5
 262 1408 l 5
 1158 1408 l 5
 1134 1288 l 5
 750 1288 l 5
 480 -105 l 6
EndSplineSet
Validated: 1
Layer: 2
EndChar
StartChar: Tcaron
Encoding: 356 356 286
GlifName: T_caron
Width: 1024
VWidth: 0
Flags: W
HStem: 0 21G<372 503.895> 1032 120<212 573 701 1085>
LayerCount: 3
Back
Fore
SplineSet
606 1280 m 1
 359 1536 l 1
 517 1536 l 1
 703 1372 l 1
 953 1536 l 1
 1111 1536 l 1
 764 1280 l 1
 606 1280 l 1
1108 1152 m 1
 1085 1032 l 1
 701 1032 l 1
 500 0 l 1
 372 0 l 1
 573 1032 l 1
 189 1032 l 1
 212 1152 l 1
 1108 1152 l 1
EndSplineSet
Layer: 2
EndChar
StartChar: tcaron
Encoding: 357 357 287
GlifName: tcaron
Width: 1024
VWidth: 0
Flags: W
HStem: -16 120<464.458 757.163> 770 126<162 394 546 906>
VStem: 296 131<141.686 482.109>
LayerCount: 3
Back
Fore
SplineSet
427 246 m 4
 427 149 491 104 594 104 c 4
 658 104 726 112 779 119 c 5
 756 -1 l 5
 697 -9 632 -16 561 -16 c 4
 402 -16 296 70 296 220 c 4
 296 267 305 315 314 360 c 6
 394 770 l 5
 138 770 l 5
 162 896 l 5
 418 896 l 5
 493 1280 l 5
 621 1280 l 5
 546 896 l 5
 930 896 l 5
 906 770 l 5
 522 770 l 5
 444 370 l 6
 435 323 427 282 427 246 c 4
927 1536 m 5
 1055 1536 l 5
 980 1152 l 5
 852 1152 l 5
 927 1536 l 5
EndSplineSet
Layer: 2
EndChar
StartChar: Tbar
Encoding: 358 358 288
GlifName: T_bar
Width: 1024
VWidth: 0
Flags: W
HStem: 0 21G<372 503.882> 644 120<265 497 649 881> 1288 120<262 622 750 1134>
LayerCount: 3
Back
Fore
SplineSet
1158 1408 m 1
 1134 1288 l 1
 750 1288 l 1
 649 764 l 1
 905 764 l 1
 881 644 l 1
 625 644 l 1
 500 0 l 1
 372 0 l 1
 497 644 l 1
 241 644 l 1
 265 764 l 1
 521 764 l 1
 622 1288 l 1
 238 1288 l 1
 262 1408 l 1
 1158 1408 l 1
EndSplineSet
Validated: 1
Layer: 2
EndChar
StartChar: Utilde
Encoding: 360 360 197
GlifName: U_tilde
Width: 1024
VWidth: 0
Flags: W
HStem: -16 120<295.519 631.936> 1284 120<769.655 897.743> 1412 120<522.093 649.986>
VStem: 62 130<203.071 592>
LayerCount: 3
Back
Fore
SplineSet
582 1412 m 4
 531 1412 507 1353 494 1299 c 5
 367 1305 l 5
 394 1423 477 1532 606 1532 c 4
 752 1532 760 1404 837 1404 c 4
 888 1404 913 1463 926 1517 c 5
 1053 1511 l 5
 1027 1395 943 1284 814 1284 c 4
 668 1284 659 1412 582 1412 c 4
433 -16 m 4
 204 -16 62 123 62 324 c 4
 62 383 73 435 88 512 c 6
 212 1152 l 5
 340 1152 l 5
 216 512 l 6
 203 444 192 389 192 344 c 4
 192 199 292 104 456 104 c 4
 616 104 749 196 808 330 c 4
 829 378 841 437 856 512 c 6
 980 1152 l 5
 1108 1152 l 5
 984 512 l 6
 967 426 956 371 927 303 c 4
 847 118 654 -16 433 -16 c 4
EndSplineSet
Layer: 2
EndChar
StartChar: Umacron
Encoding: 362 362 199
GlifName: U_macron
Width: 1024
VWidth: 0
Flags: W
HStem: -16 120<295.519 631.936> 1416 120<415 1031>
VStem: 62 130<203.071 592>
LayerCount: 3
Back
Fore
SplineSet
415 1536 m 1
 1055 1536 l 1
 1031 1416 l 1
 391 1416 l 1
 415 1536 l 1
433 -16 m 0
 204 -16 62 123 62 324 c 0
 62 383 73 435 88 512 c 2
 212 1152 l 1
 340 1152 l 1
 216 512 l 2
 203 444 192 389 192 344 c 0
 192 199 292 104 456 104 c 0
 616 104 749 196 808 330 c 0
 829 378 841 437 856 512 c 2
 980 1152 l 1
 1108 1152 l 1
 984 512 l 2
 967 426 956 371 927 303 c 0
 847 118 654 -16 433 -16 c 0
EndSplineSet
Layer: 2
EndChar
StartChar: Ubreve
Encoding: 364 364 201
GlifName: U_breve
Width: 1024
VWidth: 0
Flags: W
HStem: -16 120<302.541 624.27> 1264 120<562.222 865.339>
VStem: 62 130<209.484 572> 390 130<1424.14 1536> 947 128<1462.09 1536>
LayerCount: 2
Back
Fore
SplineSet
947 1536 m 1
 1075 1536 l 1
 1042 1368 870 1264 682 1264 c 0
 513 1264 390 1347 390 1486 c 0
 390 1502 392 1519 395 1536 c 1
 523 1536 l 1
 521 1526 520 1517 520 1508 c 0
 520 1436 578 1384 705 1384 c 0
 848 1384 930 1450 947 1536 c 1
433 -16 m 0
 204 -16 62 123 62 324 c 0
 62 383 73 435 88 512 c 2
 212 1152 l 1
 340 1152 l 1
 216 512 l 2
 203 444 192 389 192 344 c 0
 192 199 292 104 456 104 c 0
 616 104 749 196 808 330 c 0
 829 378 841 437 856 512 c 2
 980 1152 l 1
 1108 1152 l 1
 984 512 l 2
 967 426 956 371 927 303 c 0
 847 118 654 -16 433 -16 c 0
EndSplineSet
Validated: 1
EndChar
StartChar: Uring
Encoding: 366 366 203
GlifName: U_ring
Width: 1024
VWidth: 0
Flags: W
HStem: -16 120<302.734 624.27> 1068 100<577.72 763.108> 1424 100<612.892 798.28>
VStem: 62 130<209.484 572> 455 109<1184.12 1374.01> 812 109<1217.99 1407.88>
LayerCount: 2
Back
Fore
SplineSet
732 1524 m 4
 850 1524 921 1446 921 1343 c 0
 921 1328 919 1312 916 1296 c 4
 892 1171 779 1068 644 1068 c 4
 526 1068 455 1146 455 1249 c 0
 455 1264 457 1280 460 1296 c 4
 484 1421 597 1524 732 1524 c 4
663 1168 m 4
 741 1168 812 1225 812 1332 c 0
 812 1395 772 1424 713 1424 c 4
 635 1424 564 1367 564 1260 c 0
 564 1197 604 1168 663 1168 c 4
433 -16 m 0
 205 -16 62 123 62 324 c 0
 62 383 73 435 88 512 c 2
 212 1152 l 1
 340 1152 l 1
 216 512 l 2
 203 444 192 389 192 344 c 0
 192 199 292 104 456 104 c 0
 616 104 749 196 808 330 c 0
 829 378 841 437 856 512 c 2
 980 1152 l 1
 1108 1152 l 1
 984 512 l 2
 967 426 956 371 927 303 c 0
 847 118 654 -16 433 -16 c 0
EndSplineSet
Validated: 1
EndChar
StartChar: uring
Encoding: 367 367 204
GlifName: uring
Width: 1024
VWidth: 0
Flags: W
HStem: -16 120<341.52 535.955> 0 21G<628 759.887> 1004 20G<311.104 443 823.104 955> 1038 100<571.72 757.108> 1394 100<606.892 792.28>
VStem: 169 130<147.234 469.656> 449 109<1154.12 1344.01> 806 109<1187.99 1377.88>
LayerCount: 2
Back
Fore
SplineSet
726 1494 m 4x3f
 844 1494 915 1416 915 1313 c 0
 915 1298 913 1282 910 1266 c 4
 886 1141 773 1038 638 1038 c 4
 520 1038 449 1116 449 1219 c 0
 449 1234 451 1250 454 1266 c 4
 478 1391 591 1494 726 1494 c 4x3f
657 1138 m 4
 735 1138 806 1195 806 1302 c 0
 806 1365 766 1394 707 1394 c 4
 629 1394 558 1337 558 1230 c 0
 558 1167 598 1138 657 1138 c 4
299 248 m 0
 299 157 361 104 456 104 c 0xbf
 520 104 576 129 615 166 c 0
 670 218 682 280 699 367 c 2
 827 1024 l 1
 955 1024 l 1
 756 0 l 1
 628 0 l 1x7f
 650 112 l 1
 640 112 l 1
 576 35 489 -16 413 -16 c 0xbf
 264 -16 169 80 169 223 c 0
 169 271 178 319 187 367 c 2
 315 1024 l 1
 443 1024 l 1
 315 367 l 2
 306 321 299 282 299 248 c 0
EndSplineSet
Validated: 1
EndChar
StartChar: Uhungarumlaut
Encoding: 368 368 205
GlifName: U_hungarumlaut
Width: 1024
VWidth: 0
Flags: W
HStem: -16 120<295.519 631.936>
VStem: 62 130<203.071 592>
LayerCount: 3
Back
Fore
SplineSet
341 1280 m 1
 557 1536 l 1
 695 1536 l 1
 479 1280 l 1
 341 1280 l 1
725 1280 m 1
 941 1536 l 1
 1079 1536 l 1
 863 1280 l 1
 725 1280 l 1
433 -16 m 0
 204 -16 62 123 62 324 c 0
 62 383 73 435 88 512 c 2
 212 1152 l 1
 340 1152 l 1
 216 512 l 2
 203 444 192 389 192 344 c 0
 192 199 292 104 456 104 c 0
 616 104 749 196 808 330 c 0
 829 378 841 437 856 512 c 2
 980 1152 l 1
 1108 1152 l 1
 984 512 l 2
 967 426 956 371 927 303 c 0
 847 118 654 -16 433 -16 c 0
EndSplineSet
Layer: 2
EndChar
StartChar: Uogonek
Encoding: 370 370 207
GlifName: U_ogonek
Width: 1024
VWidth: 0
Flags: W
HStem: -400 120<334.922 424> 1388 20G<258.116 390 1026.12 1158>
VStem: 62 130<208.224 568> 200 131<-276.366 -119.745>
LayerCount: 3
Back
Fore
SplineSet
200 -245 m 4
 200 -126 289 -55 358 -10 c 5
 173 18 62 145 62 324 c 4
 62 383 73 435 88 512 c 6
 262 1408 l 5
 390 1408 l 5
 216 512 l 6
 203 444 192 389 192 344 c 4
 192 199 292 104 456 104 c 4
 616 104 749 196 808 330 c 4
 829 378 841 437 856 512 c 6
 1030 1408 l 5
 1158 1408 l 5
 984 512 l 6
 967 426 956 371 927 303 c 4
 854 134 687 8 490 -13 c 5
 395 -69 331 -125 331 -221 c 4
 331 -264 360 -280 387 -280 c 4
 408 -280 428 -277 448 -268 c 5
 424 -389 l 5
 398 -398 371 -400 343 -400 c 4
 273 -400 200 -341 200 -245 c 4
EndSplineSet
Validated: 1
Layer: 2
EndChar
StartChar: uogonek
Encoding: 371 371 208
GlifName: uogonek
Width: 1024
VWidth: 0
Flags: W
HStem: -400 120<589.075 680> -16 120<340.255 542.171> 1004 20G<311.104 443 823.104 955>
VStem: 169 130<146.03 490.188> 456 131<-276.835 -116.058>
LayerCount: 3
Back
Fore
SplineSet
299 248 m 4
 299 157 361 104 456 104 c 4
 520 104 576 129 615 166 c 4
 670 218 682 280 699 367 c 6
 827 1024 l 5
 955 1024 l 5
 756 0 l 5
 656 -60 587 -120 587 -221 c 4
 587 -264 616 -280 643 -280 c 4
 664 -280 684 -277 704 -268 c 5
 680 -389 l 5
 654 -398 627 -400 599 -400 c 4
 529 -400 456 -341 456 -245 c 4
 456 -120 553 -47 628 0 c 5
 650 112 l 5
 640 112 l 5
 576 35 489 -16 413 -16 c 4
 264 -16 169 80 169 223 c 4
 169 271 178 319 187 367 c 6
 315 1024 l 5
 443 1024 l 5
 315 367 l 6
 306 321 299 282 299 248 c 4
EndSplineSet
Layer: 2
EndChar
StartChar: Wcircumflex
Encoding: 372 372 209
GlifName: W_circumflex
Width: 1024
VWidth: 0
Flags: W
HStem: 0 21G<117 251.904 627.866 755>
VStem: 111 115<190 651.193> 989 131<981.812 1152>
LayerCount: 2
Back
Fore
SplineSet
656 1536 m 1
 814 1536 l 1
 1061 1280 l 1
 903 1280 l 1
 717 1444 l 1
 467 1280 l 1
 309 1280 l 1
 656 1536 l 1
523 768 m 1
 647 768 l 1
 709 190 l 1
 719 190 l 1
 840 480 925 824 989 1152 c 1
 1120 1152 l 1
 1045 766 922 382 755 2 c 1
 630 0 l 1
 563 628 l 1
 553 628 l 1
 242 0 l 1
 117 2 l 1
 113 81 111 160 111 239 c 0
 111 541 141 846 200 1152 c 1
 331 1152 l 1
 272 847 226 528 226 252 c 0
 226 231 226 210 227 190 c 1
 237 190 l 1
 523 768 l 1
EndSplineSet
Validated: 1
EndChar
StartChar: Ycircumflex
Encoding: 374 374 211
GlifName: Y_circumflex
Width: 1024
VWidth: 0
Flags: W
HStem: 0 21G<372 503.906>
VStem: 197 125<934.897 1152>
LayerCount: 3
Back
Fore
SplineSet
656 1536 m 1
 814 1536 l 1
 1061 1280 l 1
 903 1280 l 1
 717 1444 l 1
 467 1280 l 1
 309 1280 l 1
 656 1536 l 1
197 1152 m 1
 322 1152 l 1
 346 939 405 758 540 612 c 1
 570 612 l 1
 761 758 892 939 998 1152 c 1
 1123 1152 l 1
 1017 923 867 714 600 512 c 1
 500 0 l 1
 372 0 l 1
 472 512 l 1
 283 714 213 923 197 1152 c 1
EndSplineSet
Layer: 2
EndChar
StartChar: ycircumflex
Encoding: 375 375 212
GlifName: ycircumflex
Width: 1024
VWidth: 0
Flags: W
HStem: -400 120<62 266.988> 1004 20G<263 394 817 1007> 1398 20G<605.891 810.297>
VStem: 263 131<586.84 1024>
LayerCount: 3
Back
Fore
SplineSet
490 115 m 5
 636 414 758 717 876 1024 c 5
 1007 1024 l 5
 865 655 740 351 523 -73 c 4
 470 -177 416 -271 345 -321 c 4
 281 -367 193 -400 38 -400 c 5
 62 -280 l 5
 144 -280 227 -266 267 -239 c 4
 321 -203 353 -140 428 0 c 5
 377 0 l 5
 283 326 264 676 263 1024 c 5
 394 1024 l 5
 394 709 409 400 480 115 c 5
 490 115 l 5
633 1418 m 1
 791 1418 l 1
 1038 1162 l 1
 880 1162 l 1
 694 1326 l 1
 444 1162 l 1
 286 1162 l 1
 633 1418 l 1
EndSplineSet
Layer: 2
EndChar
StartChar: Ydieresis
Encoding: 376 376 213
GlifName: Y_dieresis
Width: 1024
VWidth: 0
Flags: W
HStem: 0 21G<372 503.906> 1328 224<416.522 566.954 864.522 1014.95>
VStem: 197 125<934.897 1152> 377 229<1366.36 1513.64> 825 229<1366.36 1513.64>
LayerCount: 3
Back
Fore
SplineSet
377 1415 m 4
 377 1497 443 1552 514 1552 c 4
 571 1552 606 1517 606 1465 c 4
 606 1383 541 1328 470 1328 c 4
 413 1328 377 1363 377 1415 c 4
825 1415 m 4
 825 1497 891 1552 962 1552 c 4
 1019 1552 1054 1517 1054 1465 c 4
 1054 1383 989 1328 918 1328 c 4
 861 1328 825 1363 825 1415 c 4
197 1152 m 5
 322 1152 l 5
 346 939 405 758 540 612 c 5
 570 612 l 5
 761 758 892 939 998 1152 c 5
 1123 1152 l 5
 1017 923 867 714 600 512 c 5
 500 0 l 5
 372 0 l 5
 472 512 l 5
 283 714 213 923 197 1152 c 5
EndSplineSet
Layer: 2
EndChar
StartChar: Zacute
Encoding: 377 377 214
GlifName: Z_acute
Width: 1024
VWidth: 0
Flags: W
HStem: 0 120<166 884> 1032 120<232 910>
LayerCount: 3
Back
Fore
SplineSet
597 1280 m 1
 813 1536 l 1
 951 1536 l 1
 735 1280 l 1
 597 1280 l 1
209 1032 m 1
 232 1152 l 1
 1088 1152 l 1
 1070 1062 l 1
 168 130 l 1
 166 120 l 1
 907 120 l 1
 884 0 l 1
 -12 0 l 1
 6 92 l 1
 908 1022 l 1
 910 1032 l 1
 209 1032 l 1
EndSplineSet
Validated: 1
Layer: 2
EndChar
StartChar: Zdotaccent
Encoding: 379 379 216
GlifName: Z_dotaccent
Width: 1024
VWidth: 0
Flags: W
HStem: 0 120<166 884> 1032 120<232 910> 1328 224<643.272 788.454>
VStem: 601 229<1369.94 1508.79>
LayerCount: 2
Back
Fore
SplineSet
738 1552 m 0
 795 1552 830 1517 830 1465 c 0
 830 1457 830 1449 828 1440 c 0
 815 1374 760 1328 694 1328 c 0
 637 1328 601 1363 601 1415 c 0
 601 1423 602 1431 604 1440 c 0
 617 1506 672 1552 738 1552 c 0
209 1032 m 1
 232 1152 l 1
 1088 1152 l 1
 1070 1062 l 1
 168 130 l 1
 166 120 l 1
 907 120 l 1
 884 0 l 1
 -12 0 l 1
 6 92 l 1
 908 1022 l 1
 910 1032 l 1
 209 1032 l 1
EndSplineSet
Validated: 1
EndChar
StartChar: Zcaron
Encoding: 381 381 218
GlifName: Z_caron
Width: 1024
VWidth: 0
Flags: W
HStem: 0 120<166 884> 1032 120<232 910>
LayerCount: 2
Back
Fore
SplineSet
606 1280 m 1
 359 1536 l 1
 517 1536 l 1
 703 1372 l 1
 953 1536 l 1
 1111 1536 l 1
 764 1280 l 1
 606 1280 l 1
209 1032 m 1
 232 1152 l 1
 1088 1152 l 1
 1070 1062 l 1
 168 130 l 1
 166 120 l 1
 907 120 l 1
 884 0 l 1
 -12 0 l 1
 6 92 l 1
 908 1022 l 1
 910 1032 l 1
 209 1032 l 1
EndSplineSet
Validated: 1
EndChar
StartChar: zcaron
Encoding: 382 382 219
GlifName: zcaron
Width: 1024
VWidth: 0
Flags: W
HStem: 0 120<284 756> 904 120<335 767> 1388 20G<334 514.683 897.512 1086>
LayerCount: 3
Back
Fore
SplineSet
581 1152 m 1
 334 1408 l 1
 492 1408 l 1
 678 1244 l 1
 928 1408 l 1
 1086 1408 l 1
 739 1152 l 1
 581 1152 l 1
312 904 m 1
 335 1024 l 1
 935 1024 l 1
 918 934 l 1
 286 130 l 1
 284 120 l 1
 779 120 l 1
 756 0 l 1
 116 0 l 1
 134 92 l 1
 765 894 l 1
 767 904 l 1
 312 904 l 1
EndSplineSet
Validated: 1
Layer: 2
EndChar
StartChar: uni018F
Encoding: 399 399 600
GlifName: uni018F_
Width: 1024
VWidth: 0
Flags: W
HStem: -16 120<314.081 613.542> 648 120<219.563 898> 1304 120<313.049 787.622>
VStem: 68 131<229.079 643.034> 943 131<771.436 1154.48>
LayerCount: 3
Back
Fore
SplineSet
199 404 m 4
 199 243 270 104 456 104 c 4
 636 104 756 235 821 382 c 4
 855 462 879 553 898 648 c 5
 226 648 l 5
 210 561 199 479 199 404 c 4
433 -16 m 4
 178 -16 68 167 68 388 c 4
 68 486 90 609 121 768 c 5
 921 768 l 5
 933 839 943 910 943 976 c 4
 943 1179 838 1304 592 1304 c 4
 496 1304 387 1295 287 1282 c 5
 311 1402 l 5
 407 1415 511 1424 616 1424 c 4
 927 1424 1074 1255 1074 998 c 4
 1074 899 1056 799 1037 704 c 4
 1012 577 987 458 941 355 c 4
 853 155 678 -16 433 -16 c 4
EndSplineSet
Validated: 1
Layer: 2
EndChar
StartChar: uni01EA
Encoding: 490 490 436
GlifName: uni01E_A_
Width: 1024
VWidth: 0
Flags: W
HStem: -400 120<334.922 424> 1176 120<498.535 817.187>
VStem: 62 130<219.041 664.265> 200 131<-276.366 -118.322> 929 130<620.589 1059.92>
LayerCount: 2
Back
Fore
SplineSet
192 388 m 4
 192 220 271 104 456 104 c 4
 626 104 748 206 814 348 c 4
 855 438 876 537 896 640 c 4
 913 728 929 813 929 892 c 4
 929 1060 850 1176 665 1176 c 4
 495 1176 373 1074 307 932 c 4
 266 842 244 743 224 640 c 4
 207 552 192 467 192 388 c 4
688 1296 m 4
 938 1296 1059 1137 1059 913 c 4
 1059 821 1041 728 1024 640 c 4
 1004 536 982 427 932 318 c 4
 851 142 693 7 487 -13 c 5
 395 -69 331 -126 331 -221 c 4
 331 -264 360 -280 387 -280 c 4
 408 -280 428 -277 448 -268 c 5
 424 -389 l 5
 398 -398 371 -400 343 -400 c 4
 273 -400 200 -341 200 -245 c 4
 200 -126 288 -55 356 -10 c 5
 157 21 62 165 62 367 c 4
 62 459 79 552 96 640 c 4
 116 744 139 853 189 962 c 4
 277 1153 456 1296 688 1296 c 4
EndSplineSet
Validated: 1
EndChar
StartChar: uni01EB
Encoding: 491 491 437
GlifName: uni01E_B_
Width: 1024
VWidth: 0
Flags: W
HStem: -400 120<334.922 424> 920 120<482.087 729.428>
VStem: 154 130<163.054 556.696> 200 131<-276.366 -118.346> 787 131<467.304 862.043>
LayerCount: 3
Back
Fore
SplineSet
615 920 m 4xe8
 404 920 349 702 312 512 c 4
 297 437 284 364 284 300 c 4
 284 181 337 104 456 104 c 4
 667 104 723 322 760 512 c 4
 775 587 787 660 787 724 c 4
 787 843 734 920 615 920 c 4xe8
358 -8 m 5
 218 23 154 130 154 283 c 4xe8
 154 353 168 427 184 512 c 4
 208 633 229 734 285 829 c 4
 354 945 478 1040 638 1040 c 4
 829 1040 918 914 918 741 c 4
 918 671 904 597 888 512 c 4
 864 391 842 290 786 195 c 4
 732 105 619 10 477 -11 c 5
 392 -66 331 -136 331 -221 c 4
 331 -264 360 -280 387 -280 c 4
 408 -280 428 -277 448 -268 c 5
 424 -389 l 5
 398 -398 371 -400 343 -400 c 4
 273 -400 200 -341 200 -245 c 4xd8
 200 -127 286 -55 358 -8 c 5
EndSplineSet
Validated: 1
Layer: 2
EndChar
StartChar: uni0203
Encoding: 515 515 441
GlifName: uni0203
Width: 1024
VWidth: 0
Flags: W
HStem: -16 120<308.799 516.96> 0 21G<628 759.899> 512 110<376.941 728> 920 120<379.349 767.454> 1304 120<529.387 832.552>
VStem: 135 131<144.833 393.229> 320 128<1152 1225.91> 784 129<627.938 900.768> 875 130<1152.63 1262.77>
LayerCount: 3
Back
Fore
SplineSet
728 512 m 5xbe
 532 512 l 6
 477 512 418 512 357 458 c 4
 305 412 266 334 266 254 c 4
 266 168 315 104 412 104 c 4
 642 104 695 341 720 471 c 6
 728 512 l 5xbe
670 1040 m 4
 734 1040 805 1032 854 987 c 4
 888 955 913 913 913 848 c 4
 913 810 906 772 902 749 c 6
 756 0 l 5
 628 0 l 5x7f
 652 123 l 5
 642 123 l 5
 561 35 474 -16 365 -16 c 4
 229 -16 135 82 135 228 c 4
 135 335 186 457 276 533 c 4
 383 622 493 622 555 622 c 6
 749 622 l 5
 773 744 l 6
 778 772 784 800 784 825 c 4xbf
 784 887 748 920 647 920 c 4
 559 920 445 910 355 899 c 5
 378 1021 l 5
 467 1031 578 1040 670 1040 c 4
872 1152 m 5
 874 1162 875 1171 875 1180 c 4
 875 1252 816 1304 689 1304 c 4
 546 1304 465 1238 448 1152 c 5
 320 1152 l 5
 353 1320 525 1424 713 1424 c 4
 882 1424 1005 1341 1005 1202 c 4x3e80
 1005 1186 1003 1169 1000 1152 c 5
 872 1152 l 5
EndSplineSet
Validated: 1
Layer: 2
EndChar
StartChar: uni0207
Encoding: 519 519 445
GlifName: uni0207
Width: 1024
VWidth: 0
Flags: W
HStem: -16 120<343.715 756.006> 512 120<337 786.442> 920 120<476.431 737.147> 1304 120<529.387 832.552>
VStem: 153 130<166.803 510.253> 792 129<634.658 868.033> 875 130<1152 1262.77>
LayerCount: 3
Back
Fore
SplineSet
792 745 m 4xfc
 792 857 733 920 615 920 c 4
 518 920 439 874 396 799 c 4
 366 751 352 693 337 632 c 5
 781 632 l 5
 787 672 792 710 792 745 c 4xfc
283 301 m 4
 283 173 347 104 476 104 c 4
 569 104 673 113 780 125 c 5
 757 5 l 5
 651 -7 553 -16 453 -16 c 4
 253 -16 153 103 153 280 c 4
 153 351 168 427 184 512 c 4
 208 637 230 747 284 839 c 4
 348 951 476 1040 638 1040 c 4
 811 1040 921 941 921 761 c 4
 921 687 906 604 888 512 c 5
 312 512 l 5
 298 438 283 364 283 301 c 4
872 1152 m 1
 874 1162 875 1171 875 1180 c 0
 875 1252 816 1304 689 1304 c 0
 546 1304 465 1238 448 1152 c 1
 320 1152 l 1
 353 1320 525 1424 713 1424 c 0
 882 1424 1005 1341 1005 1202 c 0xfa
 1005 1186 1003 1169 1000 1152 c 1
 872 1152 l 1
EndSplineSet
Validated: 1
Layer: 2
EndChar
StartChar: uni0208
Encoding: 520 520 446
GlifName: uni0208
Width: 1024
VWidth: 0
Flags: W
HStem: 0 120<139 395 523 756> 1032 120<340 573 701 957>
LayerCount: 3
Back
Fore
SplineSet
901 1280 m 1
 763 1280 l 1
 647 1536 l 1
 785 1536 l 1
 901 1280 l 1
517 1280 m 1
 379 1280 l 1
 263 1536 l 1
 401 1536 l 1
 517 1280 l 1
980 1152 m 1
 957 1032 l 1
 701 1032 l 1
 523 120 l 1
 779 120 l 1
 756 0 l 1
 116 0 l 1
 139 120 l 1
 395 120 l 1
 573 1032 l 1
 317 1032 l 1
 340 1152 l 1
 980 1152 l 1
EndSplineSet
Layer: 2
EndChar
StartChar: uni020A
Encoding: 522 522 448
GlifName: uni020A_
Width: 1024
VWidth: 0
Flags: W
HStem: 0 120<139 395 523 756> 1032 120<340 573 701 957> 1432 120<554.387 857.552>
VStem: 345 128<1280 1353.91> 900 130<1280 1390.77>
LayerCount: 2
Back
Fore
SplineSet
897 1280 m 1
 899 1290 900 1299 900 1308 c 0
 900 1380 841 1432 714 1432 c 0
 571 1432 490 1366 473 1280 c 1
 345 1280 l 1
 378 1448 550 1552 738 1552 c 0
 907 1552 1030 1469 1030 1330 c 0
 1030 1314 1028 1297 1025 1280 c 1
 897 1280 l 1
980 1152 m 1
 957 1032 l 1
 701 1032 l 1
 523 120 l 1
 779 120 l 1
 756 0 l 1
 116 0 l 1
 139 120 l 1
 395 120 l 1
 573 1032 l 1
 317 1032 l 1
 340 1152 l 1
 980 1152 l 1
EndSplineSet
Validated: 1
EndChar
StartChar: uni020B
Encoding: 523 523 449
GlifName: uni020B_
Width: 1024
VWidth: 0
Flags: W
HStem: 0 120<139 395 523 756> 904 120<315 548> 1304 120<529.387 832.552>
VStem: 320 128<1152 1225.91> 875 130<1152 1262.77>
LayerCount: 2
Back
Fore
SplineSet
872 1152 m 1
 874 1162 875 1171 875 1180 c 0
 875 1252 816 1304 689 1304 c 0
 546 1304 465 1238 448 1152 c 1
 320 1152 l 1
 353 1320 525 1424 713 1424 c 0
 882 1424 1005 1341 1005 1202 c 0
 1005 1186 1003 1169 1000 1152 c 1
 872 1152 l 1
116 0 m 1
 139 120 l 1
 395 120 l 1
 548 904 l 1
 292 904 l 1
 315 1024 l 1
 699 1024 l 1
 523 120 l 1
 779 120 l 1
 756 0 l 1
 116 0 l 1
EndSplineSet
Validated: 1
EndChar
StartChar: uni020E
Encoding: 526 526 452
GlifName: uni020E_
Width: 1024
VWidth: 0
Flags: W
HStem: -16 120<295.415 633.164> 1048 120<462.836 800.585> 1432 120<552.431 862.156>
VStem: 59 130<208.305 660.775> 345 128<1280 1359.73> 907 130<491.225 943.695 1280 1386.79>
LayerCount: 3
Back
Fore
SplineSet
433 -16 m 4
 183 -16 59 136 59 363 c 4
 59 516 100 719 178 868 c 4
 269 1042 441 1168 663 1168 c 4
 913 1168 1037 1016 1037 789 c 4
 1037 636 996 433 918 284 c 4
 827 110 655 -16 433 -16 c 4
907 770 m 4
 907 940 827 1048 640 1048 c 4
 476 1048 360 961 293 833 c 4
 231 716 189 503 189 382 c 4
 189 212 269 104 456 104 c 4
 620 104 736 191 803 319 c 4
 865 436 907 649 907 770 c 4
897 1280 m 1
 899 1290 900 1299 900 1308 c 0
 900 1380 841 1432 714 1432 c 0
 571 1432 490 1366 473 1280 c 1
 345 1280 l 1
 378 1448 550 1552 738 1552 c 0
 907 1552 1030 1469 1030 1330 c 0
 1030 1314 1028 1297 1025 1280 c 1
 897 1280 l 1
EndSplineSet
Layer: 2
EndChar
StartChar: uni020F
Encoding: 527 527 453
GlifName: uni020F_
Width: 1024
VWidth: 0
Flags: W
HStem: -16 120<340.718 586.231> 920 120<484.769 730.044> 1304 120<529.387 832.552>
VStem: 154 129<161.363 554.63> 787 129<457.165 862.431> 875 130<1152.63 1262.77>
LayerCount: 2
Back
Fore
SplineSet
433 -16 m 4xf8
 260 -16 154 96 154 278 c 4
 154 347 167 425 184 512 c 4
 213 662 246 788 320 880 c 4
 400 978 511 1040 638 1040 c 4
 811 1040 916 927 916 746 c 4
 916 677 905 599 888 512 c 4
 859 362 825 236 751 144 c 4
 671 46 560 -16 433 -16 c 4xf8
787 724 m 4
 787 843 736 920 615 920 c 4
 531 920 466 881 420 822 c 4
 359 744 335 629 312 512 c 4
 298 438 283 364 283 300 c 4
 283 181 335 104 456 104 c 4
 540 104 605 143 651 202 c 4
 712 280 737 395 760 512 c 4
 774 586 787 660 787 724 c 4
872 1152 m 1
 874 1162 875 1171 875 1180 c 0
 875 1252 816 1304 689 1304 c 0
 546 1304 465 1238 448 1152 c 1
 320 1152 l 1
 353 1320 525 1424 713 1424 c 0
 882 1424 1005 1341 1005 1202 c 0xf4
 1005 1186 1003 1169 1000 1152 c 1
 872 1152 l 1
EndSplineSet
Validated: 1
EndChar
StartChar: uni0212
Encoding: 530 530 456
GlifName: uni0212
Width: 1024
VWidth: 0
Flags: W
HStem: 0 21G<-12 119.885 653.538 798> 520 120<240 517> 1032 120<317 766.036> 1432 120<426.387 729.552>
VStem: 772 130<1280 1390.77> 811 130<745.477 987.427>
LayerCount: 2
Back
Fore
SplineSet
614 1032 m 6xf4
 317 1032 l 5
 240 640 l 5
 537 640 l 6
 573 640 606 641 634 647 c 4
 728 668 811 756 811 883 c 4
 811 958 772 1010 707 1025 c 4
 681 1031 650 1032 614 1032 c 6xf4
637 1152 m 6
 675 1152 717 1152 761 1141 c 4
 869 1114 941 1029 941 905 c 4
 941 706 800 572 653 534 c 5
 798 0 l 5
 659 0 l 5
 517 520 l 5
 217 520 l 5
 116 0 l 5
 -12 0 l 5
 212 1152 l 5
 637 1152 l 6
769 1280 m 1
 771 1290 772 1299 772 1308 c 0
 772 1380 713 1432 586 1432 c 0
 443 1432 362 1366 345 1280 c 1
 217 1280 l 1
 250 1448 422 1552 610 1552 c 0
 779 1552 902 1469 902 1330 c 0xf8
 902 1314 900 1297 897 1280 c 1
 769 1280 l 1
EndSplineSet
Validated: 1
EndChar
StartChar: uni0213
Encoding: 531 531 457
GlifName: uni0213
Width: 1024
VWidth: 0
Flags: W
HStem: 0 21G<116 247.874> 920 120<598.349 934.808> 1004 20G<311.113 443> 1304 120<529.387 832.552>
VStem: 875 130<1152 1262.77>
LayerCount: 3
Back
Fore
SplineSet
755 920 m 4xd8
 663 920 586 894 526 847 c 4
 388 740 358 589 336 475 c 6
 244 0 l 5
 116 0 l 5
 315 1024 l 5
 443 1024 l 5xb8
 412 865 l 5
 422 865 l 5
 517 967 623 1040 778 1040 c 4
 844 1040 900 1034 956 1027 c 5
 932 907 l 5
 876 914 820 920 755 920 c 4xd8
872 1152 m 1
 874 1162 875 1171 875 1180 c 0
 875 1252 816 1304 689 1304 c 0
 546 1304 465 1238 448 1152 c 1
 320 1152 l 1
 353 1320 525 1424 713 1424 c 0
 882 1424 1005 1341 1005 1202 c 0
 1005 1186 1003 1169 1000 1152 c 1
 872 1152 l 1
EndSplineSet
Validated: 1
Layer: 2
EndChar
StartChar: uni0214
Encoding: 532 532 458
GlifName: uni0214
Width: 1024
VWidth: 0
Flags: W
HStem: -16 120<299.422 624.27>
VStem: 62 130<212.551 572>
LayerCount: 3
Back
Fore
SplineSet
1029 1280 m 1
 891 1280 l 1
 775 1536 l 1
 913 1536 l 1
 1029 1280 l 1
645 1280 m 1
 507 1280 l 1
 391 1536 l 1
 529 1536 l 1
 645 1280 l 1
212 1152 m 1
 340 1152 l 1
 216 512 l 2
 203 444 192 389 192 344 c 0
 192 339 192 335 192 330 c 0
 199 196 296 104 456 104 c 0
 616 104 749 196 808 330 c 0
 829 378 841 437 856 512 c 2
 980 1152 l 1
 1108 1152 l 1
 984 512 l 2
 967 426 956 371 927 303 c 0
 847 118 654 -16 433 -16 c 0
 212 -16 70 118 63 303 c 0
 63 310 62 317 62 324 c 0
 62 383 73 435 88 512 c 2
 212 1152 l 1
EndSplineSet
Validated: 1
Layer: 2
EndChar
StartChar: uni0215
Encoding: 533 533 459
GlifName: uni0215
Width: 1024
VWidth: 0
Flags: W
HStem: -16 120<339.08 542.171> 0 21G<628 759.887> 1004 20G<311.104 443 823.104 955> 1388 20G<238 385.062 622 769.062>
VStem: 169 130<143.525 490.188>
LayerCount: 3
Back
Fore
SplineSet
876 1152 m 1x38
 738 1152 l 1
 622 1408 l 1
 760 1408 l 1
 876 1152 l 1x38
492 1152 m 1
 354 1152 l 1
 238 1408 l 1
 376 1408 l 1
 492 1152 l 1
413 -16 m 0xb8
 313 -16 241 29 203 91 c 0
 177 133 169 178 169 223 c 0
 169 271 178 319 187 367 c 2
 315 1024 l 1
 443 1024 l 1
 315 367 l 2
 306 321 299 282 299 248 c 0
 299 217 305 190 321 166 c 0
 346 129 392 104 456 104 c 0xb8
 520 104 576 129 615 166 c 0
 670 218 682 280 699 367 c 2
 827 1024 l 1
 955 1024 l 1
 756 0 l 1
 628 0 l 1x78
 650 112 l 1
 640 112 l 1
 576 35 489 -16 413 -16 c 0xb8
EndSplineSet
Layer: 2
EndChar
StartChar: uni0216
Encoding: 534 534 460
GlifName: uni0216
Width: 1024
VWidth: 0
Flags: W
HStem: -16 120<299.422 624.27> 1432 120<554.387 857.552>
VStem: 62 130<212.551 572> 345 128<1280 1353.91> 900 130<1280 1390.77>
LayerCount: 3
Back
Fore
SplineSet
897 1280 m 1
 899 1290 900 1299 900 1308 c 0
 900 1380 841 1432 714 1432 c 0
 571 1432 490 1366 473 1280 c 1
 345 1280 l 1
 378 1448 550 1552 738 1552 c 0
 907 1552 1030 1469 1030 1330 c 0
 1030 1314 1028 1297 1025 1280 c 1
 897 1280 l 1
212 1152 m 1
 340 1152 l 1
 216 512 l 2
 203 444 192 389 192 344 c 0
 192 339 192 335 192 330 c 0
 199 196 296 104 456 104 c 0
 616 104 749 196 808 330 c 0
 829 378 841 437 856 512 c 2
 980 1152 l 1
 1108 1152 l 1
 984 512 l 2
 967 426 956 371 927 303 c 0
 847 118 654 -16 433 -16 c 0
 212 -16 70 118 63 303 c 0
 63 310 62 317 62 324 c 0
 62 383 73 435 88 512 c 2
 212 1152 l 1
EndSplineSet
Validated: 1
Layer: 2
EndChar
StartChar: uni0217
Encoding: 535 535 461
GlifName: uni0217
Width: 1024
VWidth: 0
Flags: W
HStem: -16 120<339.08 542.171> 0 21G<628 759.887> 1004 20G<311.104 443 823.104 955> 1304 120<527.431 837.156>
VStem: 169 130<143.525 490.188> 875 130<1152 1263.86>
LayerCount: 3
Back
Fore
SplineSet
872 1152 m 1x3c
 874 1162 875 1171 875 1180 c 0
 875 1252 816 1304 689 1304 c 0
 546 1304 465 1238 448 1152 c 1
 320 1152 l 1
 353 1320 525 1424 713 1424 c 0
 882 1424 1005 1341 1005 1202 c 0
 1005 1186 1003 1169 1000 1152 c 1
 872 1152 l 1x3c
413 -16 m 0xbc
 313 -16 241 29 203 91 c 0
 177 133 169 178 169 223 c 0
 169 271 178 319 187 367 c 2
 315 1024 l 1
 443 1024 l 1
 315 367 l 2
 306 321 299 282 299 248 c 0
 299 217 305 190 321 166 c 0
 346 129 392 104 456 104 c 0xbc
 520 104 576 129 615 166 c 0
 670 218 682 280 699 367 c 2
 827 1024 l 1
 955 1024 l 1
 756 0 l 1
 628 0 l 1x7c
 650 112 l 1
 640 112 l 1
 576 35 489 -16 413 -16 c 0xbc
EndSplineSet
Layer: 2
EndChar
StartChar: uni0218
Encoding: 536 536 462
GlifName: uni0218
Width: 1024
VWidth: 0
Flags: W
HStem: -400 120<318 422.912> -16 120<132.909 676.679> 1304 120<577.755 1099.59>
VStem: 281 130<869.782 1134.23> 475 128<-229.619 -128> 867 130<296.001 570.757>
LayerCount: 3
Back
Fore
SplineSet
477 -16 m 4
 343 -16 226 -2 113 16 c 5
 137 139 l 5
 248 121 372 104 500 104 c 4
 679 104 827 209 861 385 c 4
 865 405 867 425 867 443 c 0
 867 536 820 603 751 632 c 4
 646 678 530 650 411 721 c 4
 332 768 281 855 281 967 c 0
 281 992 284 1018 289 1045 c 4
 332 1266 522 1424 757 1424 c 4
 893 1424 1011 1411 1122 1399 c 5
 1098 1278 l 5
 988 1290 858 1304 733 1304 c 4
 568 1304 447 1198 417 1045 c 4
 413 1026 411 1007 411 989 c 0
 411 913 445 856 497 825 c 4
 585 773 713 788 820 742 c 4
 921 699 997 603 997 465 c 0
 997 440 994 413 989 385 c 4
 942 143 726 -16 477 -16 c 4
515 -315 m 0
 464 -367 384 -400 294 -400 c 1
 318 -280 l 1
 365 -280 401 -268 424 -245 c 0
 459 -211 466 -173 475 -128 c 1
 518 -128 560 -128 603 -128 c 1
 592 -184 580 -249 515 -315 c 0
EndSplineSet
Validated: 1
Layer: 2
EndChar
StartChar: uni021A
Encoding: 538 538 464
GlifName: uni021A_
Width: 1024
VWidth: 0
Flags: W
HStem: -400 120<190 294.912> 0 21G<372 503.879> 1160 120<237 597 725 1109>
VStem: 597 128<1090.71 1160>
LayerCount: 3
Back
Fore
SplineSet
387 -315 m 4
 336 -367 256 -400 166 -400 c 5
 190 -280 l 5
 237 -280 273 -268 296 -245 c 4
 331 -211 338 -173 347 -128 c 5
 390 -128 432 -128 475 -128 c 5
 464 -184 452 -249 387 -315 c 4
1133 1280 m 5
 1109 1160 l 5
 725 1160 l 5
 500 0 l 5
 372 0 l 5
 597 1160 l 5
 213 1160 l 5
 237 1280 l 5
 1133 1280 l 5
EndSplineSet
Layer: 2
EndChar
StartChar: uni021B
Encoding: 539 539 465
GlifName: uni021B_
Width: 1024
VWidth: 0
Flags: W
HStem: -400 120<318 422.912> -16 120<468.454 758.137> 898 126<187 419 571 931>
VStem: 296 131<143.201 469.141> 475 128<-229.619 -128>
LayerCount: 3
Back
Fore
SplineSet
515 -315 m 4
 464 -367 384 -400 294 -400 c 5
 318 -280 l 5
 365 -280 401 -268 424 -245 c 4
 459 -211 466 -173 475 -128 c 5
 518 -128 560 -128 603 -128 c 5
 592 -184 580 -249 515 -315 c 4
427 246 m 4
 427 153 486 104 584 104 c 4
 652 104 726 125 785 147 c 5
 760 19 l 5
 696 -1 626 -16 551 -16 c 4
 398 -16 296 74 296 220 c 4
 296 267 305 315 314 360 c 6
 419 898 l 5
 163 898 l 5
 187 1024 l 5
 443 1024 l 5
 493 1280 l 5
 621 1280 l 5
 571 1024 l 5
 955 1024 l 5
 931 898 l 5
 547 898 l 5
 444 370 l 6
 435 323 427 282 427 246 c 4
EndSplineSet
Validated: 1
Layer: 2
EndChar
StartChar: uni0237
Encoding: 567 567 292
GlifName: uni0237
Width: 1024
VWidth: 0
Flags: W
HStem: -400 120<60.6184 391.404> 904 120<443 676>
LayerCount: 3
Back
Fore
SplineSet
64 -265 m 5
 117 -273 186 -280 254 -280 c 4
 321 -280 376 -256 415 -218 c 4
 468 -166 480 -102 497 -14 c 6
 676 904 l 5
 420 904 l 5
 443 1024 l 5
 827 1024 l 5
 623 -24 l 6
 605 -115 587 -210 503 -292 c 4
 439 -355 346 -400 240 -400 c 4
 165 -400 99 -394 41 -385 c 5
 64 -265 l 5
EndSplineSet
Layer: 2
EndChar
StartChar: uni0259
Encoding: 601 601 434
GlifName: uni0259
Width: 1024
VWidth: 0
Flags: W
HStem: -16 120<333.575 594.569> 392 120<284.558 734> 920 120<314.994 724.627>
VStem: 150 129<155.309 389.342> 788 130<513.747 857.197>
LayerCount: 3
Back
Fore
SplineSet
279 279 m 4
 279 167 338 104 456 104 c 4
 553 104 632 150 675 225 c 4
 705 273 719 331 734 392 c 5
 290 392 l 5
 284 352 279 314 279 279 c 4
788 723 m 4
 788 851 724 920 595 920 c 4
 502 920 398 911 291 899 c 5
 314 1019 l 5
 420 1031 518 1040 618 1040 c 4
 824 1040 918 921 918 744 c 4
 918 673 905 597 888 512 c 4
 864 387 841 277 787 185 c 4
 723 73 595 -16 433 -16 c 4
 240 -16 150 96 150 263 c 4
 150 337 166 420 184 512 c 5
 760 512 l 5
 774 586 788 660 788 723 c 4
EndSplineSet
Validated: 1
Layer: 2
EndChar
StartChar: uni02BC
Encoding: 700 700 519
GlifName: uni02B_C_
Width: 1024
VWidth: 0
Flags: W
HStem: 1008 120<463 564.875>
VStem: 440 359
LayerCount: 3
Back
Fore
SplineSet
753 1303 m 6
 741 1243 728 1173 662 1103 c 4
 609 1046 530 1008 440 1008 c 5
 463 1128 l 5
 510 1128 546 1145 572 1173 c 4
 607 1210 615 1253 625 1303 c 6
 671 1536 l 5
 799 1536 l 5
 753 1303 l 6
EndSplineSet
Validated: 1
Layer: 2
EndChar
StartChar: acutecomb
Encoding: 769 769 294
GlifName: acutecomb
Width: 1024
VWidth: 0
Flags: W
HStem: 1280 256
VStem: 597 354
LayerCount: 2
Back
Fore
SplineSet
597 1280 m 1
 813 1536 l 1
 951 1536 l 1
 735 1280 l 1
 597 1280 l 1
EndSplineSet
Validated: 1
EndChar
StartChar: uni0302
Encoding: 770 770 295
GlifName: uni0302
Width: 1024
VWidth: 0
Flags: W
HStem: 1280 256
LayerCount: 2
Back
Fore
SplineSet
656 1536 m 1
 814 1536 l 1
 1061 1280 l 1
 903 1280 l 1
 717 1444 l 1
 467 1280 l 1
 309 1280 l 1
 656 1536 l 1
EndSplineSet
Validated: 1
EndChar
StartChar: tildecomb
Encoding: 771 771 296
GlifName: tildecomb
Width: 1024
VWidth: 0
Flags: W
HStem: 1284 120<770.927 897.096> 1412 120<522.729 648.704>
LayerCount: 2
Back
Fore
SplineSet
582 1412 m 0
 531 1412 507 1353 494 1299 c 1
 367 1305 l 1
 394 1423 477 1532 606 1532 c 0
 752 1532 760 1404 837 1404 c 0
 888 1404 913 1463 926 1517 c 1
 1053 1511 l 1
 1027 1395 943 1284 814 1284 c 0
 668 1284 659 1412 582 1412 c 0
EndSplineSet
Validated: 1
EndChar
StartChar: uni0304
Encoding: 772 772 297
GlifName: uni0304
Width: 1024
VWidth: 0
Flags: W
HStem: 1284 120<389 1006>
AnchorPoint: "top" 665 1152 mark 0
LayerCount: 3
Back
Fore
SplineSet
389 1404 m 1
 1029 1404 l 1
 1006 1284 l 1
 366 1284 l 1
 389 1404 l 1
EndSplineSet
Validated: 1
Layer: 2
EndChar
StartChar: uni0306
Encoding: 774 774 298
GlifName: uni0306
Width: 1024
VWidth: 0
Flags: W
HStem: 1264 120<562.222 865.339>
VStem: 390 130<1424.14 1536> 947 128<1462.09 1536>
LayerCount: 3
Back
Fore
SplineSet
947 1536 m 1
 1075 1536 l 1
 1042 1368 870 1264 682 1264 c 0
 513 1264 390 1347 390 1486 c 0
 390 1502 392 1519 395 1536 c 1
 523 1536 l 1
 521 1526 520 1517 520 1508 c 0
 520 1436 578 1384 705 1384 c 0
 848 1384 930 1450 947 1536 c 1
EndSplineSet
Validated: 1
Layer: 2
EndChar
StartChar: uni0307
Encoding: 775 775 299
GlifName: uni0307
Width: 1024
VWidth: 0
Flags: W
HStem: 1328 224<640.522 790.954>
VStem: 601 229<1366.36 1513.64>
AnchorPoint: "top" 665 1152 mark 0
LayerCount: 3
Back
Fore
SplineSet
601 1415 m 0
 601 1497 667 1552 738 1552 c 0
 795 1552 830 1517 830 1465 c 0
 830 1383 765 1328 694 1328 c 0
 637 1328 601 1363 601 1415 c 0
EndSplineSet
Layer: 2
EndChar
StartChar: uni0308
Encoding: 776 776 300
GlifName: uni0308
Width: 1024
VWidth: 0
Flags: W
HStem: 1328 224<416.522 566.954 864.522 1014.95>
VStem: 377 229<1366.36 1513.64> 825 229<1366.36 1513.64>
LayerCount: 3
Back
Fore
SplineSet
825 1415 m 0
 825 1497 891 1552 962 1552 c 4
 1019 1552 1054 1517 1054 1465 c 0
 1054 1383 989 1328 918 1328 c 4
 861 1328 825 1363 825 1415 c 0
377 1415 m 0
 377 1497 443 1552 514 1552 c 4
 571 1552 606 1517 606 1465 c 0
 606 1383 541 1328 470 1328 c 4
 413 1328 377 1363 377 1415 c 0
EndSplineSet
Layer: 2
EndChar
StartChar: uni030A
Encoding: 778 778 301
GlifName: uni030A_
Width: 1024
VWidth: 0
Flags: W
HStem: 1068 100<580.508 760.525> 1424 100<615.37 795.093>
VStem: 455 109<1183.54 1371.6> 811 109<1220.18 1408.46>
LayerCount: 3
Back
Fore
SplineSet
732 1524 m 4
 850 1524 920 1448 920 1344 c 4
 920 1185 789 1068 644 1068 c 4
 526 1068 455 1144 455 1248 c 4
 455 1406 588 1524 732 1524 c 4
663 1168 m 4
 740 1168 811 1228 811 1330 c 4
 811 1391 773 1424 713 1424 c 4
 636 1424 564 1364 564 1262 c 4
 564 1201 603 1168 663 1168 c 4
EndSplineSet
Validated: 1
Layer: 2
EndChar
StartChar: uni030B
Encoding: 779 779 302
GlifName: uni030B_
Width: 1024
VWidth: 0
Flags: W
HStem: 1280 256
AnchorPoint: "top" 665 1152 mark 0
LayerCount: 3
Back
Fore
SplineSet
788.806640625 1280 m 5
 1004.56835938 1536 l 5
 1142.56835938 1536 l 5
 926.806640625 1280 l 5
 788.806640625 1280 l 5
404.806640625 1280 m 5
 620.568359375 1536 l 5
 758.568359375 1536 l 5
 542.806640625 1280 l 5
 404.806640625 1280 l 5
EndSplineSet
Layer: 2
EndChar
StartChar: uni030F
Encoding: 783 783 435
GlifName: uni030F_
Width: 1024
VWidth: 0
Flags: W
HStem: 1280 256<443 465 827 849>
VStem: 327 638
AnchorPoint: "top" 660 1152 mark 0
LayerCount: 3
Back
Fore
SplineSet
581 1280 m 5
 443 1280 l 5
 327 1536 l 5
 465 1536 l 5
 581 1280 l 5
965 1280 m 5
 827 1280 l 5
 711 1536 l 5
 849 1536 l 5
 965 1280 l 5
EndSplineSet
Layer: 2
EndChar
StartChar: uni0315
Encoding: 789 789 305
GlifName: uni0315
Width: 1024
VWidth: 0
Flags: W
HStem: 1024 21G<571 702.875>
VStem: 571 252
LayerCount: 3
Back
Fore
SplineSet
695 1664 m 1
 823 1664 l 1
 699 1024 l 1
 571 1024 l 1
 695 1664 l 1
EndSplineSet
Validated: 1
Layer: 2
EndChar
StartChar: uni0328
Encoding: 808 808 308
GlifName: uni0328
Width: 1024
VWidth: 0
Flags: W
HStem: -350 120<331.949 433> -20 20G<331.5 500>
VStem: 201 126<-225.927 -88.5621>
AnchorPoint: "bottom" 436 0 mark 0
LayerCount: 3
Back
Fore
SplineSet
391 -230 m 4
 414 -230 436 -229 456 -225 c 5
 433 -345 l 5
 407 -349 378 -350 348 -350 c 4
 282 -350 201 -287 201 -185 c 4
 201 -97 291 -39 372 0 c 5
 500 0 l 5
 381 -48 327 -90 327 -158 c 4
 327 -211 362 -230 391 -230 c 4
EndSplineSet
Layer: 2
EndChar
StartChar: uni0329
Encoding: 809 809 523
GlifName: uni0329
Width: 1024
VWidth: 0
Flags: W
HStem: -384 256<347 425>
VStem: 297 178
LayerCount: 3
Back
Fore
SplineSet
347 -128 m 1
 475 -128 l 1
 425 -384 l 1
 297 -384 l 1
 347 -128 l 1
EndSplineSet
Validated: 1
Layer: 2
EndChar
StartChar: tonos
Encoding: 900 900 565
GlifName: tonos
Width: 1024
VWidth: 0
Flags: W
HStem: 1131 307
VStem: 596 313
LayerCount: 2
Back
Fore
SplineSet
830 1438 m 5
 909 1358 l 5
 659 1131 l 5
 596 1194 l 5
 830 1438 l 5
EndSplineSet
Validated: 1
EndChar
StartChar: dieresistonos
Encoding: 901 901 554
GlifName: dieresistonos
Width: 1024
VWidth: 0
Flags: W
HStem: 1136 224<321.375 467.625 889.375 1035.62>
VStem: 280 229<1176.13 1319.87> 848 229<1176.13 1319.87>
LayerCount: 3
Back
Fore
SplineSet
848 1223 m 4
 848 1305 913 1360 984 1360 c 4
 1041 1360 1077 1325 1077 1273 c 4
 1077 1191 1012 1136 941 1136 c 4
 884 1136 848 1171 848 1223 c 4
280 1223 m 4
 280 1305 345 1360 416 1360 c 4
 473 1360 509 1325 509 1273 c 4
 509 1191 444 1136 373 1136 c 4
 316 1136 280 1171 280 1223 c 4
854 1566 m 5
 935 1486 l 5
 684 1259 l 5
 621 1322 l 5
 854 1566 l 5
EndSplineSet
Validated: 1
Layer: 2
EndChar
StartChar: Iotatonos
Encoding: 906 906 559
GlifName: I_otatonos
Width: 1024
VWidth: 0
Flags: W
HStem: 0 120<139 395 523 756> 1288 120<390 622 750 1006>
LayerCount: 3
Back
Fore
SplineSet
220 1438 m 1
 299 1358 l 1
 49 1131 l 1
 -14 1194 l 1
 220 1438 l 1
1030 1408 m 1
 1006 1288 l 1
 750 1288 l 1
 523 120 l 1
 779 120 l 1
 756 0 l 1
 116 0 l 1
 139 120 l 1
 395 120 l 1
 622 1288 l 1
 366 1288 l 1
 390 1408 l 1
 1030 1408 l 1
EndSplineSet
Validated: 1
Layer: 2
EndChar
StartChar: Omegatonos
Encoding: 911 911 562
GlifName: O_megatonos
Width: 1024
VWidth: 0
Flags: W
HStem: 0 120<11 175 743 884> 1304 120<519.71 847.302>
VStem: 91 127<237.665 809.606> 957 130<752.482 1192.68>
LayerCount: 2
Back
Fore
SplineSet
201 1438 m 5
 280 1358 l 5
 30 1131 l 5
 -33 1194 l 5
 201 1438 l 5
713 1424 m 4
 963 1424 1087 1272 1087 1045 c 4
 1087 868 1019 584 938 411 c 4
 892 312 824 216 745 130 c 5
 743 120 l 5
 907 120 l 5
 884 0 l 5
 570 0 l 5
 589 96 l 5
 688 195 769 313 823 438 c 4
 887 584 957 865 957 1026 c 4
 957 1196 875 1304 689 1304 c 4
 525 1304 410 1217 343 1089 c 4
 270 949 218 635 218 483 c 4
 218 332 253 207 321 96 c 5
 302 0 l 5
 -12 0 l 5
 11 120 l 5
 175 120 l 5
 177 130 l 5
 120 237 91 343 91 485 c 4
 91 688 156 987 227 1124 c 4
 318 1298 491 1424 713 1424 c 4
EndSplineSet
Validated: 1
EndChar
StartChar: iotadieresistonos
Encoding: 912 912 555
GlifName: iotadieresistonos
Width: 1024
VWidth: 0
HStem: -16 120<558.849 757.243> 1004 20G<567.107 699> 1136 224<319.046 469.954 887.046 1037.95>
VStem: 280 229<1174.36 1321.64> 414 130<118.449 342.776> 848 229<1174.36 1321.64>
LayerCount: 3
Back
Fore
SplineSet
544 203 m 4xec
 544 139 578 104 648 104 c 4
 690 104 741 111 779 119 c 5
 756 -2 l 5
 717 -9 670 -16 615 -16 c 4
 491 -16 414 61 414 181 c 4
 414 217 421 251 426 279 c 6
 571 1024 l 5
 699 1024 l 5
 554 279 l 6
 549 253 544 227 544 203 c 4xec
848 1223 m 0
 848 1305 913 1360 984 1360 c 0
 1041 1360 1077 1325 1077 1273 c 0
 1077 1191 1012 1136 941 1136 c 0
 884 1136 848 1171 848 1223 c 0
280 1223 m 0xf4
 280 1305 345 1360 416 1360 c 0
 473 1360 509 1325 509 1273 c 0
 509 1191 444 1136 373 1136 c 0
 316 1136 280 1171 280 1223 c 0xf4
854 1566 m 1
 935 1486 l 1
 684 1259 l 1
 621 1322 l 1
 854 1566 l 1
EndSplineSet
Layer: 2
EndChar
StartChar: Epsilon
Encoding: 917 917 469
GlifName: E_psilon
Width: 1024
VWidth: 0
Flags: W
HStem: 0 120<267 884> 644 120<393 881> 1288 120<494 1134>
CounterMasks: 1 e0
LayerCount: 3
Back
Fore
SplineSet
390 1408 m 1
 1158 1408 l 1
 1134 1288 l 1
 494 1288 l 1
 393 764 l 1
 905 764 l 1
 881 644 l 1
 369 644 l 1
 267 120 l 1
 907 120 l 1
 884 0 l 1
 116 0 l 1
 390 1408 l 1
EndSplineSet
Validated: 1
Layer: 2
EndChar
StartChar: Eta
Encoding: 919 919 471
GlifName: E_ta
Width: 1024
VWidth: 0
Flags: W
HStem: 0 21G<-12 119.882 756 887.892> 644 120<265 881> 1388 20G<258.108 390 1026.12 1158>
LayerCount: 3
Back
Fore
SplineSet
262 1408 m 1
 390 1408 l 1
 265 764 l 1
 905 764 l 1
 1030 1408 l 1
 1158 1408 l 1
 884 0 l 1
 756 0 l 1
 881 644 l 1
 241 644 l 1
 116 0 l 1
 -12 0 l 1
 262 1408 l 1
EndSplineSet
Validated: 1
Layer: 2
EndChar
StartChar: Theta
Encoding: 920 920 473
GlifName: T_heta
Width: 1024
VWidth: 0
Flags: W
HStem: -16 120<310.767 616.829> 648 120<393 754> 1304 120<528.671 834.86>
VStem: 68 131<223.239 709.69> 947 131<698.31 1184.76>
LayerCount: 3
Back
Fore
SplineSet
947 1003 m 4
 947 1164 876 1304 689 1304 c 4
 509 1304 389 1173 324 1026 c 4
 283 930 260 820 237 704 c 4
 216 597 199 495 199 405 c 4
 199 244 269 104 456 104 c 4
 636 104 756 235 821 382 c 4
 862 478 886 588 909 704 c 4
 930 811 947 913 947 1003 c 4
433 -16 m 4
 176 -16 68 169 68 392 c 4
 68 486 87 592 109 704 c 4
 134 831 159 950 205 1053 c 4
 293 1253 468 1424 713 1424 c 4
 970 1424 1078 1239 1078 1016 c 4
 1078 922 1059 816 1037 704 c 4
 1012 577 987 458 941 355 c 4
 853 155 678 -16 433 -16 c 4
393 768 m 1
 777 768 l 1
 754 648 l 1
 370 648 l 1
 393 768 l 1
EndSplineSet
Layer: 2
EndChar
StartChar: Kappa
Encoding: 922 922 478
GlifName: K_appa
Width: 1024
VWidth: 0
Flags: W
HStem: 0 21G<-12 119.871 754.764 922> 1388 20G<258.108 390 943.448 1103>
LayerCount: 3
Back
Fore
SplineSet
116 0 m 1
 -12 0 l 1
 262 1408 l 1
 390 1408 l 1
 256 719 l 1
 964 1408 l 1
 1103 1408 l 1
 499 813 l 1
 922 0 l 1
 765 0 l 1
 396 721 l 1
 224 558 l 1
 116 0 l 1
EndSplineSet
Validated: 1
Layer: 2
EndChar
StartChar: Pi
Encoding: 928 928 474
GlifName: P_i
Width: 1024
VWidth: 0
Flags: W
HStem: 0 21G<-12 119.882 756 887.892> 1288 120<366 1006>
LayerCount: 3
Back
Fore
SplineSet
262 1408 m 1
 1158 1408 l 1
 884 0 l 1
 756 0 l 1
 1006 1288 l 1
 366 1288 l 1
 116 0 l 1
 -12 0 l 1
 262 1408 l 1
EndSplineSet
Validated: 1
Layer: 2
EndChar
StartChar: Sigma
Encoding: 931 931 530
GlifName: S_igma
Width: 1024
VWidth: 0
Flags: W
HStem: 0 120<304 884> 1288 120<531 1134>
LayerCount: 3
Back
Fore
SplineSet
621 709 m 1
 372 1316 l 1
 390 1408 l 1
 1158 1408 l 1
 1134 1288 l 1
 531 1288 l 1
 529 1278 l 1
 740 752 l 1
 722 656 l 1
 306 130 l 1
 304 120 l 1
 907 120 l 1
 884 0 l 1
 116 0 l 1
 134 92 l 1
 619 699 l 1
 621 709 l 1
EndSplineSet
Validated: 1
Layer: 2
EndChar
StartChar: Phi
Encoding: 934 934 482
GlifName: P_hi
Width: 1024
VWidth: 0
Flags: W
HStem: 0 21G<372 503.826> 115 122<312.162 394 546 667.709> 1171 122<477.465 600 751 832.892> 1388 20G<642 774>
VStem: 83 130<335.64 777.93> 932 131<630.07 1072.36>
LayerCount: 3
Back
Fore
SplineSet
546 237 m 5
 678 257 774 336 832 453 c 4
 870 530 892 616 909 704 c 4
 922 773 932 840 932 903 c 4
 932 1054 869 1148 728 1171 c 5
 546 237 l 5
237 704 m 4
 224 635 213 568 213 505 c 4
 213 354 277 260 418 237 c 5
 600 1171 l 5
 468 1151 372 1072 314 955 c 4
 276 878 254 792 237 704 c 4
394 115 m 5
 185 138 83 277 83 486 c 4
 83 559 95 633 109 704 c 4
 127 796 150 893 197 988 c 4
 280 1153 427 1272 623 1293 c 5
 646 1408 l 5
 774 1408 l 5
 751 1293 l 5
 960 1270 1063 1131 1063 922 c 4
 1063 849 1051 775 1037 704 c 4
 1019 612 996 515 949 420 c 4
 866 255 718 136 522 115 c 5
 500 0 l 5
 372 0 l 5
 394 115 l 5
EndSplineSet
Layer: 2
EndChar
StartChar: Psi
Encoding: 936 936 517
GlifName: P_si
Width: 1024
VWidth: 0
Flags: W
HStem: 0 21G<372 503.892> 370 120<329.738 444 595 744.84> 1388 20G<258.094 390 642.1 774 1026.09 1158>
VStem: 123 131<558.244 898>
LayerCount: 2
Back
Fore
SplineSet
444 370 m 5
 257 384 123 468 123 649 c 4
 123 691 130 731 137 768 c 6
 262 1408 l 5
 390 1408 l 5
 265 768 l 6
 258 732 254 699 254 669 c 4
 254 549 343 501 467 490 c 5
 646 1408 l 5
 774 1408 l 5
 595 490 l 5
 715 500 813 544 865 640 c 4
 884 676 896 720 905 768 c 6
 1030 1408 l 5
 1158 1408 l 5
 1033 768 l 6
 1023 718 1011 661 980 603 c 4
 902 459 751 383 572 370 c 5
 500 0 l 5
 372 0 l 5
 444 370 l 5
EndSplineSet
Validated: 1
EndChar
StartChar: Upsilondieresis
Encoding: 939 939 532
GlifName: U_psilondieresis
Width: 1024
VWidth: 0
Flags: W
HStem: 0 21G<372 503.906> 1328 224<418.875 564.625 866.875 1012.62>
VStem: 197 125<943.809 1152> 377 229<1368.13 1509.63> 825 229<1368.13 1509.63>
LayerCount: 3
Back
Fore
SplineSet
377 1415 m 4
 377 1497 443 1552 514 1552 c 4
 571 1552 606 1517 606 1465 c 4
 606 1383 541 1328 470 1328 c 4
 413 1328 377 1363 377 1415 c 4
825 1415 m 4
 825 1497 891 1552 962 1552 c 4
 1019 1552 1054 1517 1054 1465 c 4
 1054 1383 989 1328 918 1328 c 4
 861 1328 825 1363 825 1415 c 4
197 1152 m 5
 322 1152 l 5
 346 939 405 758 540 612 c 5
 570 612 l 5
 761 758 892 939 998 1152 c 5
 1123 1152 l 5
 1017 923 867 714 600 512 c 5
 500 0 l 5
 372 0 l 5
 472 512 l 5
 283 714 213 923 197 1152 c 5
EndSplineSet
Validated: 1
Layer: 2
EndChar
StartChar: etatonos
Encoding: 942 942 538
GlifName: etatonos
Width: 1024
VWidth: 0
Flags: W
HStem: 0 21G<116 247.896> 920 120<535.045 729.48> 1004 20G<311.113 443>
VStem: 772 130<559.406 876.766>
LayerCount: 2
Back
Fore
SplineSet
830 1438 m 5x90
 910 1358 l 5
 659 1131 l 5
 596 1194 l 5
 830 1438 l 5x90
772 776 m 4
 772 867 710 920 615 920 c 4xd0
 551 920 495 895 456 858 c 4
 401 806 389 744 372 657 c 6
 244 0 l 5
 116 0 l 5
 315 1024 l 5
 443 1024 l 5xb0
 421 912 l 5
 431 912 l 5
 495 989 582 1040 658 1040 c 4xd0
 807 1040 902 944 902 801 c 4
 902 753 893 705 884 657 c 6
 681 -384 l 5
 553 -384 l 5
 756 657 l 6
 765 703 772 742 772 776 c 4
EndSplineSet
Validated: 1
EndChar
StartChar: iotatonos
Encoding: 943 943 540
GlifName: iotatonos
Width: 1024
VWidth: 0
Flags: W
HStem: -16 120<560.057 757.243> 1004 20G<567.107 699>
VStem: 414 130<123.108 338.524>
LayerCount: 3
Back
Fore
SplineSet
544 203 m 4
 544 139 578 104 648 104 c 4
 690 104 741 111 779 119 c 5
 756 -2 l 5
 717 -9 670 -16 615 -16 c 4
 491 -16 414 61 414 181 c 4
 414 217 421 251 426 279 c 6
 571 1024 l 5
 699 1024 l 5
 554 279 l 6
 549 253 544 227 544 203 c 4
830 1438 m 1
 910 1358 l 1
 659 1131 l 1
 596 1194 l 1
 830 1438 l 1
EndSplineSet
Validated: 1
Layer: 2
EndChar
StartChar: upsilondieresistonos
Encoding: 944 944 537
GlifName: upsilondieresistonos
Width: 1024
VWidth: 0
Flags: W
HStem: -16 120<342.999 583.151> 1004 20G<311.128 443 823.128 955> 1136 224<321.375 467.625 889.375 1035.62>
VStem: 167 132<146.163 455.078> 280 229<1176.13 1319.87> 848 229<1176.13 1319.87>
LayerCount: 3
Back
Fore
SplineSet
848 1223 m 4xe4
 848 1305 913 1360 984 1360 c 4
 1041 1360 1077 1325 1077 1273 c 4
 1077 1191 1012 1136 941 1136 c 4
 884 1136 848 1171 848 1223 c 4xe4
280 1223 m 4xec
 280 1305 345 1360 416 1360 c 4
 473 1360 509 1325 509 1273 c 4
 509 1191 444 1136 373 1136 c 4
 316 1136 280 1171 280 1223 c 4xec
854 1566 m 5
 935 1486 l 5
 684 1259 l 5
 621 1322 l 5
 854 1566 l 5
299 250 m 4xf4
 299 162 355 104 456 104 c 4
 554 104 631 159 667 240 c 4
 679 268 687 301 694 337 c 6
 827 1024 l 5
 955 1024 l 5
 822 337 l 6
 815 299 806 258 789 214 c 4
 736 81 606 -16 433 -16 c 4
 259 -16 167 82 167 218 c 4
 167 261 175 300 182 337 c 6
 315 1024 l 5
 443 1024 l 5
 310 337 l 6
 302 296 299 276 299 250 c 4xf4
EndSplineSet
Validated: 1
Layer: 2
EndChar
StartChar: alpha
Encoding: 945 945 516
GlifName: alpha
Width: 1024
VWidth: 0
Flags: W
HStem: -16 120<336.589 548.546 797.961 881> 920 120<480.488 703.969> 1004 20G<823.16 955>
VStem: 151.675 133.242<159.878 558.497>
AnchorPoint: "bottom" 704 0 basechar 0
AnchorPoint: "top" 576 1024 basechar 0
LayerCount: 3
Back
Fore
SplineSet
791.459023152 172.261771357 m 4xb0
 791.459023152 121.113503359 838.703132863 103 904 103 c 5
 881 -16 l 5
 795 -16 744 2 708 36 c 4
 681 61 670 89 668 118 c 5
 658 118 l 5
 572 23 495 -16 397 -16 c 4
 248.792403043 -16 151.674985437 95.9746441886 151.674985437 277.346725311 c 4
 151.674985437 349.088441493 166.584136034 423.33741981 184 512 c 4
 206 624 223 713 268 803 c 4
 344 953 471 1040 602 1040 c 4xd0
 685 1040 752 991 793 899 c 5
 803 899 l 5
 827 1024 l 5
 955 1024 l 5
 796 208 l 6
 793.824194194 195.815487487 791.459023152 183.82034021 791.459023152 172.261771357 c 4xb0
754.204412306 715.792343076 m 4
 754.204412306 824.374995369 712.726505242 920 599 920 c 4
 503 920 428 847 387 768 c 4
 347 692 330 604 312 512 c 4
 297.839540237 439.624316765 284.916849737 369.724172057 284.916849737 306.194539622 c 4
 284.916849737 198.593520191 327.193245281 104 440 104 c 4
 536 104 611 177 652 256 c 4
 692 332 710 420 728 512 c 4
 742.011046016 583.612012971 754.204412306 652.800452974 754.204412306 715.792343076 c 4
EndSplineSet
Layer: 2
EndChar
StartChar: beta
Encoding: 946 946 549
GlifName: beta
Width: 1024
VWidth: 0
Flags: W
HStem: -16 120<270.869 599.325> 772 120<545 687.816> 1304 120<548.095 772.064>
VStem: 761 131<356.622 704.209> 804 129<1002.05 1272.42>
LayerCount: 3
Back
Fore
SplineSet
732 833 m 5xe8
 849 794 892 715 892 597 c 4xf0
 892 550 885 497 873 438 c 4
 822 178 698 -16 469 -16 c 4
 385 -16 308 -5 245 7 c 5
 169 -384 l 5
 41 -384 l 5
 326 1078 l 6
 365 1278 490 1424 699 1424 c 4
 850 1424 933 1323 933 1179 c 4
 933 1153 930 1126 925 1098 c 4
 904 991 863 893 734 843 c 5
 732 833 l 5xe8
269 128 m 5
 343 115 420 104 472 104 c 4
 652 104 711 264 745 438 c 4
 754 487 761 531 761 572 c 4xf0
 761 693 706 772 522 772 c 5
 545 892 l 5
 714 892 772 969 797 1098 c 4
 802 1122 804 1144 804 1164 c 4xe8
 804 1253 760 1304 675 1304 c 4
 533 1304 481 1218 454 1078 c 6
 269 128 l 5
EndSplineSet
Validated: 1
Layer: 2
EndChar
StartChar: gamma
Encoding: 947 947 488
GlifName: gamma
Width: 1024
VWidth: 0
Flags: W
HStem: 1004 20G<256.5 395 821.5 1010>
VStem: 248 135<312.072 1024> 875 135<912.963 1024>
LayerCount: 3
Back
Fore
SplineSet
260 1024 m 5
 395 1024 l 5
 387 926 383 832 383 742 c 4
 383 517 408 320 460 151 c 5
 470 151 l 5
 635 387 768 680 875 1024 c 5
 1010 1024 l 5
 898 663 746 318 500 -1 c 5
 425 -384 l 5
 297 -384 l 5
 372 -1 l 5
 282 234 248 483 248 743 c 4
 248 835 253 929 260 1024 c 5
EndSplineSet
Validated: 1
Layer: 2
EndChar
StartChar: delta
Encoding: 948 948 550
GlifName: delta
Width: 1024
VWidth: 0
Flags: W
HStem: -16 120<334.966 592.721> 792 94<451.651 631.281> 1304 120<612.928 880.706>
VStem: 148 131<160.291 543.583> 419 129<1044.16 1243.3> 770 127<353.097 739.188>
LayerCount: 3
Back
Fore
SplineSet
770 617 m 4
 770 727 706 792 590 792 c 0
 489 792 411 736 366 661 c 0
 316 577 279 414 279 289 c 0
 279 174 341 104 456 104 c 0
 552 104 633 156 680 235 c 0
 732 323 770 491 770 617 c 4
753 1304 m 0
 653 1304 548 1254 548 1138 c 0
 548 1036 656 998 728 944 c 0
 821 874 897 784 897 626 c 0
 897 468 857 304 792 195 c 0
 724 80 593 -16 453 -16 c 0
 237 -16 148 100 148 272 c 0
 148 423 195 603 256 703 c 0
 312 796 405 886 556 886 c 0
 568 886 580 885 593 884 c 1
 595 894 l 1
 511 942 419 1014 419 1127 c 0
 419 1323 619 1424 777 1424 c 4
 824 1424 866 1420 903 1416 c 1
 880 1294 l 1
 845 1298 795 1304 753 1304 c 0
EndSplineSet
Layer: 2
EndChar
StartChar: epsilon
Encoding: 949 949 485
GlifName: epsilon
Width: 1024
VWidth: 0
Flags: W
HStem: -16 120<326.658 681.316> 512 120<415.828 730> 920 120<457.7 829.569>
VStem: 139 130<158.717 393.163> 242 131<674.883 845.648>
LayerCount: 2
Back
Fore
SplineSet
348 563 m 5xf0
 350 573 l 5
 279 605 242 657 242 729 c 4
 242 905 423 1040 639 1040 c 4
 736 1040 835 1012 929 984 c 5
 905 858 l 5
 811 887 708 920 616 920 c 4
 468 920 373 845 373 754 c 4xe8
 373 693 424 653 483 641 c 4
 527 632 565 632 614 632 c 4
 660 632 707 632 753 632 c 5
 730 512 l 5
 592 512 l 6
 546 512 505 511 467 503 c 4
 365 481 269 394 269 263 c 4
 269 163 342 104 458 104 c 4
 549 104 675 140 791 170 c 5
 767 44 l 5
 654 15 538 -16 435 -16 c 4
 256 -16 139 87 139 242 c 4
 139 387 211 502 348 563 c 5xf0
EndSplineSet
Validated: 1
EndChar
StartChar: eta
Encoding: 951 951 490
GlifName: eta
Width: 1024
VWidth: 0
Flags: W
HStem: 0 21G<116 247.896> 920 120<528.829 730.745> 1004 20G<311.113 443>
VStem: 772 130<543.141 877.97>
LayerCount: 3
Back
Fore
SplineSet
772 776 m 4xd0
 772 867 710 920 615 920 c 4xd0
 551 920 495 895 456 858 c 4
 401 806 389 744 372 657 c 6
 244 0 l 5
 116 0 l 5
 315 1024 l 5
 443 1024 l 5xb0
 421 912 l 5
 431 912 l 5
 495 989 582 1040 658 1040 c 4
 807 1040 902 944 902 801 c 4
 902 753 893 705 884 657 c 6
 681 -384 l 5
 553 -384 l 5
 756 657 l 6
 765 703 772 742 772 776 c 4xd0
EndSplineSet
Layer: 2
EndChar
StartChar: iota
Encoding: 953 953 510
GlifName: iota
Width: 1024
VWidth: 0
Flags: W
HStem: -16 120<560.057 757.243> 1004 20G<567.107 699>
VStem: 414 130<123.108 338.524>
LayerCount: 2
Back
Fore
SplineSet
544 203 m 4
 544 139 578 104 648 104 c 4
 690 104 741 111 779 119 c 5
 756 -2 l 5
 717 -9 670 -16 615 -16 c 4
 491 -16 414 61 414 181 c 4
 414 217 421 251 426 279 c 6
 571 1024 l 5
 699 1024 l 5
 554 279 l 6
 549 253 544 227 544 203 c 4
EndSplineSet
Validated: 1
EndChar
StartChar: uni03BC
Encoding: 956 956 518
GlifName: uni03B_C_
Width: 1024
VWidth: 0
Flags: W
HStem: -16 120<342.154 544.055> 0 21G<628 759.887> 1004 20G<311.108 443 823.104 955>
LayerCount: 3
Back
Fore
SplineSet
299 248 m 4xa0
 299 157 361 104 456 104 c 4xa0
 520 104 576 129 615 166 c 4
 670 218 682 280 699 367 c 6
 827 1024 l 5
 955 1024 l 5
 756 0 l 5
 628 0 l 5x60
 650 112 l 5
 640 112 l 5
 581 35 501 -16 433 -16 c 4
 365 -16 305 35 276 112 c 5
 266 112 l 5
 169 -384 l 5
 41 -384 l 5
 315 1024 l 5
 443 1024 l 5
 315 367 l 6
 306 321 299 282 299 248 c 4xa0
EndSplineSet
Validated: 1
Layer: 2
EndChar
StartChar: xi
Encoding: 958 958 552
GlifName: xi
Width: 1024
VWidth: 0
Flags: W
HStem: -16 120<339.669 602.867> 768 120<492.011 777> 1304 120<555.659 1008.65>
VStem: 154 128<160.795 534.854> 311 129<937.158 1190.88> 611 127<-253.321 -20.6845>
LayerCount: 3
Back
Fore
SplineSet
562 106 m 4
 678 106 738 35 738 -61 c 4
 738 -113 718 -192 706 -256 c 5
 597 -256 l 5
 602 -206 611 -151 611 -99 c 4
 611 -47 596 -14 534 -14 c 4
 506 -14 477 -16 442 -16 c 4
 238 -16 154 113 154 294 c 4
 154 532 265 734 408 827 c 5
 410 837 l 5
 343 879 311 949 311 1031 c 4
 311 1153 394 1424 753 1424 c 4
 864 1424 950 1410 1028 1397 c 5
 1004 1276 l 5
 926 1289 831 1304 729 1304 c 4
 476 1304 440 1125 440 1047 c 4
 440 983 469 931 529 904 c 4
 557 891 595 888 642 888 c 6
 801 888 l 5
 777 768 l 5
 619 768 l 6
 570 768 529 765 492 752 c 4
 369 709 282 498 282 304 c 4
 282 185 329 104 467 104 c 4
 493 104 528 106 562 106 c 4
EndSplineSet
Layer: 2
EndChar
StartChar: pi
Encoding: 960 960 486
GlifName: pi
Width: 1024
VWidth: 0
Flags: W
LayerCount: 3
Back
Fore
SplineSet
932 904 m 1
 756 0 l 1
 628 0 l 1
 804 904 l 1
 420 904 l 1
 244 0 l 1
 116 0 l 1
 292 904 l 1
 164 904 l 1
 187 1024 l 1
 1083 1024 l 1
 1060 904 l 1
 932 904 l 1
EndSplineSet
Layer: 2
EndChar
StartChar: sigma1
Encoding: 962 962 547
GlifName: sigma1
Width: 1024
VWidth: 0
Flags: W
HStem: -16 120<344.033 602.867> 920 120<489.347 915.267>
VStem: 153 130<161.228 563.278> 611 127<-253.314 -20.2114>
LayerCount: 3
Back
Fore
SplineSet
562 106 m 4
 678 106 738 36 738 -60 c 4
 738 -113 718 -192 706 -256 c 5
 597 -256 l 5
 602 -206 611 -131 611 -99 c 4
 611 -47 596 -14 534 -14 c 4
 506 -14 477 -16 442 -16 c 4
 250 -16 153 106 153 280 c 4
 153 351 168 427 184 512 c 4
 208 633 230 738 289 831 c 4
 361 946 480 1040 668 1040 c 4
 771 1040 847 1032 935 1023 c 5
 912 903 l 5
 823 912 741 920 645 920 c 4
 525 920 456 872 400 789 c 4
 351 716 332 614 312 512 c 4
 298 438 283 364 283 301 c 4
 283 176 343 104 467 104 c 4
 493 104 528 106 562 106 c 4
EndSplineSet
Layer: 2
EndChar
StartChar: sigma
Encoding: 963 963 511
GlifName: sigma
Width: 1024
VWidth: 0
Flags: W
HStem: -16 120<336.475 590.42> 904 120<883 1060> 920 120<480.58 734.277>
VStem: 154 130<156.972 568.16> 787 128<440.765 866.147>
LayerCount: 3
Back
Fore
SplineSet
615 920 m 4xb8
 519 920 444 868 397 789 c 4
 352 714 332 614 312 512 c 4
 297 437 284 364 284 300 c 4
 284 181 337 104 456 104 c 4
 552 104 627 156 674 235 c 4
 719 310 740 410 760 512 c 4
 775 587 787 660 787 724 c 4
 787 843 734 920 615 920 c 4xb8
883 904 m 5xd8
 907 858 915 804 915 743 c 4
 915 674 904 596 888 512 c 4
 864 391 842 290 786 195 c 4
 717 79 593 -16 433 -16 c 4
 242 -16 154 110 154 283 c 4
 154 353 168 427 184 512 c 4
 208 633 229 734 285 829 c 4
 354 945 478 1040 638 1040 c 4xb8
 677 1040 712 1034 743 1024 c 5
 1083 1024 l 5
 1060 904 l 5
 883 904 l 5xd8
EndSplineSet
Layer: 2
EndChar
StartChar: chi
Encoding: 967 967 536
GlifName: chi
Width: 1024
VWidth: 0
Flags: W
HStem: 1004 20G<240 381.811 880.423 1030>
LayerCount: 3
Back
Fore
SplineSet
517 442 m 1
 527 442 l 1
 893 1024 l 1
 1030 1024 l 1
 576 339 l 1
 574 329 l 1
 778 -384 l 1
 640 -384 l 1
 485 226 l 1
 475 226 l 1
 82 -384 l 1
 -56 -384 l 1
 426 329 l 1
 428 339 l 1
 240 1024 l 1
 377 1024 l 1
 517 442 l 1
EndSplineSet
Validated: 1
Layer: 2
EndChar
StartChar: psi
Encoding: 968 968 515
GlifName: psi
Width: 1024
VWidth: 0
Flags: W
HStem: -14 121<254.738 369 521 670.113> 1004 20G<183.125 315 951.125 1083> 1388 20G<642.111 774>
VStem: 48 131<177.859 504>
LayerCount: 3
Back
Fore
SplineSet
369 -14 m 5
 182 0 48 84 48 265 c 4
 48 307 56 347 63 384 c 6
 187 1024 l 5
 315 1024 l 5
 191 384 l 6
 184 348 179 315 179 285 c 4
 179 165 268 118 393 107 c 5
 646 1408 l 5
 774 1408 l 5
 521 107 l 5
 641 117 739 160 791 256 c 4
 810 292 822 336 831 384 c 6
 955 1024 l 5
 1083 1024 l 5
 959 384 l 6
 949 334 937 277 906 219 c 4
 828 75 676 -1 497 -14 c 5
 425 -384 l 5
 297 -384 l 5
 369 -14 l 5
EndSplineSet
Validated: 1
Layer: 2
EndChar
StartChar: iotadieresis
Encoding: 970 970 533
GlifName: iotadieresis
Width: 1024
VWidth: 0
Flags: W
HStem: -16 120<560.057 757.243> 1004 20G<567.107 699> 1200 224<394.375 540.125 842.375 988.125>
VStem: 353 229<1242.37 1383.87> 414 130<123.108 338.524> 801 229<1242.37 1383.87>
LayerCount: 2
Back
Fore
SplineSet
544 203 m 4xec
 544 139 578 104 648 104 c 4
 690 104 741 111 779 119 c 5
 756 -2 l 5
 717 -9 670 -16 615 -16 c 4
 491 -16 414 61 414 181 c 4
 414 217 421 251 426 279 c 6
 571 1024 l 5
 699 1024 l 5
 554 279 l 6
 549 253 544 227 544 203 c 4xec
353 1287 m 0xf4
 353 1369 418 1424 489 1424 c 0
 546 1424 582 1389 582 1337 c 0
 582 1255 516 1200 445 1200 c 0
 388 1200 353 1235 353 1287 c 0xf4
801 1287 m 0
 801 1369 866 1424 937 1424 c 0
 994 1424 1030 1389 1030 1337 c 0
 1030 1255 964 1200 893 1200 c 0
 836 1200 801 1235 801 1287 c 0
EndSplineSet
Validated: 1
EndChar
StartChar: upsilondieresis
Encoding: 971 971 542
GlifName: upsilondieresis
Width: 1024
VWidth: 0
Flags: W
HStem: -16 120<342.76 583.151> 1004 20G<311.128 443 823.128 955> 1200 224<394.375 540.125 842.375 988.125>
VStem: 167 131<146.163 455.078> 353 229<1242.37 1383.87> 801 229<1242.37 1383.87>
LayerCount: 3
Back
Fore
SplineSet
353 1287 m 4
 353 1369 418 1424 489 1424 c 4
 546 1424 582 1389 582 1337 c 4
 582 1255 516 1200 445 1200 c 4
 388 1200 353 1235 353 1287 c 4
801 1287 m 4
 801 1369 866 1424 937 1424 c 4
 994 1424 1030 1389 1030 1337 c 4
 1030 1255 964 1200 893 1200 c 4
 836 1200 801 1235 801 1287 c 4
298 250 m 4
 298 162 355 104 456 104 c 4
 554 104 631 159 667 240 c 4
 679 268 687 301 694 337 c 6
 827 1024 l 5
 955 1024 l 5
 822 337 l 6
 815 299 806 258 789 214 c 4
 736 81 606 -16 433 -16 c 4
 259 -16 167 82 167 218 c 4
 167 261 175 300 182 337 c 6
 315 1024 l 5
 443 1024 l 5
 310 337 l 6
 302 296 298 276 298 250 c 4
EndSplineSet
Validated: 1
Layer: 2
EndChar
StartChar: uni03DC
Encoding: 988 988 604
GlifName: uni03D_C_
Width: 1024
VWidth: 0
Flags: W
HStem: 0 21G<116 247.875> 640 120<392 880> 1288 120<494 1134>
LayerCount: 3
Back
Fore
SplineSet
390 1408 m 1
 1158 1408 l 1
 1134 1288 l 1
 494 1288 l 1
 392 760 l 1
 904 760 l 1
 880 640 l 1
 368 640 l 1
 244 0 l 1
 116 0 l 1
 390 1408 l 1
EndSplineSet
Validated: 1
Layer: 2
EndChar
StartChar: uni0400
Encoding: 1024 1024 391
GlifName: uni0400
Width: 1024
VWidth: 0
Flags: W
HStem: 0 120<267 884> 516 120<368 856> 1032 120<445 1085>
CounterMasks: 1 e0
LayerCount: 2
Back
Fore
SplineSet
773 1280 m 1
 635 1280 l 1
 519 1536 l 1
 657 1536 l 1
 773 1280 l 1
340 1152 m 1
 1108 1152 l 1
 1085 1032 l 1
 445 1032 l 1
 368 636 l 1
 880 636 l 1
 856 516 l 1
 344 516 l 1
 267 120 l 1
 907 120 l 1
 884 0 l 1
 116 0 l 1
 340 1152 l 1
EndSplineSet
Validated: 1
EndChar
StartChar: uni0401
Encoding: 1025 1025 392
GlifName: uni0401
Width: 1024
VWidth: 0
Flags: W
HStem: 0 120<267 884> 516 120<368 856> 1032 120<445 1085> 1328 224<416.522 566.954 864.522 1014.95>
VStem: 377 229<1366.36 1513.64> 825 229<1366.36 1513.64>
LayerCount: 3
Back
Fore
SplineSet
377 1415 m 0
 377 1497 443 1552 514 1552 c 0
 571 1552 606 1517 606 1465 c 0
 606 1383 541 1328 470 1328 c 0
 413 1328 377 1363 377 1415 c 0
825 1415 m 0
 825 1497 891 1552 962 1552 c 0
 1019 1552 1054 1517 1054 1465 c 0
 1054 1383 989 1328 918 1328 c 0
 861 1328 825 1363 825 1415 c 0
340 1152 m 1
 1108 1152 l 1
 1085 1032 l 1
 445 1032 l 1
 368 636 l 1
 880 636 l 1
 856 516 l 1
 344 516 l 1
 267 120 l 1
 907 120 l 1
 884 0 l 1
 116 0 l 1
 340 1152 l 1
EndSplineSet
Layer: 2
EndChar
StartChar: uni0402
Encoding: 1026 1026 418
GlifName: uni0402
Width: 1024
VWidth: 0
Flags: W
HStem: -272 120<470 603.862> 0 21G<116 247.906> 792 120<553.278 777.363> 1288 120<262 366 494 750>
VStem: 857 128<318.375 709.545>
LayerCount: 3
Back
Fore
SplineSet
697 912 m 4
 878 912 985 775 985 587 c 4
 985 522 974 462 959 384 c 6
 929 234 l 6
 919 182 909 127 888 70 c 4
 821 -113 661 -272 447 -272 c 5
 470 -152 l 5
 614 -152 719 -38 765 89 c 4
 782 134 791 183 801 234 c 6
 831 384 l 6
 845 455 857 518 857 566 c 4
 857 700 782 792 654 792 c 4
 527 792 421 699 365 566 c 4
 345 518 333 455 319 384 c 6
 244 0 l 5
 116 0 l 5
 366 1288 l 5
 238 1288 l 5
 262 1408 l 5
 774 1408 l 5
 750 1288 l 5
 494 1288 l 5
 386 730 l 5
 396 730 l 5
 483 843 580 912 697 912 c 4
EndSplineSet
Validated: 1
Layer: 2
EndChar
StartChar: uni0404
Encoding: 1028 1028 390
GlifName: uni0404
Width: 1024
VWidth: 0
Flags: W
HStem: -16 120<282.357 700.442> 648 120<249 754> 1304 120<499.266 925.823>
VStem: 63 130<196.419 643.446>
LayerCount: 3
Back
Fore
SplineSet
226 648 m 5
 208 550 193 462 193 370 c 4
 193 209 255 104 415 104 c 4
 556 104 677 133 788 163 c 5
 764 39 l 5
 658 11 544 -16 392 -16 c 4
 165 -16 63 131 63 344 c 4
 63 468 86 587 109 704 c 4
 130 814 154 930 196 1044 c 4
 278 1267 438 1424 672 1424 c 4
 808 1424 906 1403 994 1377 c 5
 970 1253 l 5
 878 1280 774 1304 648 1304 c 4
 481 1304 377 1188 315 1016 c 4
 287 938 267 854 249 768 c 5
 777 768 l 5
 754 648 l 5
 226 648 l 5
EndSplineSet
Validated: 1
Layer: 2
EndChar
StartChar: uni0409
Encoding: 1033 1033 412
GlifName: uni0409
Width: 1024
VWidth: 0
Flags: W
HStem: -16 120<8 122.168> 0 120<523 693.655> 648 120<649 781.982> 1288 120<487.141 622>
VStem: 853 130<289.21 577.076>
LayerCount: 2
Back
Fore
SplineSet
235 72 m 4x78
 206 -14 93 -16 -15 -16 c 5
 8 104 l 5xb8
 68 104 117 106 134 161 c 4
 170 287 390 1408 390 1408 c 5
 774 1408 l 5
 649 768 l 5
 684 768 721 768 782 752 c 4
 904 720 983 617 983 471 c 4
 983 236 814 58 639 16 c 4
 572 0 535 0 500 0 c 6
 372 0 l 5
 622 1288 l 5
 494 1288 l 5
 494 1288 290 236 235 72 c 4x78
626 648 m 5
 523 120 l 5x78
 554 120 583 120 630 132 c 4
 746 161 853 286 853 448 c 4
 853 545 806 615 728 636 c 4
 685 648 657 648 626 648 c 5
EndSplineSet
Validated: 1
EndChar
StartChar: uni040A
Encoding: 1034 1034 413
GlifName: uni040A_
Width: 1024
VWidth: 0
Flags: W
HStem: 0 120<523 693.655> 648 120<265 498 649 781.982> 1388 20G<258.108 390 642.094 774>
VStem: 853 130<288.547 577.076>
LayerCount: 3
Back
Fore
SplineSet
523 120 m 5
 554 120 583 120 630 132 c 4
 746 161 853 283 853 448 c 4
 853 545 806 615 728 636 c 4
 685 648 657 648 626 648 c 5
 523 120 l 5
262 1408 m 5
 390 1408 l 5
 265 768 l 5
 521 768 l 5
 646 1408 l 5
 774 1408 l 5
 649 768 l 5
 684 768 721 768 782 752 c 4
 904 720 983 617 983 471 c 4
 983 236 814 58 639 16 c 4
 572 0 535 0 500 0 c 6
 372 0 l 5
 498 648 l 5
 242 648 l 5
 116 0 l 5
 -12 0 l 5
 262 1408 l 5
EndSplineSet
Validated: 1
Layer: 2
EndChar
StartChar: uni040C
Encoding: 1036 1036 404
GlifName: uni040C_
Width: 1024
VWidth: 0
Flags: W
HStem: 0 21G<-12 119.867 741.17 922>
LayerCount: 3
Back
Fore
SplineSet
116 0 m 1
 -12 0 l 1
 212 1152 l 1
 340 1152 l 1
 235 612 l 1
 889 1152 l 1
 1063 1152 l 1
 477 675 l 1
 922 0 l 1
 755 0 l 1
 356 577 l 1
 203 450 l 1
 116 0 l 1
597 1280 m 1
 813 1536 l 1
 951 1536 l 1
 735 1280 l 1
 597 1280 l 1
EndSplineSet
Validated: 1
Layer: 2
EndChar
StartChar: uni040F
Encoding: 1039 1039 415
GlifName: uni040F_
Width: 1024
VWidth: 0
Flags: W
HStem: 0 120<139 372 500 779> 1388 20G<258.108 390 1026.1 1158>
LayerCount: 3
Back
Fore
SplineSet
-12 0 m 5
 262 1408 l 5
 390 1408 l 5
 139 120 l 5
 779 120 l 5
 1030 1408 l 5
 1158 1408 l 5
 884 0 l 5
 500 0 l 5
 450 -256 l 5
 322 -256 l 5
 372 0 l 5
 -12 0 l 5
EndSplineSet
Layer: 2
EndChar
StartChar: uni0411
Encoding: 1041 1041 320
GlifName: uni0411
Width: 1024
VWidth: 0
Flags: W
HStem: 0 120<139 653.655> 648 120<265 741.982> 1288 120<366 1006>
VStem: 813 130<287.021 577.076>
LayerCount: 2
Back
Fore
SplineSet
139 120 m 5
 406 120 l 6
 487 120 543 120 590 132 c 4
 706 161 813 283 813 448 c 4
 813 545 766 615 688 636 c 4
 645 648 590 648 509 648 c 6
 242 648 l 5
 139 120 l 5
-12 0 m 5
 262 1408 l 5
 1030 1408 l 5
 1006 1288 l 5
 366 1288 l 5
 265 768 l 5
 532 768 l 6
 617 768 681 768 742 752 c 4
 864 720 943 617 943 471 c 4
 943 229 774 58 599 16 c 4
 532 0 468 0 383 0 c 6
 -12 0 l 5
EndSplineSet
Validated: 1
EndChar
StartChar: uni0416
Encoding: 1046 1046 325
GlifName: uni0416
Width: 1024
VWidth: 0
Flags: W
HStem: 0 21G<-66 77.781 372 503.89 801.998 938> 653 100<443 499 646 707> 1388 20G<265 396.466 642.092 774 1015.72 1155>
LayerCount: 3
Back
Fore
SplineSet
372 0 m 1
 499 653 l 1
 419 653 l 1
 67 0 l 1
 -66 0 l 1
 325 706 l 1
 265 1408 l 1
 395 1408 l 1
 443 753 l 1
 518 753 l 1
 646 1408 l 1
 774 1408 l 1
 646 753 l 1
 721 753 l 1
 1025 1408 l 1
 1155 1408 l 1
 821 706 l 1
 938 0 l 1
 805 0 l 1
 707 653 l 1
 627 653 l 1
 500 0 l 1
 372 0 l 1
EndSplineSet
Validated: 1
Layer: 2
EndChar
StartChar: uni0417
Encoding: 1047 1047 326
GlifName: uni0417
Width: 1024
VWidth: 0
Flags: W
HStem: -16 120<103.639 546.037> 644 120<265 660.475> 1304 120<356.147 775.61>
VStem: 741 130<292.5 565.535> 849 130<942.993 1233.9>
CounterMasks: 1 e0
LayerCount: 3
Back
Fore
SplineSet
728 704 m 1xe8
 819 656 871 572 871 462 c 0
 871 189 617 -16 370 -16 c 0
 245 -16 113 8 -4 40 c 1
 20 165 l 1
 134 131 273 104 391 104 c 0
 568 104 741 245 741 442 c 0xf0
 741 533 693 602 619 628 c 0
 580 642 529 644 473 644 c 2
 241 644 l 1
 265 764 l 1
 498 764 l 2
 551 764 598 766 639 780 c 0
 755 819 849 955 849 1110 c 0
 849 1232 776 1304 625 1304 c 0
 504 1304 348 1269 227 1228 c 1
 252 1357 l 1
 380 1396 528 1424 649 1424 c 0
 866 1424 979 1309 979 1132 c 0
 979 944 879 789 730 714 c 1
 728 704 l 1xe8
EndSplineSet
Validated: 1
Layer: 2
EndChar
StartChar: uni0418
Encoding: 1048 1048 327
GlifName: uni0418
Width: 1024
VWidth: 0
Flags: W
HStem: 0 21G<-12 130.767 756 887.892> 1388 20G<258.108 390 1016.22 1158>
LayerCount: 2
Back
Fore
SplineSet
756 0 m 1
 981 1158 l 1
 971 1158 l 1
 116 0 l 1
 -12 0 l 1
 262 1408 l 1
 390 1408 l 1
 165 250 l 1
 175 250 l 1
 1031 1408 l 1
 1158 1408 l 1
 884 0 l 1
 756 0 l 1
EndSplineSet
Validated: 1
EndChar
StartChar: uni0422
Encoding: 1058 1058 337
GlifName: uni0422
Width: 1024
VWidth: 0
Flags: W
HStem: 0 21G<372 503.882> 1288 120<262 622 750 1134>
LayerCount: 3
Back
Fore
SplineSet
1158 1408 m 1
 1134 1288 l 1
 750 1288 l 1
 500 0 l 1
 372 0 l 1
 622 1288 l 1
 238 1288 l 1
 262 1408 l 1
 1158 1408 l 1
EndSplineSet
Validated: 1
Layer: 2
EndChar
StartChar: uni0423
Encoding: 1059 1059 338
GlifName: uni0423
Width: 1024
VWidth: 0
Flags: W
HStem: -16 114<7 308.925> 1388 20G<268.5 406 951 1149>
VStem: 263 136<765.148 1408>
LayerCount: 2
Back
Fore
SplineSet
416 384 m 5
 302 642 263 904 263 1180 c 4
 263 1255 266 1331 271 1408 c 5
 406 1408 l 5
 402 1335 399 1265 399 1196 c 4
 399 913 438 666 526 462 c 5
 536 462 l 5
 736 790 888 1104 1014 1408 c 5
 1149 1408 l 5
 965 978 733 560 469 151 c 4
 418 72 326 3 203 -9 c 4
 139 -15 66 -16 -15 -16 c 5
 7 98 l 5
 90 98 157 98 211 104 c 4
 284 112 326 136 374 200 c 4
 418 257 456 316 494 384 c 5
 416 384 l 5
EndSplineSet
Validated: 1
EndChar
StartChar: uni0426
Encoding: 1062 1062 341
GlifName: uni0426
Width: 1024
VWidth: 0
Flags: W
HStem: 0 120<139 651> 1388 20G<258.108 390 898.102 1030>
LayerCount: 3
Back
Fore
SplineSet
-12 0 m 1
 262 1408 l 1
 390 1408 l 1
 139 120 l 1
 651 120 l 1
 902 1408 l 1
 1030 1408 l 1
 779 120 l 1
 907 120 l 1
 834 -256 l 1
 706 -256 l 1
 756 0 l 1
 -12 0 l 1
EndSplineSet
Validated: 1
Layer: 2
EndChar
StartChar: uni0428
Encoding: 1064 1064 343
GlifName: uni0428
Width: 1024
VWidth: 0
Flags: W
HStem: 0 120<139 395 523 779> 1388 20G<258.108 390 642.102 774 1026.1 1158>
LayerCount: 3
Back
Fore
SplineSet
-12 0 m 1
 262 1408 l 1
 390 1408 l 1
 139 120 l 1
 395 120 l 1
 646 1408 l 1
 774 1408 l 1
 523 120 l 1
 779 120 l 1
 1030 1408 l 1
 1158 1408 l 1
 884 0 l 1
 -12 0 l 1
EndSplineSet
Validated: 1
Layer: 2
EndChar
